{
.formatVersion = 3;
axes = (
{
name = Weight;
tag = wght;
}
);
classes = (
{
code = "comma one two A O o Scedilla scedilla Tcedilla tcedilla quoteleft quoteright quotesinglbase quotedblleft quotedblright quotedblbase";
name = aalt;
},
{
code = "comma.ss01 onesuperior twosuperior ordfeminine ordmasculine ordmasculine Scommaaccent scommaaccent Tcommaaccent tcommaaccent quoteleft.ss01 quoteright.ss01 quotesinglbase.ss01 quotedblleft.ss01 quotedblright.ss01 quotedblbase.ss01";
name = aalt2;
},
{
code = "zero one two three four five six seven eight nine";
name = ordn_pnum_tnum;
},
{
code = "zero.tnum one.tnum two.tnum three.tnum four.tnum five.tnum six.tnum seven.tnum eight.tnum nine.tnum";
name = pnum_tnum;
},
{
code = "comma quoteleft quoteright quotesinglbase quotedblleft quotedblright quotedblbase";
name = salt_ss01;
},
{
code = "comma.ss01 quoteleft.ss01 quoteright.ss01 quotesinglbase.ss01 quotedblleft.ss01 quotedblright.ss01 quotedblbase.ss01";
name = salt_ss012;
},
{
code = "shacyr shchacyr icyr ishortcyr igravecyr vecyr zecyr decyr elcyr Elcyr Decyr gecyr Kacyr kacyr Zhecyr zhecyr pecyr tecyr.loclBGR tsecyr yucyr";
name = loclBGR;
},
{
code = "shacyr.loclBGR shchacyr.loclBGR icyr.loclBGR ishortcyr.loclBGR igravecyr.loclBGR vecyr.loclBGR zecyr.loclBGR decyr.loclBGR elcyr.loclBGR Elcyr.loclBGR Decyr.loclBGR gecyr.loclBGR Kacyr.loclBGR kacyr.loclBGR Zhecyr.loclBGR zhecyr.loclBGR pecyr.loclBGR tecyr.loclBGR tsecyr.loclBGR yucyr.loclBGR";
name = loclBGR2;
},
{
code = "Acyr Iecyr Icyr Ocyr Ucyr Ylongcyr Yucyr Yacyr Iocyr Iukrcyr Eukrcyr acyr iecyr icyr ocyr ucyr ylongcyr yucyr yacyr iocyr iukrcyr eukrcyr";
name = liga3;
}
);
familyName = "Wladi Sans VF";
customParameters = (
{
name = glyphOrder;
value = (
.notdef,
NULL,
CR,
space,
exclam,
quotedbl,
numbersign,
dollar,
percent,
ampersand,
quotesingle,
parenleft,
parenright,
asterisk,
plus,
comma,
hyphen,
period,
slash,
zero,
one,
two,
three,
four,
five,
six,
seven,
eight,
nine,
colon,
semicolon,
less,
equal,
greater,

glyphs = (
{
glyphname = exclam;
layers = (
{
layerId = "13F78407-9584-4645-8E30-4A73FD50F324";
name = "#instance";
shapes = (
{
closed = 1;
nodes = (
(84,248,l),
(229,248,l),
(328,700,l),
(145,700,l)
);
},
{
closed = 1;
nodes = (
(199,-8,o),
(240,33,o),
(240,84,cs),
(240,137,o),
(199,178,o),
(139,178,cs),
(78,178,o),
(37,137,o),
(37,84,cs),
(37,33,o),
(78,-8,o),
(139,-8,cs)
);
}
);
width = 334;
},
{
layerId = "F1969046-B2E8-43BF-9859-EB2A2EDBE7A7";
shapes = (
{
closed = 1;
nodes = (
(84,248,l),
(229,248,l),
(328,700,l),
(145,700,l)
);
},
{
closed = 1;
nodes = (
(199,-8,o),
(240,33,o),
(240,84,cs),
(240,137,o),
(199,178,o),
(139,178,cs),
(78,178,o),
(37,137,o),
(37,84,cs),
(37,33,o),
(78,-8,o),
(139,-8,cs)
);
}
);
width = 334;
},
{
layerId = "F079074A-78E4-4C90-8BE5-DA787960C0F3";
shapes = (
{
closed = 1;
nodes = (
(65,197,l),
(139,197,l),
(239,700,l),
(144,700,l)
);
},
{
closed = 1;
nodes = (
(120,-6,o),
(145,21,o),
(145,54,cs),
(145,87,o),
(120,112,o),
(85,112,cs),
(50,112,o),
(26,87,o),
(26,54,cs),
(26,21,o),
(50,-6,o),
(85,-6,cs)
);
}
);
width = 239;
},
{
layerId = "732555A9-C6E9-44F7-9412-4A8D1575CED6";
shapes = (
{
closed = 1;
nodes = (
(57,176,l),
(103,176,l),
(203,700,l),
(143,700,l)
);
},
{
closed = 1;
nodes = (
(88,-5,o),
(107,15,o),
(107,42,cs),
(107,67,o),
(88,86,o),
(64,86,cs),
(40,86,o),
(21,67,o),
(21,42,cs),
(21,15,o),
(40,-5,o),
(64,-5,cs)
);
}
);
width = 201;
}
);
unicode = 33;
},
{
glyphname = quotedbl;
layers = (
{
layerId = "13F78407-9584-4645-8E30-4A73FD50F324";
name = "#instance";
shapes = (
{
closed = 1;
nodes = (
(289,534,l),
(404,534,l),
(456,755,l),
(314,755,l)
);
},
{
closed = 1;
nodes = (
(99,534,l),
(214,534,l),
(265,755,l),
(124,755,l)
);
}
);
width = 400;
},
{
layerId = "F1969046-B2E8-43BF-9859-EB2A2EDBE7A7";
shapes = (
{
closed = 1;
nodes = (
(289,534,l),
(404,534,l),
(456,755,l),
(314,755,l)
);
},
{
closed = 1;
nodes = (
(99,534,l),
(214,534,l),
(265,755,l),
(124,755,l)
);
}
);
width = 400;
},
{
layerId = "F079074A-78E4-4C90-8BE5-DA787960C0F3";
shapes = (
{
closed = 1;
nodes = (
(230,557,l),
(290,557,l),
(336,755,l),
(253,755,l)
);
},
{
closed = 1;
nodes = (
(97,557,l),
(158,557,l),
(203,755,l),
(120,755,l)
);
}
);
width = 277;
},
{
layerId = "732555A9-C6E9-44F7-9412-4A8D1575CED6";
shapes = (
{
closed = 1;
nodes = (
(206,566,l),
(245,566,l),
(288,755,l),
(228,755,l)
);
},
{
closed = 1;
nodes = (
(96,566,l),
(135,566,l),
(178,755,l),
(119,755,l)
);
}
);
width = 228;
}
);
leftKerningGroup = quotedbl2;
rightKerningGroup = quotedbl;
unicode = 34;
},
{
glyphname = numbersign;
layers = (
{
layerId = "13F78407-9584-4645-8E30-4A73FD50F324";
name = "#instance";
shapes = (
{
closed = 1;
nodes = (
(404,0,l),
(564,0,l),
(624,153,l),
(777,153,l),
(805,307,l),
(684,307,l),
(735,438,l),
(892,438,l),
(919,592,l),
(795,592,l),
(853,740,l),
(693,740,l),
(635,592,l),
(469,592,l),
(527,740,l),
(367,740,l),
(309,592,l),
(132,592,l),
(105,438,l),
(249,438,l),
(198,307,l),
(18,307,l),
(-10,153,l),
(138,153,l),
(78,0,l),
(238,0,l),
(298,153,l),
(464,153,l)
);
},
{
closed = 1;
nodes = (
(524,307,l),
(358,307,l),
(409,438,l),
(575,438,l)
);
}
);
width = 892;
},
{
layerId = "F1969046-B2E8-43BF-9859-EB2A2EDBE7A7";
shapes = (
{
closed = 1;
nodes = (
(404,0,l),
(564,0,l),
(624,153,l),
(777,153,l),
(805,307,l),
(684,307,l),
(735,438,l),
(892,438,l),
(919,592,l),
(795,592,l),
(853,740,l),
(693,740,l),
(635,592,l),
(469,592,l),
(527,740,l),
(367,740,l),
(309,592,l),
(132,592,l),
(105,438,l),
(249,438,l),
(198,307,l),
(18,307,l),
(-10,153,l),
(138,153,l),
(78,0,l),
(238,0,l),
(298,153,l),
(464,153,l)
);
},
{
closed = 1;
nodes = (
(524,307,l),
(358,307,l),
(409,438,l),
(575,438,l)
);
}
);
width = 892;
},
{
layerId = "F079074A-78E4-4C90-8BE5-DA787960C0F3";
shapes = (
{
closed = 1;
nodes = (
(388,0,l),
(472,0,l),
(548,195,l),
(709,195,l),
(723,273,l),
(578,273,l),
(641,434,l),
(796,434,l),
(809,513,l),
(671,513,l),
(747,707,l),
(664,707,l),
(588,513,l),
(376,513,l),
(452,707,l),
(368,707,l),
(293,513,l),
(126,513,l),
(113,434,l),
(262,434,l),
(199,273,l),
(40,273,l),
(26,195,l),
(168,195,l),
(92,0,l),
(176,0,l),
(252,195,l),
(464,195,l)
);
},
{
closed = 1;
nodes = (
(495,273,l),
(282,273,l),
(345,434,l),
(557,434,l)
);
}
);
width = 804;
},
{
layerId = "732555A9-C6E9-44F7-9412-4A8D1575CED6";
shapes = (
{
closed = 1;
nodes = (
(381,0,l),
(435,0,l),
(517,212,l),
(682,212,l),
(690,260,l),
(536,260,l),
(603,433,l),
(758,433,l),
(765,482,l),
(622,482,l),
(705,694,l),
(652,694,l),
(569,482,l),
(339,482,l),
(422,694,l),
(368,694,l),
(286,482,l),
(123,482,l),
(116,433,l),
(267,433,l),
(199,260,l),
(49,260,l),
(41,212,l),
(180,212,l),
(98,0,l),
(151,0,l),
(233,212,l),
(464,212,l)
);
},
{
closed = 1;
nodes = (
(483,260,l),
(252,260,l),
(320,433,l),
(550,433,l)
);
}
);
width = 769;
}
);
unicode = 35;
},
{
glyphname = dollar;
layers = (
{
layerId = "13F78407-9584-4645-8E30-4A73FD50F324";
name = "#instance";
shapes = (
{
closed = 1;
nodes = (
(203,-87,l),
(266,-87,l),
(421,792,l),
(358,792,l)
);
},
{
closed = 1;
nodes = (
(349,-12,o),
(423,12,o),
(476,53,cs),
(528,94,o),
(560,154,o),
(560,227,cs),
(560,278,o),
(540,318,o),
(509,349,cs),
(477,380,o),
(435,402,o),
(390,418,cs),
(358,430,o),
(327,441,o),
(306,454,cs),
(285,467,o),
(271,483,o),
(271,507,cs),
(271,524,o),
(278,540,o),
(291,551,cs),
(303,562,o),
(321,569,o),
(345,569,cs),
(366,569,o),
(383,563,o),
(395,555,c),
(406,546,o),
(412,533,o),
(412,518,cs),
(412,510,o),
(412,509,o),
(411,502,c),
(596,502,l),
(597,513,o),
(598,522,o),
(598,533,cs),
(598,590,o),
(576,636,o),
(537,666,cs),
(498,696,o),
(443,712,o),
(376,712,cs),
(292,712,o),
(220,689,o),
(169,647,cs),
(117,605,o),
(86,546,o),
(86,474,cs),
(86,393,o),
(139,336,o),
(227,305,cs),
(264,292,o),
(300,280,o),
(328,265,c),
(355,249,o),
(373,231,o),
(373,204,cs),
(373,161,o),
(338,131,o),
(287,131,cs),
(240,131,o),
(210,156,o),
(210,199,cs),
(210,203,o),
(210,204,o),
(211,212,c),
(28,212,l),
(25,199,o),
(25,187,o),
(25,175,cs),
(25,114,o),
(50,66,o),
(93,35,cs),
(136,4,o),
(196,-12,o),
(265,-12,cs)
);
}
);
width = 605;
},
{
layerId = "F1969046-B2E8-43BF-9859-EB2A2EDBE7A7";
shapes = (
{
closed = 1;
nodes = (
(203,-87,l),
(266,-87,l),
(421,792,l),
(358,792,l)
);
},
{
closed = 1;
nodes = (
(349,-12,o),
(423,12,o),
(476,53,cs),
(528,94,o),
(560,154,o),
(560,227,cs),
(560,278,o),
(540,318,o),
(509,349,cs),
(477,380,o),
(435,402,o),
(390,418,cs),
(358,430,o),
(327,441,o),
(306,454,cs),
(285,467,o),
(271,483,o),
(271,507,cs),
(271,524,o),
(278,540,o),
(291,551,cs),
(303,562,o),
(321,569,o),
(345,569,cs),
(366,569,o),
(383,563,o),
(395,555,c),
(406,546,o),
(412,533,o),
(412,518,cs),
(412,510,o),
(412,509,o),
(411,502,c),
(596,502,l),
(597,513,o),
(598,522,o),
(598,533,cs),
(598,590,o),
(576,636,o),
(537,666,cs),
(498,696,o),
(443,712,o),
(376,712,cs),
(292,712,o),
(220,689,o),
(169,647,cs),
(117,605,o),
(86,546,o),
(86,474,cs),
(86,393,o),
(139,336,o),
(227,305,cs),
(264,292,o),
(300,280,o),
(328,265,c),
(355,249,o),
(373,231,o),
(373,204,cs),
(373,161,o),
(338,131,o),
(287,131,cs),
(240,131,o),
(210,156,o),
(210,199,cs),
(210,203,o),
(210,204,o),
(211,212,c),
(28,212,l),
(25,199,o),
(25,187,o),
(25,175,cs),
(25,114,o),
(50,66,o),
(93,35,cs),
(136,4,o),
(196,-12,o),
(265,-12,cs)
);
}
);
width = 605;
},
{
layerId = "F079074A-78E4-4C90-8BE5-DA787960C0F3";
shapes = (
{
closed = 1;
nodes = (
(199,-87,l),
(253,-87,l),
(408,791,l),
(354,791,l)
);
},
{
closed = 1;
nodes = (
(341,-12,o),
(406,10,o),
(453,49,cs),
(500,88,o),
(526,144,o),
(526,212,cs),
(526,257,o),
(510,293,o),
(484,322,cs),
(458,350,o),
(422,372,o),
(381,385,c),
(332,402,o),
(287,416,o),
(255,435,cs),
(223,454,o),
(203,477,o),
(203,514,cs),
(203,550,o),
(218,581,o),
(243,602,cs),
(267,623,o),
(303,637,o),
(347,637,cs),
(387,637,o),
(417,625,o),
(437,606,cs),
(457,587,o),
(467,561,o),
(467,536,cs),
(467,529,o),
(466,524,o),
(465,517,c),
(557,517,l),
(560,528,o),
(561,538,o),
(561,549,cs),
(561,597,o),
(541,638,o),
(506,667,c),
(470,695,o),
(420,712,o),
(359,712,cs),
(286,712,o),
(223,691,o),
(179,654,cs),
(135,617,o),
(110,565,o),
(110,501,cs),
(110,429,o),
(153,372,o),
(241,340,cs),
(288,323,o),
(335,310,o),
(371,291,cs),
(407,271,o),
(432,244,o),
(432,200,cs),
(432,117,o),
(376,62,o),
(272,62,cs),
(181,62,o),
(125,111,o),
(125,183,cs),
(125,192,o),
(126,200,o),
(127,211,c),
(35,211,l),
(32,196,o),
(31,183,o),
(31,170,cs),
(31,115,o),
(54,70,o),
(95,38,cs),
(135,6,o),
(193,-12,o),
(262,-12,cs)
);
}
);
width = 578;
},
{
layerId = "732555A9-C6E9-44F7-9412-4A8D1575CED6";
shapes = (
{
closed = 1;
nodes = (
(197,-87,l),
(248,-87,l),
(403,791,l),
(352,791,l)
);
},
{
closed = 1;
nodes = (
(337,-12,o),
(400,10,o),
(444,48,cs),
(488,86,o),
(512,141,o),
(512,206,cs),
(512,249,o),
(498,283,o),
(474,311,cs),
(450,338,o),
(417,359,o),
(377,372,c),
(321,392,o),
(271,407,o),
(235,428,cs),
(199,448,o),
(176,474,o),
(176,517,cs),
(176,560,o),
(194,597,o),
(224,623,cs),
(254,649,o),
(296,664,o),
(348,664,cs),
(396,664,o),
(431,649,o),
(455,626,cs),
(478,603,o),
(489,574,o),
(489,543,cs),
(489,538,o),
(488,530,o),
(487,523,c),
(542,523,l),
(545,534,o),
(546,544,o),
(546,555,cs),
(546,600,o),
(527,639,o),
(493,667,cs),
(459,695,o),
(411,712,o),
(352,712,cs),
(283,712,o),
(224,692,o),
(183,657,cs),
(142,621,o),
(119,572,o),
(119,512,cs),
(119,444,o),
(158,387,o),
(246,354,cs),
(297,335,o),
(349,322,o),
(389,301,cs),
(428,280,o),
(455,250,o),
(455,199,cs),
(455,99,o),
(391,35,o),
(266,35,cs),
(158,35,o),
(91,93,o),
(91,177,cs),
(91,188,o),
(91,199,o),
(94,210,c),
(38,210,l),
(35,195,o),
(33,181,o),
(33,168,cs),
(33,116,o),
(55,71,o),
(95,39,cs),
(135,7,o),
(192,-12,o),
(261,-12,cs)
);
}
);
width = 567;
}
);
leftKerningGroup = S2;
rightKerningGroup = S;
unicode = 36;
},
{
glyphname = percent;
layers = (
{
layerId = "13F78407-9584-4645-8E30-4A73FD50F324";
name = "#instance";
shapes = (
{
closed = 1;
nodes = (
(302,338,o),
(356,362,o),
(394,402,cs),
(432,442,o),
(454,497,o),
(454,561,cs),
(454,608,o),
(437,646,o),
(409,672,cs),
(380,698,o),
(340,712,o),
(295,712,cs),
(234,712,o),
(180,688,o),
(142,648,cs),
(104,608,o),
(80,553,o),
(80,489,cs),
(80,444,o),
(98,406,o),
(127,379,cs),
(155,352,o),
(196,338,o),
(241,338,cs)
);
},
{
closed = 1;
nodes = (
(160,0,l),
(325,0,l),
(832,700,l),
(667,700,l)
);
},
{
closed = 1;
nodes = (
(226,450,o),
(211,468,o),
(211,501,cs),
(211,529,o),
(219,555,o),
(231,573,cs),
(243,591,o),
(260,601,o),
(280,601,cs),
(309,601,o),
(323,584,o),
(323,549,cs),
(323,521,o),
(315,497,o),
(303,479,cs),
(290,461,o),
(273,450,o),
(253,450,cs)
);
},
{
closed = 1;
nodes = (
(763,-12,o),
(816,12,o),
(854,52,cs),
(892,92,o),
(914,148,o),
(914,211,cs),
(914,258,o),
(896,296,o),
(868,322,cs),
(839,348,o),
(799,362,o),
(754,362,cs),
(693,362,o),
(639,338,o),
(601,298,cs),
(563,258,o),
(539,202,o),
(539,139,cs),
(539,92,o),
(557,55,o),
(586,29,cs),
(615,3,o),
(655,-12,o),
(700,-12,cs)
);
},
{
closed = 1;
nodes = (
(685,100,o),
(671,116,o),
(671,151,cs),
(671,179,o),
(678,205,o),
(690,223,cs),
(702,241,o),
(719,251,o),
(739,251,cs),
(768,251,o),
(782,234,o),
(782,199,cs),
(782,171,o),
(774,147,o),
(762,129,cs),
(750,111,o),
(733,100,o),
(713,100,cs)
);
}
);
width = 958;
},
{
layerId = "F1969046-B2E8-43BF-9859-EB2A2EDBE7A7";
shapes = (
{
closed = 1;
nodes = (
(302,338,o),
(356,362,o),
(394,402,cs),
(432,442,o),
(454,497,o),
(454,561,cs),
(454,608,o),
(437,646,o),
(409,672,cs),
(380,698,o),
(340,712,o),
(295,712,cs),
(234,712,o),
(180,688,o),
(142,648,cs),
(104,608,o),
(80,553,o),
(80,489,cs),
(80,444,o),
(98,406,o),
(127,379,cs),
(155,352,o),
(196,338,o),
(241,338,cs)
);
},
{
closed = 1;
nodes = (
(160,0,l),
(325,0,l),
(832,700,l),
(667,700,l)
);
},
{
closed = 1;
nodes = (
(226,450,o),
(211,468,o),
(211,501,cs),
(211,529,o),
(219,555,o),
(231,573,cs),
(243,591,o),
(260,601,o),
(280,601,cs),
(309,601,o),
(323,584,o),
(323,549,cs),
(323,521,o),
(315,497,o),
(303,479,cs),
(290,461,o),
(273,450,o),
(253,450,cs)
);
},
{
closed = 1;
nodes = (
(763,-12,o),
(816,12,o),
(854,52,cs),
(892,92,o),
(914,148,o),
(914,211,cs),
(914,258,o),
(896,296,o),
(868,322,cs),
(839,348,o),
(799,362,o),
(754,362,cs),
(693,362,o),
(639,338,o),
(601,298,cs),
(563,258,o),
(539,202,o),
(539,139,cs),
(539,92,o),
(557,55,o),
(586,29,cs),
(615,3,o),
(655,-12,o),
(700,-12,cs)
);
},
{
closed = 1;
nodes = (
(685,100,o),
(671,116,o),
(671,151,cs),
(671,179,o),
(678,205,o),
(690,223,cs),
(702,241,o),
(719,251,o),
(739,251,cs),
(768,251,o),
(782,234,o),
(782,199,cs),
(782,171,o),
(774,147,o),
(762,129,cs),
(750,111,o),
(733,100,o),
(713,100,cs)
);
}
);
width = 958;
},
{
layerId = "F079074A-78E4-4C90-8BE5-DA787960C0F3";
shapes = (
{
closed = 1;
nodes = (
(273,373,o),
(320,395,o),
(355,431,cs),
(390,467,o),
(410,517,o),
(410,572,cs),
(410,616,o),
(395,650,o),
(371,674,cs),
(347,698,o),
(313,711,o),
(272,711,cs),
(220,711,o),
(171,688,o),
(137,652,cs),
(103,616,o),
(81,566,o),
(81,513,cs),
(81,470,o),
(95,434,o),
(120,411,c),
(144,387,o),
(179,373,o),
(220,373,cs)
);
},
{
closed = 1;
nodes = (
(91,0,l),
(179,0,l),
(707,700,l),
(620,700,l)
);
},
{
closed = 1;
nodes = (
(187,439,o),
(155,464,o),
(155,520,cs),
(155,555,o),
(167,586,o),
(187,610,cs),
(206,633,o),
(233,647,o),
(264,647,cs),
(305,647,o),
(337,621,o),
(337,565,cs),
(337,530,o),
(324,499,o),
(304,476,cs),
(284,453,o),
(257,439,o),
(228,439,cs)
);
},
{
closed = 1;
nodes = (
(587,-12,o),
(632,11,o),
(667,47,cs),
(702,83,o),
(723,134,o),
(723,187,cs),
(723,231,o),
(708,265,o),
(684,289,cs),
(660,313,o),
(626,326,o),
(585,326,cs),
(533,326,o),
(484,304,o),
(450,268,cs),
(416,232,o),
(394,181,o),
(394,128,cs),
(394,84,o),
(409,49,o),
(434,25,cs),
(458,1,o),
(492,-12,o),
(532,-12,cs)
);
},
{
closed = 1;
nodes = (
(500,54,o),
(468,79,o),
(468,135,cs),
(468,170,o),
(480,201,o),
(500,225,cs),
(520,248,o),
(548,262,o),
(577,262,cs),
(618,262,o),
(649,236,o),
(649,180,cs),
(649,145,o),
(637,114,o),
(618,91,cs),
(598,68,o),
(572,54,o),
(541,54,cs)
);
}
);
width = 768;
},
{
layerId = "732555A9-C6E9-44F7-9412-4A8D1575CED6";
shapes = (
{
closed = 1;
nodes = (
(262,387,o),
(306,408,o),
(339,443,cs),
(372,478,o),
(392,525,o),
(392,576,cs),
(392,619,o),
(379,652,o),
(356,676,cs),
(333,699,o),
(302,711,o),
(263,711,cs),
(214,711,o),
(167,689,o),
(135,654,cs),
(102,619,o),
(81,573,o),
(81,522,cs),
(81,481,o),
(94,446,o),
(117,423,cs),
(140,400,o),
(172,387,o),
(211,387,cs)
);
},
{
closed = 1;
nodes = (
(63,0,l),
(120,0,l),
(657,700,l),
(601,700,l)
);
},
{
closed = 1;
nodes = (
(171,434,o),
(132,463,o),
(132,527,cs),
(132,564,o),
(146,599,o),
(169,624,cs),
(192,649,o),
(224,665,o),
(257,665,cs),
(304,665,o),
(342,636,o),
(342,572,cs),
(342,535,o),
(328,499,o),
(305,475,cs),
(282,450,o),
(251,434,o),
(218,434,cs)
);
},
{
closed = 1;
nodes = (
(516,-12,o),
(560,10,o),
(593,45,cs),
(626,80,o),
(646,127,o),
(646,178,cs),
(646,221,o),
(633,253,o),
(611,277,cs),
(589,300,o),
(557,312,o),
(518,312,cs),
(469,312,o),
(422,291,o),
(390,256,cs),
(357,221,o),
(336,174,o),
(336,123,cs),
(336,80,o),
(349,47,o),
(372,24,cs),
(395,0,o),
(428,-12,o),
(465,-12,cs)
);
},
{
closed = 1;
nodes = (
(425,35,o),
(387,64,o),
(387,128,cs),
(387,165,o),
(401,200,o),
(424,225,cs),
(447,250,o),
(479,266,o),
(512,266,cs),
(559,266,o),
(596,237,o),
(596,173,cs),
(596,136,o),
(582,101,o),
(560,76,cs),
(538,51,o),
(507,35,o),
(472,35,cs)
);
}
);
width = 692;
}
);
leftKerningGroup = percent;
unicode = 37;
},
{
glyphname = ampersand;
layers = (
{
layerId = "13F78407-9584-4645-8E30-4A73FD50F324";
name = "#instance";
shapes = (
{
closed = 1;
nodes = (
(555,0,l),
(754,0,l),
(612,168,l),
(651,211,o),
(688,262,o),
(727,326,cs),
(751,365,l),
(579,365,l),
(568,347,ls),
(553,322,o),
(537,299,o),
(521,276,c),
(381,441,ls),
(354,474,o),
(341,503,o),
(341,527,cs),
(341,546,o),
(348,560,o),
(359,572,cs),
(370,583,o),
(387,589,o),
(404,589,cs),
(431,589,o),
(452,576,o),
(452,549,cs),
(452,544,o),
(452,540,o),
(451,537,c),
(611,537,l),
(614,548,o),
(614,558,o),
(614,567,cs),
(614,607,o),
(599,644,o),
(568,670,cs),
(536,696,o),
(490,712,o),
(427,712,cs),
(355,712,o),
(292,691,o),
(248,655,cs),
(203,619,o),
(177,567,o),
(177,504,cs),
(177,472,o),
(185,444,o),
(208,409,c),
(153,385,o),
(105,352,o),
(72,312,cs),
(39,272,o),
(19,224,o),
(19,169,cs),
(19,56,o),
(108,-11,o),
(256,-11,cs),
(348,-11,o),
(424,13,o),
(500,65,c)
);
},
{
closed = 1;
nodes = (
(413,166,l),
(374,139,o),
(334,127,o),
(290,127,cs),
(226,127,o),
(194,158,o),
(194,201,cs),
(194,248,o),
(229,288,o),
(285,315,c)
);
}
);
width = 808;
},
{
layerId = "F1969046-B2E8-43BF-9859-EB2A2EDBE7A7";
shapes = (
{
closed = 1;
nodes = (
(555,0,l),
(754,0,l),
(612,168,l),
(651,211,o),
(688,262,o),
(727,326,cs),
(751,365,l),
(579,365,l),
(568,347,ls),
(553,322,o),
(537,299,o),
(521,276,c),
(381,441,l),
(354,474,o),
(341,503,o),
(341,527,cs),
(341,546,o),
(348,560,o),
(359,572,cs),
(370,583,o),
(387,589,o),
(404,589,cs),
(431,589,o),
(452,576,o),
(452,549,cs),
(452,544,o),
(452,540,o),
(451,537,c),
(611,537,l),
(614,548,o),
(614,558,o),
(614,567,cs),
(614,607,o),
(599,644,o),
(568,670,cs),
(536,696,o),
(490,712,o),
(427,712,cs),
(355,712,o),
(292,691,o),
(248,655,cs),
(203,619,o),
(177,567,o),
(177,504,cs),
(177,472,o),
(185,444,o),
(208,409,c),
(153,385,o),
(105,352,o),
(72,312,cs),
(39,272,o),
(19,224,o),
(19,169,cs),
(19,56,o),
(108,-11,o),
(256,-11,cs),
(348,-11,o),
(424,13,o),
(500,65,c)
);
},
{
closed = 1;
nodes = (
(413,166,l),
(374,139,o),
(334,127,o),
(290,127,cs),
(226,127,o),
(194,158,o),
(194,201,cs),
(194,248,o),
(229,288,o),
(285,315,c)
);
}
);
width = 808;
},
{
layerId = "F079074A-78E4-4C90-8BE5-DA787960C0F3";
shapes = (
{
closed = 1;
nodes = (
(562,0,l),
(671,0,l),
(549,149,l),
(574,178,o),
(599,209,o),
(626,248,cs),
(707,363,l),
(615,363,l),
(549,273,ls),
(532,249,o),
(516,228,o),
(500,209,c),
(320,430,ls),
(287,471,o),
(270,505,o),
(270,540,cs),
(270,569,o),
(282,594,o),
(302,613,cs),
(321,632,o),
(349,643,o),
(381,643,cs),
(426,643,o),
(460,619,o),
(460,575,cs),
(460,568,o),
(460,565,o),
(459,558,c),
(545,558,l),
(548,569,o),
(548,577,o),
(548,585,cs),
(548,622,o),
(533,653,o),
(506,676,cs),
(479,699,o),
(441,712,o),
(393,712,cs),
(332,712,o),
(280,693,o),
(242,661,cs),
(204,628,o),
(182,581,o),
(182,526,cs),
(182,487,o),
(196,454,o),
(224,414,c),
(163,391,o),
(112,359,o),
(77,317,cs),
(42,275,o),
(21,224,o),
(21,167,cs),
(21,58,o),
(102,-12,o),
(233,-12,cs),
(329,-12,o),
(409,19,o),
(489,91,c)
);
},
{
closed = 1;
nodes = (
(441,147,l),
(378,88,o),
(319,63,o),
(246,63,cs),
(162,63,o),
(111,111,o),
(111,180,cs),
(111,265,o),
(175,325,o),
(268,361,c)
);
}
);
width = 724;
},
{
layerId = "732555A9-C6E9-44F7-9412-4A8D1575CED6";
shapes = (
{
closed = 1;
nodes = (
(565,0,l),
(638,0,l),
(524,142,l),
(544,165,o),
(564,189,o),
(585,217,cs),
(690,362,l),
(630,362,l),
(541,243,ls),
(524,220,o),
(507,199,o),
(492,182,c),
(295,426,ls),
(260,470,o),
(241,506,o),
(241,545,cs),
(241,580,o),
(255,609,o),
(279,630,cs),
(302,651,o),
(335,664,o),
(372,664,cs),
(425,664,o),
(463,636,o),
(463,585,cs),
(463,578,o),
(463,574,o),
(462,567,c),
(518,567,l),
(521,576,o),
(521,585,o),
(521,592,cs),
(521,628,o),
(506,658,o),
(482,679,cs),
(457,700,o),
(421,712,o),
(380,712,cs),
(323,712,o),
(274,694,o),
(239,663,cs),
(204,631,o),
(184,587,o),
(184,535,cs),
(184,494,o),
(200,459,o),
(231,416,c),
(167,393,o),
(115,361,o),
(79,318,cs),
(43,275,o),
(22,225,o),
(22,166,cs),
(22,58,o),
(100,-12,o),
(224,-12,cs),
(321,-12,o),
(403,21,o),
(484,101,c)
);
},
{
closed = 1;
nodes = (
(452,140,l),
(380,68,o),
(313,37,o),
(229,37,cs),
(137,37,o),
(78,92,o),
(78,172,cs),
(78,272,o),
(153,340,o),
(261,379,c)
);
}
);
width = 690;
}
);
unicode = 38;
},
{
glyphname = quotesingle;
layers = (
{
layerId = "13F78407-9584-4645-8E30-4A73FD50F324";
name = "#instance";
shapes = (
{
closed = 1;
nodes = (
(99,534,l),
(214,534,l),
(265,755,l),
(124,755,l)
);
}
);
width = 209;
},
{
layerId = "F1969046-B2E8-43BF-9859-EB2A2EDBE7A7";
shapes = (
{
closed = 1;
nodes = (
(99,534,l),
(214,534,l),
(265,755,l),
(124,755,l)
);
}
);
width = 209;
},
{
layerId = "F079074A-78E4-4C90-8BE5-DA787960C0F3";
shapes = (
{
closed = 1;
nodes = (
(97,557,l),
(158,557,l),
(203,755,l),
(120,755,l)
);
}
);
width = 145;
},
{
layerId = "732555A9-C6E9-44F7-9412-4A8D1575CED6";
shapes = (
{
closed = 1;
nodes = (
(96,566,l),
(135,566,l),
(178,755,l),
(119,755,l)
);
}
);
width = 119;
}
);
leftKerningGroup = quotedbl2;
rightKerningGroup = quotedbl;
unicode = 39;
},
{
glyphname = parenleft;
layers = (
{
layerId = "13F78407-9584-4645-8E30-4A73FD50F324";
name = "#instance";
shapes = (
{
closed = 1;
nodes = (
(325,-145,l),
(328,-129,l),
(252,-24,o),
(211,110,o),
(211,239,cs),
(211,336,o),
(236,434,o),
(284,527,cs),
(332,620,o),
(402,711,o),
(491,795,c),
(493,811,l),
(324,811,l),
(236,734,o),
(166,641,o),
(118,539,cs),
(69,437,o),
(42,327,o),
(42,219,cs),
(42,150,o),
(52,82,o),
(72,20,cs),
(92,-43,o),
(120,-100,o),
(156,-145,c)
);
}
);
width = 415;
},
{
layerId = "F1969046-B2E8-43BF-9859-EB2A2EDBE7A7";
shapes = (
{
closed = 1;
nodes = (
(325,-145,l),
(328,-129,l),
(252,-24,o),
(211,110,o),
(211,239,cs),
(211,336,o),
(236,434,o),
(284,527,cs),
(332,620,o),
(402,711,o),
(491,795,c),
(493,811,l),
(324,811,l),
(236,734,o),
(166,641,o),
(118,539,cs),
(69,437,o),
(42,327,o),
(42,219,cs),
(42,150,o),
(52,82,o),
(72,20,cs),
(92,-43,o),
(120,-100,o),
(156,-145,c)
);
}
);
width = 415;
},
{
layerId = "F079074A-78E4-4C90-8BE5-DA787960C0F3";
shapes = (
{
closed = 1;
nodes = (
(261,-145,l),
(262,-136,l),
(182,-40,o),
(132,86,o),
(132,227,cs),
(132,330,o),
(159,434,o),
(210,533,cs),
(261,632,o),
(335,723,o),
(427,802,c),
(429,811,l),
(339,811,l),
(250,739,o),
(176,645,o),
(125,542,cs),
(73,438,o),
(44,326,o),
(44,215,cs),
(44,139,o),
(57,70,o),
(80,10,cs),
(103,-51,o),
(134,-104,o),
(170,-145,c)
);
}
);
width = 361;
},
{
layerId = "732555A9-C6E9-44F7-9412-4A8D1575CED6";
shapes = (
{
closed = 1;
nodes = (
(235,-145,l),
(236,-139,l),
(155,-47,o),
(101,77,o),
(101,222,cs),
(101,327,o),
(129,435,o),
(181,536,cs),
(232,636,o),
(307,729,o),
(402,805,c),
(403,811,l),
(345,811,l),
(254,740,o),
(179,647,o),
(127,543,cs),
(75,439,o),
(45,325,o),
(45,213,cs),
(45,134,o),
(60,65,o),
(84,5,cs),
(107,-55,o),
(140,-105,o),
(176,-145,c)
);
}
);
width = 339;
}
);
unicode = 40;
},
{
glyphname = parenright;
layers = (
{
layerId = "13F78407-9584-4645-8E30-4A73FD50F324";
name = "#instance";
shapes = (
{
closed = 1;
nodes = (
(-48,-145,l),
(121,-145,l),
(209,-68,o),
(279,26,o),
(328,128,cs),
(376,230,o),
(403,339,o),
(403,447,cs),
(403,516,o),
(393,585,o),
(373,647,cs),
(353,709,o),
(325,766,o),
(289,811,c),
(120,811,l),
(117,795,l),
(193,690,o),
(234,556,o),
(234,427,cs),
(234,330,o),
(209,232,o),
(161,139,cs),
(113,46,o),
(43,-45,o),
(-46,-129,c)
);
}
);
width = 415;
},
{
layerId = "F1969046-B2E8-43BF-9859-EB2A2EDBE7A7";
shapes = (
{
closed = 1;
nodes = (
(-48,-145,l),
(121,-145,l),
(209,-68,o),
(279,26,o),
(328,128,cs),
(376,230,o),
(403,339,o),
(403,447,cs),
(403,516,o),
(393,585,o),
(373,647,cs),
(353,709,o),
(325,766,o),
(289,811,c),
(120,811,l),
(117,795,l),
(193,690,o),
(234,556,o),
(234,427,cs),
(234,330,o),
(209,232,o),
(161,139,cs),
(113,46,o),
(43,-45,o),
(-46,-129,c)
);
}
);
width = 415;
},
{
layerId = "F079074A-78E4-4C90-8BE5-DA787960C0F3";
shapes = (
{
closed = 1;
nodes = (
(-38,-145,l),
(52,-145,l),
(141,-73,o),
(214,21,o),
(266,125,cs),
(318,228,o),
(347,340,o),
(347,451,cs),
(347,527,o),
(333,596,o),
(311,657,cs),
(289,717,o),
(256,770,o),
(220,811,c),
(130,811,l),
(128,802,l),
(209,706,o),
(258,580,o),
(258,439,cs),
(258,336,o),
(231,232,o),
(180,133,cs),
(129,34,o),
(56,-57,o),
(-37,-136,c)
);
}
);
width = 361;
},
{
layerId = "732555A9-C6E9-44F7-9412-4A8D1575CED6";
shapes = (
{
closed = 1;
nodes = (
(-34,-145,l),
(24,-145,l),
(115,-74,o),
(189,19,o),
(242,123,cs),
(294,227,o),
(324,341,o),
(324,453,cs),
(324,532,o),
(309,601,o),
(286,661,cs),
(262,721,o),
(229,771,o),
(193,811,c),
(134,811,l),
(132,805,l),
(216,713,o),
(268,589,o),
(268,444,cs),
(268,339,o),
(240,231,o),
(188,131,cs),
(136,30,o),
(62,-63,o),
(-33,-139,c)
);
}
);
width = 339;
}
);
unicode = 41;
},
{
glyphname = asterisk;
layers = (
{
layerId = "13F78407-9584-4645-8E30-4A73FD50F324";
name = "#instance";
shapes = (
{
closed = 1;
nodes = (
(218,360,l),
(335,360,l),
(333,490,l),
(418,402,l),
(497,508,l),
(381,550,l),
(511,593,l),
(472,695,l),
(354,608,l),
(403,740,l),
(284,740,l),
(286,608,l),
(198,695,l),
(123,592,l),
(237,552,l),
(107,509,l),
(150,401,l),
(264,490,l)
);
}
);
width = 522;
},
{
layerId = "F1969046-B2E8-43BF-9859-EB2A2EDBE7A7";
shapes = (
{
closed = 1;
nodes = (
(218,360,l),
(335,360,l),
(333,490,l),
(418,402,l),
(497,508,l),
(381,550,l),
(511,593,l),
(472,695,l),
(354,608,l),
(403,740,l),
(284,740,l),
(286,608,l),
(198,695,l),
(123,592,l),
(237,552,l),
(107,509,l),
(150,401,l),
(264,490,l)
);
}
);
width = 522;
},
{
layerId = "F079074A-78E4-4C90-8BE5-DA787960C0F3";
shapes = (
{
closed = 1;
nodes = (
(214,360,l),
(283,360,l),
(294,512,l),
(404,426,l),
(448,487,l),
(320,548,l),
(470,608,l),
(446,667,l),
(308,581,l),
(349,734,l),
(280,734,l),
(267,581,l),
(157,668,l),
(112,608,l),
(239,548,l),
(90,488,l),
(115,425,l),
(253,512,l)
);
}
);
width = 466;
},
{
layerId = "732555A9-C6E9-44F7-9412-4A8D1575CED6";
shapes = (
{
closed = 1;
nodes = (
(213,360,l),
(262,360,l),
(279,521,l),
(399,435,l),
(428,478,l),
(296,547,l),
(453,614,l),
(436,656,l),
(289,570,l),
(328,731,l),
(279,731,l),
(259,570,l),
(140,657,l),
(108,614,l),
(240,546,l),
(83,479,l),
(101,434,l),
(249,521,l)
);
}
);
width = 443;
}
);
unicode = 42;
},
{
glyphname = plus;
layers = (
{
layerId = "13F78407-9584-4645-8E30-4A73FD50F324";
name = "#instance";
shapes = (
{
closed = 1;
nodes = (
(194,54,l),
(336,54,l),
(365,218,l),
(549,218,l),
(574,360,l),
(390,360,l),
(419,524,l),
(277,524,l),
(248,360,l),
(64,360,l),
(39,218,l),
(223,218,l)
);
}
);
width = 598;
},
{
layerId = "F1969046-B2E8-43BF-9859-EB2A2EDBE7A7";
shapes = (
{
closed = 1;
nodes = (
(194,54,l),
(336,54,l),
(365,218,l),
(549,218,l),
(574,360,l),
(390,360,l),
(419,524,l),
(277,524,l),
(248,360,l),
(64,360,l),
(39,218,l),
(223,218,l)
);
}
);
width = 598;
},
{
layerId = "F079074A-78E4-4C90-8BE5-DA787960C0F3";
shapes = (
{
closed = 1;
nodes = (
(215,71,l),
(294,71,l),
(326,253,l),
(516,253,l),
(529,327,l),
(339,327,l),
(371,508,l),
(292,508,l),
(260,327,l),
(69,327,l),
(56,253,l),
(247,253,l)
);
}
);
width = 571;
},
{
layerId = "732555A9-C6E9-44F7-9412-4A8D1575CED6";
shapes = (
{
closed = 1;
nodes = (
(223,78,l),
(277,78,l),
(310,267,l),
(503,267,l),
(511,314,l),
(318,314,l),
(352,502,l),
(298,502,l),
(265,314,l),
(71,314,l),
(63,267,l),
(256,267,l)
);
}
);
width = 560;
}
);
unicode = 43;
},
{
glyphname = comma;
layers = (
{
layerId = "F1969046-B2E8-43BF-9859-EB2A2EDBE7A7";
shapes = (
{
closed = 1;
nodes = (
(-46,-113,l),
(63,-113,l),
(219,164,l),
(59,164,l)
);
}
);
width = 272;
},
{
layerId = "F079074A-78E4-4C90-8BE5-DA787960C0F3";
shapes = (
{
closed = 1;
nodes = (
(-70,-119,l),
(-10,-119,l),
(118,105,l),
(28,105,l)
);
}
);
width = 168;
},
{
layerId = "732555A9-C6E9-44F7-9412-4A8D1575CED6";
shapes = (
{
closed = 1;
nodes = (
(-80,-121,l),
(-39,-121,l),
(77,81,l),
(15,81,l)
);
}
);
width = 127;
}
);
unicode = 44;
},
{
glyphname = hyphen;
layers = (
{
layerId = "13F78407-9584-4645-8E30-4A73FD50F324";
name = "#instance";
shapes = (
{
closed = 1;
nodes = (
(39,218,l),
(479,218,l),
(504,360,l),
(64,360,l)
);
}
);
width = 528;
},
{
layerId = "F1969046-B2E8-43BF-9859-EB2A2EDBE7A7";
shapes = (
{
closed = 1;
nodes = (
(39,218,l),
(479,218,l),
(504,360,l),
(64,360,l)
);
}
);
width = 528;
},
{
layerId = "F079074A-78E4-4C90-8BE5-DA787960C0F3";
shapes = (
{
closed = 1;
nodes = (
(53,253,l),
(450,253,l),
(463,328,l),
(65,328,l)
);
}
);
width = 501;
},
{
layerId = "732555A9-C6E9-44F7-9412-4A8D1575CED6";
shapes = (
{
closed = 1;
nodes = (
(58,267,l),
(439,267,l),
(447,315,l),
(65,315,l)
);
}
);
width = 490;
}
);
leftKerningGroup = minus2;
rightKerningGroup = minus;
unicode = 45;
},
{
glyphname = period;
layers = (
{
layerId = "13F78407-9584-4645-8E30-4A73FD50F324";
name = "#instance";
shapes = (
{
closed = 1;
nodes = (
(169,-8,o),
(210,33,o),
(210,84,cs),
(210,137,o),
(169,178,o),
(109,178,cs),
(48,178,o),
(7,137,o),
(7,84,cs),
(7,33,o),
(48,-8,o),
(109,-8,cs)
);
}
);
width = 274;
},
{
layerId = "F1969046-B2E8-43BF-9859-EB2A2EDBE7A7";
shapes = (
{
closed = 1;
nodes = (
(169,-8,o),
(210,33,o),
(210,84,cs),
(210,137,o),
(169,178,o),
(109,178,cs),
(48,178,o),
(7,137,o),
(7,84,cs),
(7,33,o),
(48,-8,o),
(109,-8,cs)
);
}
);
width = 274;
},
{
layerId = "F079074A-78E4-4C90-8BE5-DA787960C0F3";
shapes = (
{
closed = 1;
nodes = (
(94,-6,o),
(119,21,o),
(119,54,cs),
(119,87,o),
(94,112,o),
(59,112,cs),
(24,112,o),
(-1,87,o),
(-1,54,cs),
(-1,21,o),
(24,-6,o),
(59,-6,cs)
);
}
);
width = 186;
},
{
layerId = "732555A9-C6E9-44F7-9412-4A8D1575CED6";
shapes = (
{
closed = 1;
nodes = (
(63,-5,o),
(82,15,o),
(82,42,cs),
(82,67,o),
(63,86,o),
(39,86,cs),
(15,86,o),
(-4,67,o),
(-4,42,cs),
(-4,15,o),
(15,-5,o),
(39,-5,cs)
);
}
);
width = 151;
}
);
leftKerningGroup = period2;
rightKerningGroup = period;
unicode = 46;
},
{
glyphname = slash;
layers = (
{
layerId = "13F78407-9584-4645-8E30-4A73FD50F324";
name = "#instance";
shapes = (
{
closed = 1;
nodes = (
(-54,-127,l),
(111,-127,l),
(522,790,l),
(357,790,l)
);
}
);
width = 438;
},
{
layerId = "F1969046-B2E8-43BF-9859-EB2A2EDBE7A7";
shapes = (
{
closed = 1;
nodes = (
(-54,-127,l),
(111,-127,l),
(522,790,l),
(357,790,l)
);
}
);
width = 438;
},
{
layerId = "F079074A-78E4-4C90-8BE5-DA787960C0F3";
shapes = (
{
closed = 1;
nodes = (
(-40,-97,l),
(45,-97,l),
(449,766,l),
(362,766,l)
);
}
);
width = 379;
},
{
layerId = "732555A9-C6E9-44F7-9412-4A8D1575CED6";
shapes = (
{
closed = 1;
nodes = (
(-35,-85,l),
(19,-85,l),
(420,756,l),
(364,756,l)
);
}
);
width = 355;
}
);
unicode = 47;
},
{
glyphname = zero;
leftMetricsKey = O;
rightMetricsKey = O;
layers = (
{
layerId = "13F78407-9584-4645-8E30-4A73FD50F324";
name = "#instance";
shapes = (
{
closed = 1;
nodes = (
(467,-12,o),
(575,268,o),
(575,457,cs),
(575,612,o),
(502,712,o),
(374,712,cs),
(155,712,o),
(45,430,o),
(45,241,cs),
(45,87,o),
(120,-12,o),
(247,-12,cs)
);
},
{
closed = 1;
nodes = (
(232,144,o),
(213,178,o),
(213,249,cs),
(213,335,o),
(245,557,o),
(347,557,cs),
(387,557,o),
(408,522,o),
(408,449,cs),
(408,363,o),
(375,144,o),
(273,144,cs)
);
}
);
width = 584;
},
{
layerId = "F1969046-B2E8-43BF-9859-EB2A2EDBE7A7";
shapes = (
{
closed = 1;
nodes = (
(467,-12,o),
(575,268,o),
(575,457,cs),
(575,612,o),
(502,712,o),
(374,712,cs),
(155,712,o),
(45,430,o),
(45,241,cs),
(45,87,o),
(120,-12,o),
(247,-12,cs)
);
},
{
closed = 1;
nodes = (
(232,144,o),
(213,178,o),
(213,249,cs),
(213,335,o),
(245,557,o),
(347,557,cs),
(387,557,o),
(408,522,o),
(408,449,cs),
(408,363,o),
(375,144,o),
(273,144,cs)
);
}
);
width = 584;
},
{
layerId = "F079074A-78E4-4C90-8BE5-DA787960C0F3";
shapes = (
{
closed = 1;
nodes = (
(430,-12,o),
(521,294,o),
(521,472,cs),
(521,622,o),
(457,712,o),
(346,712,cs),
(133,712,o),
(45,404,o),
(45,226,cs),
(45,77,o),
(107,-12,o),
(218,-12,cs)
);
},
{
closed = 1;
nodes = (
(169,67,o),
(135,125,o),
(135,230,cs),
(135,351,o),
(188,633,o),
(332,633,cs),
(397,633,o),
(430,574,o),
(430,468,cs),
(430,346,o),
(379,67,o),
(233,67,cs)
);
}
);
width = 531;
},
{
layerId = "732555A9-C6E9-44F7-9412-4A8D1575CED6";
shapes = (
{
closed = 1;
nodes = (
(417,-12,o),
(497,307,o),
(497,480,cs),
(497,627,o),
(440,712,o),
(335,712,cs),
(125,712,o),
(46,393,o),
(46,219,cs),
(46,73,o),
(103,-12,o),
(208,-12,cs)
);
},
{
closed = 1;
nodes = (
(143,35,o),
(103,103,o),
(103,221,cs),
(103,356,o),
(165,664,o),
(326,664,cs),
(401,664,o),
(441,594,o),
(441,475,cs),
(441,339,o),
(379,35,o),
(217,35,cs)
);
}
);
width = 508;
}
);
unicode = 48;
},
{
glyphname = one;
leftMetricsKey = "=I/2";
rightMetricsKey = I;
layers = (
{
layerId = "F1969046-B2E8-43BF-9859-EB2A2EDBE7A7";
shapes = (
{
closed = 1;
nodes = (
(300,0,l),
(423,700,l),
(256,700,l),
(248,661,l),
(245,637,o),
(232,618,o),
(217,618,cs),
(93,618,l),
(72,488,l),
(218,488,l),
(132,0,l)
);
}
);
width = 399;
},
{
layerId = "F079074A-78E4-4C90-8BE5-DA787960C0F3";
shapes = (
{
closed = 1;
nodes = (
(223,0,l),
(347,700,l),
(258,700,l),
(250,658,l),
(246,633,o),
(229,610,o),
(210,610,cs),
(97,610,l),
(86,540,l),
(230,540,l),
(135,0,l)
);
}
);
width = 334;
},
{
layerId = "732555A9-C6E9-44F7-9412-4A8D1575CED6";
shapes = (
{
closed = 1;
nodes = (
(178,0,l),
(302,700,l),
(245,700,l),
(237,656,l),
(234,631,o),
(217,606,o),
(196,606,cs),
(98,606,l),
(90,561,l),
(222,561,l),
(123,0,l)
);
}
);
width = 293;
}
);
unicode = 49;
},
{
glyphname = two;
leftMetricsKey = I;
rightMetricsKey = I;
layers = (
{
layerId = "13F78407-9584-4645-8E30-4A73FD50F324";
name = "#instance";
shapes = (
{
closed = 1;
nodes = (
(491,0,l),
(517,139,l),
(216,139,l),
(222,177,o),
(254,199,o),
(326,235,c),
(330,238,l),
(453,299,o),
(579,391,o),
(579,542,cs),
(579,632,o),
(524,712,o),
(389,712,cs),
(260,712,o),
(133,639,o),
(97,470,c),
(260,470,l),
(271,527,o),
(311,567,o),
(356,567,cs),
(393,567,o),
(411,538,o),
(411,504,cs),
(411,427,o),
(326,389,o),
(267,361,cs),
(265,360,l),
(123,294,o),
(53,235,o),
(24,64,cs),
(13,0,l)
);
}
);
width = 592;
},
{
layerId = "F1969046-B2E8-43BF-9859-EB2A2EDBE7A7";
shapes = (
{
closed = 1;
nodes = (
(491,0,l),
(517,139,l),
(216,139,l),
(222,177,o),
(254,199,o),
(326,235,c),
(330,238,l),
(453,299,o),
(579,391,o),
(579,542,cs),
(579,632,o),
(524,712,o),
(389,712,cs),
(260,712,o),
(133,639,o),
(97,470,c),
(260,470,l),
(271,527,o),
(311,567,o),
(356,567,cs),
(393,567,o),
(411,538,o),
(411,504,cs),
(411,427,o),
(326,389,o),
(267,361,c),
(265,360,l),
(123,294,o),
(53,235,o),
(24,64,cs),
(13,0,l)
);
}
);
width = 592;
},
{
layerId = "F079074A-78E4-4C90-8BE5-DA787960C0F3";
shapes = (
{
closed = 1;
nodes = (
(467,0,l),
(480,74,l),
(126,74,l),
(138,149,o),
(171,211,o),
(273,261,cs),
(359,303,ls),
(467,357,o),
(551,433,o),
(551,560,cs),
(551,660,o),
(480,712,o),
(376,712,cs),
(251,712,o),
(146,631,o),
(119,490,c),
(204,490,l),
(219,569,o),
(272,636,o),
(361,636,cs),
(434,636,o),
(462,593,o),
(462,541,cs),
(462,447,o),
(397,404,o),
(319,367,cs),
(267,343,ls),
(146,286,o),
(61,216,o),
(31,43,c),
(22,0,l)
);
}
);
width = 577;
},
{
layerId = "732555A9-C6E9-44F7-9412-4A8D1575CED6";
shapes = (
{
closed = 1;
nodes = (
(457,0,l),
(465,47,l),
(88,47,l),
(106,137,o),
(137,216,o),
(254,273,cs),
(372,330,ls),
(472,377,o),
(540,453,o),
(540,567,cs),
(540,672,o),
(464,712,o),
(372,712,cs),
(248,712,o),
(152,628,o),
(130,499,c),
(182,499,l),
(198,586,o),
(257,664,o),
(363,664,cs),
(452,664,o),
(484,616,o),
(484,556,cs),
(484,454,o),
(425,411,o),
(339,369,c),
(265,334,l),
(154,282,o),
(63,207,o),
(33,34,c),
(26,0,l)
);
}
);
width = 571;
}
);
unicode = 50;
},
{
glyphname = three;
leftMetricsKey = O;
rightMetricsKey = O;
layers = (
{
layerId = "F1969046-B2E8-43BF-9859-EB2A2EDBE7A7";
shapes = (
{
closed = 1;
nodes = (
(399,-12,o),
(554,77,o),
(554,234,cs),
(554,300,o),
(519,350,o),
(453,362,c),
(536,392,o),
(596,461,o),
(596,551,cs),
(596,642,o),
(525,712,o),
(383,712,cs),
(238,712,o),
(122,633,o),
(89,488,c),
(253,488,l),
(263,530,o),
(301,568,o),
(357,568,cs),
(398,568,o),
(427,550,o),
(427,515,cs),
(427,452,o),
(364,432,o),
(311,432,cs),
(250,432,l),
(226,292,l),
(287,292,ls),
(352,292,o),
(387,264,o),
(387,221,cs),
(387,164,o),
(336,130,o),
(283,130,cs),
(226,130,o),
(185,167,o),
(197,225,c),
(33,225,l),
(7,69,o),
(103,-12,o),
(257,-12,cs)
);
}
);
width = 597;
},
{
layerId = "F079074A-78E4-4C90-8BE5-DA787960C0F3";
shapes = (
{
closed = 1;
nodes = (
(372,-12,o),
(490,95,o),
(490,243,cs),
(490,317,o),
(447,365,o),
(382,380,c),
(466,403,o),
(525,482,o),
(525,568,cs),
(525,649,o),
(469,712,o),
(353,712,cs),
(231,712,o),
(135,632,o),
(110,516,c),
(199,516,l),
(216,585,o),
(269,635,o),
(339,635,cs),
(402,635,o),
(434,601,o),
(434,551,cs),
(434,464,o),
(362,414,o),
(279,414,cs),
(225,414,l),
(213,339,l),
(265,339,ls),
(342,339,o),
(401,305,o),
(401,231,cs),
(401,139,o),
(335,65,o),
(240,65,cs),
(158,65,o),
(103,129,o),
(121,209,c),
(32,209,l),
(15,73,o),
(81,-12,o),
(225,-12,cs)
);
}
);
width = 535;
},
{
layerId = "732555A9-C6E9-44F7-9412-4A8D1575CED6";
shapes = (
{
closed = 1;
nodes = (
(356,-12,o),
(464,104,o),
(464,246,cs),
(464,324,o),
(418,371,o),
(354,387,c),
(442,408,o),
(494,491,o),
(494,578,cs),
(493,653,o),
(443,712,o),
(341,712,cs),
(226,712,o),
(139,632,o),
(117,528,c),
(175,528,l),
(195,607,o),
(254,662,o),
(331,662,cs),
(403,662,o),
(435,622,o),
(435,566,cs),
(435,468,o),
(360,407,o),
(264,407,cs),
(214,407,l),
(206,359,l),
(255,359,ls),
(336,359,o),
(405,322,o),
(405,234,cs),
(405,128,o),
(333,38,o),
(221,38,cs),
(122,38,o),
(72,111,o),
(89,202,c),
(32,202,l),
(15,75,o),
(74,-12,o),
(211,-12,cs)
);
}
);
width = 509;
}
);
unicode = 51;
},
{
glyphname = four;
leftMetricsKey = "=I/2";
rightMetricsKey = "=I/2";
layers = (
{
layerId = "13F78407-9584-4645-8E30-4A73FD50F324";
name = "#instance";
shapes = (
{
closed = 1;
nodes = (
(424,0,l),
(444,109,l),
(515,109,l),
(540,259,l),
(470,259,l),
(547,700,l),
(383,700,l),
(28,245,l),
(5,109,l),
(290,109,l),
(272,0,l)
);
},
{
closed = 1;
nodes = (
(431,576,l),
(381,592,l),
(304,156,l),
(396,259,l),
(119,259,l),
(136,173,l)
);
}
);
width = 567;
},
{
layerId = "F1969046-B2E8-43BF-9859-EB2A2EDBE7A7";
shapes = (
{
closed = 1;
nodes = (
(424,0,l),
(444,109,l),
(515,109,l),
(540,259,l),
(470,259,l),
(547,700,l),
(383,700,l),
(28,245,l),
(5,109,l),
(290,109,l),
(272,0,l)
);
},
{
closed = 1;
nodes = (
(431,576,l),
(381,592,l),
(304,156,l),
(396,259,l),
(119,259,l),
(136,173,l)
);
}
);
width = 567;
},
{
layerId = "F079074A-78E4-4C90-8BE5-DA787960C0F3";
shapes = (
{
closed = 1;
nodes = (
(396,0,l),
(421,148,l),
(510,148,l),
(524,226,l),
(436,226,l),
(518,700,l),
(422,700,l),
(28,215,l),
(16,148,l),
(336,148,l),
(311,0,l)
);
},
{
closed = 1;
nodes = (
(453,634,l),
(426,644,l),
(345,176,l),
(396,226,l),
(81,226,l),
(92,184,l)
);
}
);
width = 562;
},
{
layerId = "732555A9-C6E9-44F7-9412-4A8D1575CED6";
shapes = (
{
closed = 1;
nodes = (
(382,0,l),
(411,164,l),
(508,164,l),
(516,212,l),
(420,212,l),
(505,700,l),
(438,700,l),
(27,203,l),
(21,164,l),
(354,164,l),
(325,0,l)
);
},
{
closed = 1;
nodes = (
(461,659,l),
(444,666,l),
(362,183,l),
(395,212,l),
(64,212,l),
(73,188,l)
);
}
);
width = 559;
}
);
unicode = 52;
},
{
glyphname = five;
leftMetricsKey = O;
rightMetricsKey = O;
layers = (
{
layerId = "13F78407-9584-4645-8E30-4A73FD50F324";
name = "#instance";
shapes = (
{
closed = 1;
nodes = (
(414,-12,o),
(551,129,o),
(551,294,cs),
(551,392,o),
(492,481,o),
(355,481,cs),
(279,481,o),
(227,452,o),
(196,421,c),
(217,375,l),
(281,549,l),
(555,549,l),
(583,700,l),
(180,700,l),
(56,295,l),
(207,295,l),
(228,323,o),
(274,344,o),
(311,344,cs),
(354,344,o),
(383,313,o),
(383,266,cs),
(383,206,o),
(340,134,o),
(274,134,cs),
(232,134,o),
(195,164,o),
(194,205,c),
(30,205,l),
(8,61,o),
(111,-12,o),
(248,-12,cs)
);
}
);
width = 584;
},
{
layerId = "F1969046-B2E8-43BF-9859-EB2A2EDBE7A7";
shapes = (
{
closed = 1;
nodes = (
(414,-12,o),
(551,129,o),
(551,294,cs),
(551,392,o),
(492,481,o),
(355,481,cs),
(279,481,o),
(227,452,o),
(196,421,c),
(217,375,l),
(281,549,l),
(555,549,l),
(583,700,l),
(180,700,l),
(56,295,l),
(207,295,l),
(228,323,o),
(274,344,o),
(311,344,cs),
(354,344,o),
(383,313,o),
(383,266,cs),
(383,206,o),
(340,134,o),
(274,134,cs),
(232,134,o),
(195,164,o),
(194,205,c),
(30,205,l),
(8,61,o),
(111,-12,o),
(248,-12,cs)
);
}
);
width = 584;
},
{
layerId = "F079074A-78E4-4C90-8BE5-DA787960C0F3";
shapes = (
{
closed = 1;
nodes = (
(381,-12,o),
(491,142,o),
(491,293,cs),
(491,403,o),
(427,481,o),
(318,481,cs),
(239,481,o),
(178,445,o),
(143,400,c),
(154,378,l),
(237,622,l),
(507,622,l),
(522,700,l),
(183,700,l),
(61,316,l),
(143,316,l),
(177,370,o),
(233,407,o),
(297,407,cs),
(364,407,o),
(405,356,o),
(405,279,cs),
(405,182,o),
(342,64,o),
(234,64,cs),
(161,64,o),
(115,114,o),
(115,190,c),
(29,190,l),
(12,68,o),
(103,-12,o),
(220,-12,cs)
);
}
);
width = 528;
},
{
layerId = "732555A9-C6E9-44F7-9412-4A8D1575CED6";
shapes = (
{
closed = 1;
nodes = (
(370,-12,o),
(467,148,o),
(467,294,cs),
(467,408,o),
(401,481,o),
(303,481,cs),
(224,481,o),
(157,443,o),
(123,391,c),
(129,380,l),
(221,652,l),
(489,652,l),
(498,700,l),
(185,700,l),
(66,325,l),
(120,325,l),
(157,390,o),
(217,432,o),
(291,432,cs),
(367,432,o),
(414,374,o),
(414,285,cs),
(414,173,o),
(343,35,o),
(218,35,cs),
(132,35,o),
(83,94,o),
(83,183,c),
(29,183,l),
(29,66,o),
(87,-12,o),
(210,-12,cs)
);
}
);
width = 505;
}
);
unicode = 53;
},
{
glyphname = six;
leftMetricsKey = O;
rightMetricsKey = O;
layers = (
{
layerId = "13F78407-9584-4645-8E30-4A73FD50F324";
name = "#instance";
shapes = (
{
closed = 1;
nodes = (
(434,-12,o),
(567,120,o),
(567,277,cs),
(567,389,o),
(486,456,o),
(388,456,cs),
(313,456,o),
(222,410,o),
(196,345,c),
(217,300,l),
(235,480,o),
(288,573,o),
(370,573,cs),
(415,573,o),
(439,547,o),
(442,500,c),
(600,500,l),
(619,630,o),
(521,712,o),
(396,712,cs),
(158,712,o),
(44,440,o),
(44,236,cs),
(44,104,o),
(103,-12,o),
(276,-12,cs)
);
},
{
closed = 1;
nodes = (
(237,125,o),
(209,156,o),
(209,204,cs),
(209,273,o),
(251,322,o),
(323,322,cs),
(376,322,o),
(403,291,o),
(403,243,cs),
(403,179,o),
(363,125,o),
(295,125,cs)
);
}
);
width = 603;
},
{
layerId = "F1969046-B2E8-43BF-9859-EB2A2EDBE7A7";
shapes = (
{
closed = 1;
nodes = (
(434,-12,o),
(567,120,o),
(567,277,cs),
(567,389,o),
(486,456,o),
(388,456,cs),
(313,456,o),
(222,410,o),
(196,345,c),
(217,300,l),
(235,480,o),
(288,573,o),
(370,573,cs),
(415,573,o),
(439,547,o),
(442,500,c),
(600,500,l),
(619,630,o),
(521,712,o),
(396,712,cs),
(158,712,o),
(44,440,o),
(44,236,cs),
(44,104,o),
(103,-12,o),
(276,-12,cs)
);
},
{
closed = 1;
nodes = (
(237,125,o),
(209,156,o),
(209,204,cs),
(209,273,o),
(251,322,o),
(323,322,cs),
(376,322,o),
(403,291,o),
(403,243,cs),
(403,179,o),
(363,125,o),
(295,125,cs)
);
}
);
width = 603;
},
{
layerId = "F079074A-78E4-4C90-8BE5-DA787960C0F3";
shapes = (
{
closed = 1;
nodes = (
(389,-12,o),
(508,126,o),
(508,269,cs),
(506,376,o),
(428,449,o),
(334,449,cs),
(236,449,o),
(154,385,o),
(121,314,c),
(132,292,l),
(170,527,o),
(256,636,o),
(354,636,cs),
(418,636,o),
(456,591,o),
(456,519,c),
(538,519,l),
(538,628,o),
(489,712,o),
(368,712,cs),
(148,712,o),
(44,408,o),
(44,221,cs),
(44,94,o),
(95,-12,o),
(242,-12,cs)
);
},
{
closed = 1;
nodes = (
(180,66,o),
(134,114,o),
(134,187,cs),
(134,279,o),
(208,371,o),
(304,371,cs),
(374,371,o),
(419,326,o),
(419,254,cs),
(419,159,o),
(353,66,o),
(251,66,cs)
);
}
);
width = 548;
},
{
layerId = "732555A9-C6E9-44F7-9412-4A8D1575CED6";
shapes = (
{
closed = 1;
nodes = (
(370,-12,o),
(484,128,o),
(484,266,cs),
(484,375,o),
(406,446,o),
(311,446,cs),
(204,446,o),
(126,374,o),
(88,302,c),
(97,289,l),
(142,547,o),
(242,661,o),
(346,661,cs),
(430,661,o),
(460,602,o),
(460,526,c),
(512,526,l),
(512,629,o),
(475,712,o),
(356,712,cs),
(145,712,o),
(43,394,o),
(43,215,cs),
(43,90,o),
(91,-12,o),
(227,-12,cs)
);
},
{
closed = 1;
nodes = (
(157,38,o),
(103,97,o),
(103,179,cs),
(103,280,o),
(189,396,o),
(295,396,cs),
(373,396,o),
(424,342,o),
(424,256,cs),
(424,151,o),
(345,38,o),
(232,38,cs)
);
}
);
width = 526;
}
);
unicode = 54;
},
{
glyphname = seven;
leftMetricsKey = "=I/2";
rightMetricsKey = "=I/2";
layers = (
{
layerId = "13F78407-9584-4645-8E30-4A73FD50F324";
name = "#instance";
shapes = (
{
closed = 1;
nodes = (
(237,0,l),
(591,586,l),
(611,700,l),
(109,700,l),
(82,553,l),
(412,553,l),
(66,0,l)
);
}
);
width = 559;
},
{
layerId = "F1969046-B2E8-43BF-9859-EB2A2EDBE7A7";
shapes = (
{
closed = 1;
nodes = (
(237,0,l),
(591,586,l),
(611,700,l),
(109,700,l),
(82,553,l),
(412,553,l),
(66,0,l)
);
}
);
width = 559;
},
{
layerId = "F079074A-78E4-4C90-8BE5-DA787960C0F3";
shapes = (
{
closed = 1;
nodes = (
(169,0,l),
(555,634,l),
(567,700,l),
(113,700,l),
(101,624,l),
(465,624,l),
(80,0,l)
);
}
);
width = 521;
},
{
layerId = "732555A9-C6E9-44F7-9412-4A8D1575CED6";
shapes = (
{
closed = 1;
nodes = (
(142,0,l),
(542,653,l),
(550,700,l),
(115,700,l),
(109,653,l),
(487,653,l),
(84,0,l)
);
}
);
width = 506;
}
);
unicode = 55;
},
{
glyphname = eight;
leftMetricsKey = O;
rightMetricsKey = O;
layers = (
{
layerId = "13F78407-9584-4645-8E30-4A73FD50F324";
name = "#instance";
shapes = (
{
closed = 1;
nodes = (
(404,-12,o),
(550,83,o),
(550,246,cs),
(550,305,o),
(523,351,o),
(475,379,c),
(539,416,o),
(590,479,o),
(590,555,cs),
(590,639,o),
(526,712,o),
(379,712,cs),
(248,712,o),
(101,640,o),
(101,493,cs),
(101,445,o),
(126,406,o),
(163,379,c),
(82,339,o),
(26,256,o),
(26,165,cs),
(26,55,o),
(119,-12,o),
(251,-12,cs)
);
},
{
closed = 1;
nodes = (
(222,128,o),
(193,149,o),
(193,195,cs),
(193,266,o),
(236,305,o),
(307,305,cs),
(364,305,o),
(388,281,o),
(388,237,cs),
(388,167,o),
(345,128,o),
(275,128,cs)
);
},
{
closed = 1;
nodes = (
(281,425,o),
(259,441,o),
(259,481,cs),
(259,540,o),
(293,576,o),
(354,576,cs),
(399,576,o),
(421,557,o),
(421,521,cs),
(421,458,o),
(393,425,o),
(327,425,cs)
);
}
);
width = 591;
},
{
layerId = "F1969046-B2E8-43BF-9859-EB2A2EDBE7A7";
shapes = (
{
closed = 1;
nodes = (
(404,-12,o),
(550,83,o),
(550,246,cs),
(550,305,o),
(523,351,o),
(475,379,c),
(539,416,o),
(590,479,o),
(590,555,cs),
(590,639,o),
(526,712,o),
(379,712,cs),
(248,712,o),
(101,640,o),
(101,493,cs),
(101,445,o),
(126,406,o),
(163,379,c),
(82,339,o),
(26,256,o),
(26,165,cs),
(26,55,o),
(119,-12,o),
(251,-12,cs)
);
},
{
closed = 1;
nodes = (
(222,128,o),
(193,149,o),
(193,195,cs),
(193,266,o),
(236,305,o),
(307,305,cs),
(364,305,o),
(388,281,o),
(388,237,cs),
(388,167,o),
(345,128,o),
(275,128,cs)
);
},
{
closed = 1;
nodes = (
(281,425,o),
(259,441,o),
(259,481,cs),
(259,540,o),
(293,576,o),
(354,576,cs),
(399,576,o),
(421,557,o),
(421,521,cs),
(421,458,o),
(393,425,o),
(327,425,cs)
);
}
);
width = 591;
},
{
layerId = "F079074A-78E4-4C90-8BE5-DA787960C0F3";
shapes = (
{
closed = 1;
nodes = (
(362,-12,o),
(495,82,o),
(495,227,cs),
(495,296,o),
(458,353,o),
(396,373,c),
(474,401,o),
(536,473,o),
(536,558,cs),
(536,645,o),
(472,712,o),
(351,712,cs),
(228,712,o),
(104,630,o),
(104,498,cs),
(104,444,o),
(132,396,o),
(190,373,c),
(94,346,o),
(26,253,o),
(26,154,cs),
(26,54,o),
(106,-12,o),
(225,-12,cs)
);
},
{
closed = 1;
nodes = (
(156,65,o),
(115,104,o),
(115,168,cs),
(115,268,o),
(186,331,o),
(285,331,cs),
(362,331,o),
(408,296,o),
(408,227,cs),
(408,126,o),
(338,65,o),
(238,65,cs)
);
},
{
closed = 1;
nodes = (
(228,404,o),
(189,439,o),
(189,496,cs),
(189,585,o),
(254,636,o),
(340,636,cs),
(409,636,o),
(447,606,o),
(447,546,cs),
(447,460,o),
(383,404,o),
(298,404,cs)
);
}
);
width = 542;
},
{
layerId = "732555A9-C6E9-44F7-9412-4A8D1575CED6";
shapes = (
{
closed = 1;
nodes = (
(345,-12,o),
(472,82,o),
(472,221,cs),
(472,293,o),
(431,354,o),
(363,371,c),
(448,396,o),
(514,470,o),
(514,560,cs),
(514,649,o),
(449,712,o),
(340,712,cs),
(220,712,o),
(103,625,o),
(103,498,cs),
(103,443,o),
(135,392,o),
(200,371,c),
(99,349,o),
(26,250,o),
(26,149,cs),
(26,53,o),
(99,-12,o),
(213,-12,cs)
);
},
{
closed = 1;
nodes = (
(127,40,o),
(83,86,o),
(83,156,cs),
(83,269,o),
(163,342,o),
(275,342,cs),
(360,342,o),
(414,302,o),
(414,222,cs),
(414,108,o),
(334,40,o),
(221,40,cs)
);
},
{
closed = 1;
nodes = (
(206,395,o),
(160,439,o),
(160,503,cs),
(160,603,o),
(234,661,o),
(331,661,cs),
(410,661,o),
(457,627,o),
(457,558,cs),
(457,462,o),
(378,395,o),
(284,395,cs)
);
}
);
width = 521;
}
);
unicode = 56;
},
{
glyphname = nine;
leftMetricsKey = O;
rightMetricsKey = O;
layers = (
{
layerId = "13F78407-9584-4645-8E30-4A73FD50F324";
name = "#instance";
shapes = (
{
closed = 1;
nodes = (
(205,712,o),
(72,581,o),
(72,423,cs),
(72,311,o),
(152,244,o),
(250,244,cs),
(325,244,o),
(417,290,o),
(442,355,c),
(422,400,l),
(404,220,o),
(350,127,o),
(269,127,cs),
(223,127,o),
(198,153,o),
(197,200,c),
(39,200,l),
(23,73,o),
(119,-10,o),
(242,-12,c),
(477,-6,o),
(595,257,o),
(595,464,cs),
(595,596,o),
(536,712,o),
(363,712,cs)
);
},
{
closed = 1;
nodes = (
(402,575,o),
(429,545,o),
(429,496,cs),
(429,426,o),
(386,378,o),
(314,378,cs),
(262,378,o),
(235,409,o),
(235,456,cs),
(235,521,o),
(275,575,o),
(344,575,cs)
);
}
);
width = 603;
},
{
layerId = "F1969046-B2E8-43BF-9859-EB2A2EDBE7A7";
shapes = (
{
closed = 1;
nodes = (
(205,712,o),
(72,581,o),
(72,423,cs),
(72,311,o),
(152,244,o),
(250,244,cs),
(325,244,o),
(417,290,o),
(442,355,c),
(422,400,l),
(404,220,o),
(350,127,o),
(269,127,cs),
(223,127,o),
(198,153,o),
(197,200,c),
(39,200,l),
(23,73,o),
(119,-10,o),
(242,-12,c),
(477,-6,o),
(595,257,o),
(595,464,cs),
(595,596,o),
(536,712,o),
(363,712,cs)
);
},
{
closed = 1;
nodes = (
(402,575,o),
(429,545,o),
(429,496,cs),
(429,426,o),
(386,378,o),
(314,378,cs),
(262,378,o),
(235,409,o),
(235,456,cs),
(235,521,o),
(275,575,o),
(344,575,cs)
);
}
);
width = 603;
},
{
layerId = "F079074A-78E4-4C90-8BE5-DA787960C0F3";
shapes = (
{
closed = 1;
nodes = (
(194,712,o),
(76,574,o),
(76,431,cs),
(76,321,o),
(154,251,o),
(249,251,cs),
(347,251,o),
(429,315,o),
(463,386,c),
(452,408,l),
(413,173,o),
(328,64,o),
(230,64,cs),
(157,64,o),
(128,114,o),
(128,181,c),
(46,181,l),
(46,71,o),
(94,-12,o),
(216,-12,cs),
(435,-12,o),
(540,294,o),
(540,480,cs),
(540,606,o),
(488,712,o),
(341,712,cs)
);
},
{
closed = 1;
nodes = (
(403,634,o),
(449,586,o),
(449,513,cs),
(449,421,o),
(375,329,o),
(279,329,cs),
(210,329,o),
(165,374,o),
(165,446,cs),
(165,541,o),
(231,634,o),
(332,634,cs)
);
}
);
width = 548;
},
{
layerId = "732555A9-C6E9-44F7-9412-4A8D1575CED6";
shapes = (
{
closed = 1;
nodes = (
(190,712,o),
(77,571,o),
(77,434,cs),
(77,325,o),
(155,254,o),
(249,254,cs),
(357,254,o),
(434,326,o),
(472,398,c),
(464,411,l),
(418,153,o),
(318,39,o),
(214,39,cs),
(129,39,o),
(101,98,o),
(101,174,c),
(49,174,l),
(49,73,o),
(91,-12,o),
(204,-12,cs),
(415,-12,o),
(517,306,o),
(517,485,cs),
(517,610,o),
(469,712,o),
(333,712,cs)
);
},
{
closed = 1;
nodes = (
(403,662,o),
(457,603,o),
(457,521,cs),
(457,420,o),
(372,304,o),
(266,304,cs),
(189,304,o),
(137,360,o),
(136,445,cs),
(136,549,o),
(217,662,o),
(328,662,cs)
);
}
);
width = 525;
}
);
unicode = 57;
},
{
glyphname = colon;
layers = (
{
layerId = "13F78407-9584-4645-8E30-4A73FD50F324";
name = "#instance";
shapes = (
{
closed = 1;
nodes = (
(169,-8,o),
(210,33,o),
(210,84,cs),
(210,137,o),
(169,178,o),
(109,178,cs),
(48,178,o),
(7,137,o),
(7,84,cs),
(7,33,o),
(48,-8,o),
(109,-8,cs)
);
},
{
closed = 1;
nodes = (
(227,322,o),
(268,363,o),
(268,414,cs),
(268,467,o),
(227,508,o),
(167,508,cs),
(106,508,o),
(65,467,o),
(65,414,cs),
(65,363,o),
(106,322,o),
(167,322,cs)
);
}
);
width = 272;
},
{
layerId = "F1969046-B2E8-43BF-9859-EB2A2EDBE7A7";
shapes = (
{
closed = 1;
nodes = (
(169,-8,o),
(210,33,o),
(210,84,cs),
(210,137,o),
(169,178,o),
(109,178,cs),
(48,178,o),
(7,137,o),
(7,84,cs),
(7,33,o),
(48,-8,o),
(109,-8,cs)
);
},
{
closed = 1;
nodes = (
(227,322,o),
(268,363,o),
(268,414,cs),
(268,467,o),
(227,508,o),
(167,508,cs),
(106,508,o),
(65,467,o),
(65,414,cs),
(65,363,o),
(106,322,o),
(167,322,cs)
);
}
);
width = 272;
},
{
layerId = "F079074A-78E4-4C90-8BE5-DA787960C0F3";
shapes = (
{
closed = 1;
nodes = (
(94,-6,o),
(119,21,o),
(119,54,cs),
(119,87,o),
(94,112,o),
(59,112,cs),
(24,112,o),
(-1,87,o),
(-1,54,cs),
(-1,21,o),
(24,-6,o),
(59,-6,cs)
);
},
{
closed = 1;
nodes = (
(163,390,o),
(188,417,o),
(188,450,cs),
(188,483,o),
(163,508,o),
(128,508,cs),
(93,508,o),
(69,483,o),
(69,450,cs),
(69,417,o),
(93,390,o),
(128,390,cs)
);
}
);
width = 188;
},
{
layerId = "732555A9-C6E9-44F7-9412-4A8D1575CED6";
shapes = (
{
closed = 1;
nodes = (
(63,-5,o),
(82,15,o),
(82,42,cs),
(82,67,o),
(63,86,o),
(39,86,cs),
(15,86,o),
(-4,67,o),
(-4,42,cs),
(-4,15,o),
(15,-5,o),
(39,-5,cs)
);
},
{
closed = 1;
nodes = (
(137,417,o),
(156,437,o),
(156,464,cs),
(156,489,o),
(137,508,o),
(113,508,cs),
(89,508,o),
(70,489,o),
(70,464,cs),
(70,437,o),
(89,417,o),
(113,417,cs)
);
}
);
width = 154;
}
);
unicode = 58;
},
{
glyphname = less;
layers = (
{
layerId = "13F78407-9584-4645-8E30-4A73FD50F324";
name = "#instance";
shapes = (
{
closed = 1;
nodes = (
(244,129,l),
(459,129,l),
(294,350,l),
(537,571,l),
(322,571,l),
(80,350,l)
);
}
);
width = 530;
},
{
layerId = "F1969046-B2E8-43BF-9859-EB2A2EDBE7A7";
shapes = (
{
closed = 1;
nodes = (
(244,129,l),
(459,129,l),
(294,350,l),
(537,571,l),
(322,571,l),
(80,350,l)
);
}
);
width = 530;
},
{
layerId = "F079074A-78E4-4C90-8BE5-DA787960C0F3";
shapes = (
{
closed = 1;
nodes = (
(294,136,l),
(405,136,l),
(203,366,l),
(486,597,l),
(376,597,l),
(91,366,l)
);
}
);
width = 487;
},
{
layerId = "732555A9-C6E9-44F7-9412-4A8D1575CED6";
shapes = (
{
closed = 1;
nodes = (
(314,139,l),
(384,139,l),
(166,373,l),
(466,607,l),
(397,607,l),
(96,373,l)
);
}
);
width = 470;
}
);
unicode = 60;
},
{
glyphname = equal;
layers = (
{
layerId = "13F78407-9584-4645-8E30-4A73FD50F324";
name = "#instance";
shapes = (
{
closed = 1;
nodes = (
(63,331,l),
(513,331,l),
(540,482,l),
(90,482,l)
);
},
{
closed = 1;
nodes = (
(22,96,l),
(472,96,l),
(499,247,l),
(49,247,l)
);
}
);
width = 547;
},
{
layerId = "F1969046-B2E8-43BF-9859-EB2A2EDBE7A7";
shapes = (
{
closed = 1;
nodes = (
(63,331,l),
(513,331,l),
(540,482,l),
(90,482,l)
);
},
{
closed = 1;
nodes = (
(22,96,l),
(472,96,l),
(499,247,l),
(49,247,l)
);
}
);
width = 547;
},
{
layerId = "F079074A-78E4-4C90-8BE5-DA787960C0F3";
shapes = (
{
closed = 1;
nodes = (
(76,357,l),
(477,357,l),
(489,433,l),
(89,433,l)
);
},
{
closed = 1;
nodes = (
(38,149,l),
(439,149,l),
(453,224,l),
(52,224,l)
);
}
);
width = 513;
},
{
layerId = "732555A9-C6E9-44F7-9412-4A8D1575CED6";
shapes = (
{
closed = 1;
nodes = (
(81,368,l),
(462,368,l),
(469,414,l),
(88,414,l)
);
},
{
closed = 1;
nodes = (
(45,170,l),
(426,170,l),
(434,215,l),
(53,215,l)
);
}
);
width = 499;
}
);
unicode = 61;
},
{
glyphname = greater;
layers = (
{
layerId = "13F78407-9584-4645-8E30-4A73FD50F324";
name = "#instance";
shapes = (
{
closed = 1;
nodes = (
(29,129,l),
(244,129,l),
(486,350,l),
(322,571,l),
(107,571,l),
(272,350,l)
);
}
);
width = 530;
},
{
layerId = "F1969046-B2E8-43BF-9859-EB2A2EDBE7A7";
shapes = (
{
closed = 1;
nodes = (
(29,129,l),
(244,129,l),
(486,350,l),
(322,571,l),
(107,571,l),
(272,350,l)
);
}
);
width = 530;
},
{
layerId = "F079074A-78E4-4C90-8BE5-DA787960C0F3";
shapes = (
{
closed = 1;
nodes = (
(43,136,l),
(153,136,l),
(436,366,l),
(234,597,l),
(123,597,l),
(326,366,l)
);
}
);
width = 485;
},
{
layerId = "732555A9-C6E9-44F7-9412-4A8D1575CED6";
shapes = (
{
closed = 1;
nodes = (
(48,139,l),
(117,139,l),
(416,373,l),
(199,607,l),
(130,607,l),
(348,373,l)
);
}
);
width = 467;
}
);
unicode = 62;
},
{
glyphname = question;
layers = (
{
layerId = "13F78407-9584-4645-8E30-4A73FD50F324";
name = "#instance";
shapes = (
{
closed = 1;
nodes = (
(256,239,l),
(259,256,ls),
(262,271,o),
(269,284,o),
(288,293,cs),
(384,337,ls),
(461,372,o),
(509,410,o),
(523,488,cs),
(547,629,o),
(460,712,o),
(315,712,cs),
(160,712,o),
(69,623,o),
(50,504,c),
(214,504,l),
(224,550,o),
(255,572,o),
(311,572,cs),
(347,572,o),
(363,550,o),
(359,515,cs),
(353,463,o),
(269,435,o),
(268,434,c),
(200,403,ls),
(143,377,o),
(130,328,o),
(119,271,cs),
(113,239,l)
);
},
{
closed = 1;
nodes = (
(234,-8,o),
(275,33,o),
(275,84,cs),
(275,137,o),
(234,178,o),
(174,178,cs),
(113,178,o),
(72,137,o),
(72,84,cs),
(72,33,o),
(113,-8,o),
(174,-8,cs)
);
}
);
width = 500;
},
{
layerId = "732555A9-C6E9-44F7-9412-4A8D1575CED6";
shapes = (
{
closed = 1;
nodes = (
(237,166,l),
(250,241,ls),
(256,277,o),
(268,286,o),
(300,299,cs),
(330,311,ls),
(426,351,o),
(496,411,o),
(514,511,cs),
(536,632,o),
(461,712,o),
(336,712,cs),
(214,712,o),
(110,637,o),
(90,516,c),
(141,516,l),
(157,606,o),
(227,664,o),
(325,664,cs),
(423,664,o),
(479,604,o),
(461,507,cs),
(447,435,o),
(408,396,o),
(304,354,cs),
(280,345,ls),
(216,320,o),
(207,299,o),
(196,234,cs),
(184,166,l)
);
},
{
closed = 1;
nodes = (
(216,-5,o),
(235,15,o),
(235,42,cs),
(235,67,o),
(216,86,o),
(192,86,cs),
(168,86,o),
(149,67,o),
(149,42,cs),
(149,15,o),
(168,-5,o),
(192,-5,cs)
);
}
);
width = 500;
},
{
layerId = "F079074A-78E4-4C90-8BE5-DA787960C0F3";
shapes = (
{
closed = 1;
nodes = (
(240,187,l),
(248,237,ls),
(253,266,o),
(266,275,o),
(294,287,cs),
(344,308,ls),
(434,347,o),
(500,411,o),
(516,504,cs),
(539,631,o),
(461,712,o),
(330,712,cs),
(198,712,o),
(98,633,o),
(78,512,c),
(162,512,l),
(176,590,o),
(235,637,o),
(321,637,cs),
(401,637,o),
(446,588,o),
(431,509,cs),
(418,435,o),
(365,397,o),
(292,367,cs),
(255,352,ls),
(193,326,o),
(185,308,o),
(174,245,cs),
(164,187,l)
);
},
{
closed = 1;
nodes = (
(227,-6,o),
(252,21,o),
(252,54,cs),
(252,87,o),
(227,112,o),
(192,112,cs),
(157,112,o),
(132,87,o),
(132,54,cs),
(132,21,o),
(157,-6,o),
(192,-6,cs)
);
}
);
width = 500;
},
{
layerId = "F1969046-B2E8-43BF-9859-EB2A2EDBE7A7";
shapes = (
{
closed = 1;
nodes = (
(256,239,l),
(259,256,ls),
(262,271,o),
(269,284,o),
(288,293,cs),
(384,337,ls),
(461,372,o),
(509,410,o),
(523,488,cs),
(547,629,o),
(460,712,o),
(315,712,cs),
(160,712,o),
(69,623,o),
(50,504,c),
(214,504,l),
(224,550,o),
(255,572,o),
(311,572,cs),
(347,572,o),
(363,550,o),
(359,515,cs),
(353,463,o),
(269,435,o),
(268,434,c),
(200,403,ls),
(143,377,o),
(130,328,o),
(119,271,cs),
(113,239,l)
);
},
{
closed = 1;
nodes = (
(234,-8,o),
(275,33,o),
(275,84,cs),
(275,137,o),
(234,178,o),
(174,178,cs),
(113,178,o),
(72,137,o),
(72,84,cs),
(72,33,o),
(113,-8,o),
(174,-8,cs)
);
}
);
width = 500;
}
);
unicode = 63;
},
{
glyphname = at;
layers = (
{
layerId = "13F78407-9584-4645-8E30-4A73FD50F324";
name = "#instance";
shapes = (
{
closed = 1;
nodes = (
(520,-225,o),
(592,-211,o),
(660,-182,c),
(632,-73,l),
(581,-96,o),
(520,-109,o),
(456,-109,cs),
(371,-109,o),
(304,-86,o),
(258,-42,cs),
(212,2,o),
(187,66,o),
(187,146,cs),
(187,261,o),
(230,362,o),
(302,435,cs),
(373,508,o),
(474,553,o),
(587,553,cs),
(674,553,o),
(743,530,o),
(791,488,cs),
(838,446,o),
(863,384,o),
(863,308,cs),
(863,261,o),
(855,211,o),
(839,172,cs),
(823,132,o),
(799,105,o),
(764,105,cs),
(724,105,o),
(720,134,o),
(727,181,c),
(772,432,l),
(634,432,l),
(625,379,l),
(606,418,o),
(568,439,o),
(511,439,cs),
(442,439,o),
(384,406,o),
(344,354,cs),
(303,302,o),
(279,232,o),
(279,159,cs),
(279,55,o),
(338,-7,o),
(438,-7,cs),
(510,-7,o),
(569,23,o),
(605,75,c),
(622,24,o),
(667,-5,o),
(739,-5,cs),
(822,-5,o),
(884,32,o),
(927,91,cs),
(970,150,o),
(992,229,o),
(992,313,cs),
(992,418,o),
(955,506,o),
(888,569,cs),
(820,632,o),
(724,668,o),
(604,668,cs),
(448,668,o),
(311,611,o),
(214,516,cs),
(117,420,o),
(59,286,o),
(59,133,cs),
(59,24,o),
(96,-66,o),
(163,-128,cs),
(230,-190,o),
(324,-225,o),
(440,-225,cs)
);
},
{
closed = 1;
nodes = (
(449,116,o),
(426,146,o),
(426,189,cs),
(426,224,o),
(437,255,o),
(455,279,cs),
(473,302,o),
(498,317,o),
(529,317,cs),
(552,317,o),
(569,310,o),
(581,296,cs),
(593,282,o),
(599,263,o),
(599,240,cs),
(599,207,o),
(587,175,o),
(568,153,cs),
(548,131,o),
(522,116,o),
(493,116,cs)
);
}
);
width = 1060;
},
{
layerId = "F1969046-B2E8-43BF-9859-EB2A2EDBE7A7";
shapes = (
{
closed = 1;
nodes = (
(520,-225,o),
(592,-211,o),
(660,-182,c),
(632,-73,l),
(581,-96,o),
(520,-109,o),
(456,-109,cs),
(371,-109,o),
(304,-86,o),
(258,-42,cs),
(212,2,o),
(187,66,o),
(187,146,cs),
(187,261,o),
(230,362,o),
(302,435,cs),
(373,508,o),
(474,553,o),
(587,553,cs),
(674,553,o),
(743,530,o),
(791,488,cs),
(838,446,o),
(863,384,o),
(863,308,cs),
(863,261,o),
(855,211,o),
(839,172,cs),
(823,132,o),
(799,105,o),
(764,105,cs),
(724,105,o),
(720,134,o),
(727,181,c),
(772,432,l),
(634,432,l),
(625,379,l),
(606,418,o),
(568,439,o),
(511,439,cs),
(442,439,o),
(384,406,o),
(344,354,cs),
(303,302,o),
(279,232,o),
(279,159,cs),
(279,55,o),
(338,-7,o),
(438,-7,cs),
(510,-7,o),
(569,23,o),
(605,75,c),
(622,24,o),
(667,-5,o),
(739,-5,cs),
(822,-5,o),
(884,32,o),
(927,91,cs),
(970,150,o),
(992,229,o),
(992,313,cs),
(992,418,o),
(955,506,o),
(888,569,cs),
(820,632,o),
(724,668,o),
(604,668,cs),
(448,668,o),
(311,611,o),
(214,516,cs),
(117,420,o),
(59,286,o),
(59,133,cs),
(59,24,o),
(96,-66,o),
(163,-128,cs),
(230,-190,o),
(324,-225,o),
(440,-225,cs)
);
},
{
closed = 1;
nodes = (
(449,116,o),
(426,146,o),
(426,189,cs),
(426,224,o),
(437,255,o),
(455,279,cs),
(473,302,o),
(498,317,o),
(529,317,cs),
(552,317,o),
(569,310,o),
(581,296,cs),
(593,282,o),
(599,263,o),
(599,240,cs),
(599,207,o),
(587,175,o),
(568,153,cs),
(548,131,o),
(522,116,o),
(493,116,cs)
);
}
);
width = 1060;
},
{
layerId = "F079074A-78E4-4C90-8BE5-DA787960C0F3";
shapes = (
{
closed = 1;
nodes = (
(488,-201,o),
(553,-188,o),
(614,-163,c),
(601,-104,l),
(550,-127,o),
(493,-138,o),
(434,-138,cs),
(339,-138,o),
(264,-113,o),
(212,-65,cs),
(160,-16,o),
(131,55,o),
(131,144,cs),
(131,265,o),
(176,375,o),
(251,453,cs),
(326,531,o),
(431,579,o),
(552,579,cs),
(647,579,o),
(723,553,o),
(776,506,cs),
(828,458,o),
(856,388,o),
(856,301,cs),
(856,246,o),
(845,184,o),
(823,137,cs),
(801,89,o),
(768,54,o),
(725,54,cs),
(673,54,o),
(664,93,o),
(673,150,c),
(723,433,l),
(648,433,l),
(636,365,l),
(615,418,o),
(570,445,o),
(505,445,cs),
(433,445,o),
(374,412,o),
(331,360,cs),
(288,308,o),
(265,239,o),
(265,164,cs),
(265,60,o),
(322,-6,o),
(425,-6,cs),
(498,-6,o),
(564,30,o),
(605,91,c),
(610,31,o),
(642,-6,o),
(711,-6,cs),
(780,-6,o),
(835,34,o),
(871,92,cs),
(907,150,o),
(926,228,o),
(926,305,cs),
(926,405,o),
(891,488,o),
(828,548,cs),
(765,607,o),
(674,642,o),
(562,642,cs),
(417,642,o),
(291,586,o),
(202,495,cs),
(113,404,o),
(60,278,o),
(60,135,cs),
(60,32,o),
(96,-52,o),
(159,-110,cs),
(222,-168,o),
(311,-201,o),
(419,-201,cs)
);
},
{
closed = 1;
nodes = (
(381,61,o),
(345,107,o),
(345,178,cs),
(345,229,o),
(361,278,o),
(389,316,cs),
(417,354,o),
(457,378,o),
(508,378,cs),
(547,378,o),
(577,362,o),
(595,337,cs),
(613,312,o),
(619,278,o),
(615,239,c),
(611,186,o),
(590,142,o),
(561,111,cs),
(532,79,o),
(495,61,o),
(452,61,cs)
);
}
);
width = 996;
},
{
layerId = "732555A9-C6E9-44F7-9412-4A8D1575CED6";
shapes = (
{
closed = 1;
nodes = (
(477,-191,o),
(537,-179,o),
(596,-156,c),
(589,-116,l),
(538,-139,o),
(481,-149,o),
(425,-149,cs),
(328,-149,o),
(249,-124,o),
(194,-74,cs),
(139,-24,o),
(109,50,o),
(109,143,cs),
(109,267,o),
(155,379,o),
(231,460,cs),
(307,540,o),
(414,590,o),
(538,590,cs),
(637,590,o),
(714,563,o),
(769,513,cs),
(824,463,o),
(853,389,o),
(853,298,cs),
(853,241,o),
(840,174,o),
(816,123,cs),
(792,71,o),
(756,34,o),
(709,34,cs),
(653,34,o),
(641,76,o),
(652,137,cs),
(703,434,l),
(653,434,l),
(640,359,l),
(619,419,o),
(571,447,o),
(503,447,cs),
(430,447,o),
(369,414,o),
(326,362,cs),
(283,310,o),
(259,241,o),
(259,166,cs),
(259,62,o),
(316,-6,o),
(420,-6,cs),
(493,-6,o),
(562,33,o),
(605,98,c),
(605,34,o),
(632,-6,o),
(700,-6,cs),
(764,-6,o),
(815,34,o),
(849,92,cs),
(883,150,o),
(900,227,o),
(900,302,cs),
(900,399,o),
(865,482,o),
(804,540,cs),
(743,598,o),
(654,631,o),
(545,631,cs),
(405,631,o),
(284,576,o),
(198,487,cs),
(112,398,o),
(60,275,o),
(60,136,cs),
(60,36,o),
(96,-46,o),
(157,-103,cs),
(218,-159,o),
(306,-191,o),
(410,-191,cs)
);
},
{
closed = 1;
nodes = (
(355,39,o),
(313,92,o),
(313,173,cs),
(313,230,o),
(331,287,o),
(363,331,cs),
(395,374,o),
(442,402,o),
(499,402,cs),
(546,402,o),
(580,384,o),
(600,354,cs),
(620,324,o),
(628,283,o),
(621,238,c),
(616,178,o),
(592,129,o),
(559,94,cs),
(526,59,o),
(483,39,o),
(436,39,cs)
);
}
);
width = 970;
}
);
unicode = 64;
},
{
glyphname = A;
layers = (
{
layerId = "F1969046-B2E8-43BF-9859-EB2A2EDBE7A7";
shapes = (
{
closed = 1;
nodes = (
(-34,0,l),
(145,0,l),
(219,144,l),
(468,144,l),
(491,0,l),
(672,0,l),
(543,700,l),
(342,700,l)
);
},
{
closed = 1;
nodes = (
(448,274,l),
(286,274,l),
(410,513,l)
);
}
);
width = 726;
},
{
layerId = "F079074A-78E4-4C90-8BE5-DA787960C0F3";
shapes = (
{
closed = 1;
nodes = (
(-23,0,l),
(72,0,l),
(167,178,l),
(463,178,l),
(495,0,l),
(587,0,l),
(454,700,l),
(359,700,l)
);
},
{
closed = 1;
nodes = (
(452,248,l),
(203,248,l),
(388,595,l)
);
}
);
width = 652;
},
{
layerId = "732555A9-C6E9-44F7-9412-4A8D1575CED6";
shapes = (
{
closed = 1;
nodes = (
(-18,0,l),
(43,0,l),
(146,192,l),
(461,192,l),
(497,0,l),
(553,0,l),
(418,700,l),
(366,700,l)
);
},
{
closed = 1;
nodes = (
(453,237,l),
(170,237,l),
(379,628,l)
);
}
);
width = 623;
}
);
leftKerningGroup = A2;
rightKerningGroup = A;
unicode = 65;
},
{
glyphname = B;
layers = (
{
layerId = "F1969046-B2E8-43BF-9859-EB2A2EDBE7A7";
shapes = (
{
closed = 1;
nodes = (
(12,0,l),
(339,0,ls),
(414,0,o),
(482,22,o),
(531,60,cs),
(579,98,o),
(609,154,o),
(609,222,cs),
(609,290,o),
(569,345,o),
(501,360,c),
(545,372,o),
(582,396,o),
(609,429,cs),
(636,461,o),
(651,501,o),
(651,545,cs),
(651,596,o),
(634,633,o),
(600,660,cs),
(566,687,o),
(516,700,o),
(452,700,cs),
(136,700,l)
);
},
{
closed = 1;
nodes = (
(257,417,l),
(283,565,l),
(395,566,ls),
(446,567,o),
(470,548,o),
(470,507,cs),
(470,479,o),
(460,457,o),
(443,441,cs),
(426,425,o),
(400,417,o),
(368,417,cs)
);
},
{
closed = 1;
nodes = (
(207,136,l),
(235,294,l),
(359,294,ls),
(410,294,o),
(438,271,o),
(438,232,cs),
(438,204,o),
(428,179,o),
(411,163,cs),
(394,146,o),
(368,136,o),
(333,136,cs)
);
}
);
width = 654;
},
{
layerId = "F079074A-78E4-4C90-8BE5-DA787960C0F3";
shapes = (
{
closed = 1;
nodes = (
(23,0,l),
(280,0,ls),
(353,0,o),
(418,22,o),
(466,62,cs),
(514,101,o),
(543,155,o),
(543,222,cs),
(543,294,o),
(499,348,o),
(432,361,c),
(479,373,o),
(516,396,o),
(544,429,cs),
(571,461,o),
(587,503,o),
(587,551,cs),
(587,594,o),
(572,630,o),
(540,657,cs),
(508,684,o),
(461,700,o),
(396,700,cs),
(146,700,l)
);
},
{
closed = 1;
nodes = (
(181,394,l),
(222,630,l),
(373,630,ls),
(456,630,o),
(494,596,o),
(494,536,cs),
(494,493,o),
(478,458,o),
(450,433,cs),
(422,408,o),
(383,394,o),
(334,394,cs)
);
},
{
closed = 1;
nodes = (
(123,71,l),
(168,325,l),
(325,325,ls),
(408,325,o),
(457,287,o),
(457,224,cs),
(457,179,o),
(439,140,o),
(409,113,cs),
(379,86,o),
(335,71,o),
(283,71,cs)
);
}
);
width = 597;
},
{
layerId = "732555A9-C6E9-44F7-9412-4A8D1575CED6";
shapes = (
{
closed = 1;
nodes = (
(27,0,l),
(257,0,ls),
(329,0,o),
(393,23,o),
(441,63,cs),
(488,102,o),
(517,157,o),
(517,222,cs),
(517,295,o),
(470,349,o),
(405,361,c),
(452,373,o),
(490,396,o),
(518,429,cs),
(545,461,o),
(561,504,o),
(561,553,cs),
(561,593,o),
(547,629,o),
(516,656,cs),
(485,683,o),
(439,700,o),
(374,700,cs),
(150,700,l)
);
},
{
closed = 1;
nodes = (
(151,385,l),
(197,656,l),
(364,656,l),
(460,655,o),
(504,615,o),
(504,547,cs),
(504,499,o),
(485,458,o),
(453,430,cs),
(421,401,o),
(376,385,o),
(321,385,cs)
);
},
{
closed = 1;
nodes = (
(90,45,l),
(141,338,l),
(311,338,ls),
(407,338,o),
(464,293,o),
(464,221,cs),
(464,168,o),
(443,124,o),
(408,93,cs),
(372,62,o),
(322,45,o),
(263,45,cs)
);
}
);
width = 574;
}
);
unicode = 66;
},
{
glyphname = C;
layers = (
{
layerId = "F1969046-B2E8-43BF-9859-EB2A2EDBE7A7";
shapes = (
{
closed = 1;
nodes = (
(425,-12,o),
(502,11,o),
(566,52,cs),
(629,93,o),
(677,156,o),
(704,233,c),
(516,233,l),
(491,173,o),
(443,143,o),
(367,143,cs),
(275,143,o),
(225,195,o),
(225,291,cs),
(225,367,o),
(248,433,o),
(285,481,cs),
(322,528,o),
(375,556,o),
(436,556,cs),
(512,556,o),
(552,522,o),
(555,454,c),
(743,454,l),
(746,621,o),
(643,712,o),
(464,712,cs),
(347,712,o),
(243,665,o),
(168,586,cs),
(93,506,o),
(49,396,o),
(49,269,cs),
(49,185,o),
(75,115,o),
(124,66,cs),
(173,17,o),
(245,-12,o),
(338,-12,cs)
);
}
);
width = 744;
},
{
layerId = "F079074A-78E4-4C90-8BE5-DA787960C0F3";
shapes = (
{
closed = 1;
nodes = (
(412,-12,o),
(481,8,o),
(537,45,cs),
(593,81,o),
(637,137,o),
(662,204,c),
(562,204,l),
(527,119,o),
(456,66,o),
(344,66,cs),
(217,66,o),
(143,142,o),
(143,275,cs),
(143,378,o),
(176,467,o),
(229,532,cs),
(282,596,o),
(357,634,o),
(444,634,cs),
(555,634,o),
(610,581,o),
(613,492,c),
(712,492,l),
(708,632,o),
(619,712,o),
(456,712,cs),
(341,712,o),
(241,664,o),
(168,585,cs),
(95,505,o),
(52,395,o),
(52,268,cs),
(52,184,o),
(77,114,o),
(125,65,cs),
(173,16,o),
(243,-12,o),
(332,-12,cs)
);
}
);
width = 709;
},
{
layerId = "732555A9-C6E9-44F7-9412-4A8D1575CED6";
shapes = (
{
closed = 1;
nodes = (
(408,-12,o),
(473,7,o),
(526,42,cs),
(579,77,o),
(620,129,o),
(645,193,c),
(581,193,l),
(542,97,o),
(460,35,o),
(335,35,cs),
(194,35,o),
(110,120,o),
(110,269,cs),
(110,381,o),
(147,480,o),
(207,552,cs),
(267,623,o),
(351,665,o),
(447,665,cs),
(572,665,o),
(633,604,o),
(636,507,c),
(700,507,l),
(693,636,o),
(609,712,o),
(453,712,cs),
(340,712,o),
(240,664,o),
(168,584,cs),
(96,504,o),
(53,393,o),
(53,268,cs),
(53,184,o),
(78,114,o),
(126,65,cs),
(173,16,o),
(242,-12,o),
(329,-12,cs)
);
}
);
width = 695;
}
);
leftKerningGroup = C2;
rightKerningGroup = C;
unicode = 67;
},
{
glyphname = D;
layers = (
{
layerId = "F1969046-B2E8-43BF-9859-EB2A2EDBE7A7";
shapes = (
{
closed = 1;
nodes = (
(13,0,l),
(276,0,ls),
(404,0,o),
(510,43,o),
(586,116,cs),
(661,188,o),
(704,292,o),
(704,413,cs),
(704,497,o),
(680,569,o),
(630,620,cs),
(580,671,o),
(503,700,o),
(399,700,cs),
(136,700,l)
);
},
{
closed = 1;
nodes = (
(210,148,l),
(282,554,l),
(363,554,ls),
(471,554,o),
(528,506,o),
(528,398,cs),
(528,321,o),
(507,258,o),
(467,215,cs),
(427,172,o),
(367,148,o),
(291,148,cs)
);
}
);
width = 719;
},
{
layerId = "F079074A-78E4-4C90-8BE5-DA787960C0F3";
shapes = (
{
closed = 1;
nodes = (
(23,0,l),
(240,0,ls),
(371,0,o),
(480,43,o),
(554,116,cs),
(628,189,o),
(670,294,o),
(670,417,cs),
(670,508,o),
(646,579,o),
(596,627,cs),
(546,675,o),
(470,700,o),
(363,700,cs),
(146,700,l)
);
},
{
closed = 1;
nodes = (
(124,74,l),
(221,626,l),
(349,626,ls),
(512,626,o),
(579,553,o),
(579,410,cs),
(579,309,o),
(549,224,o),
(493,166,cs),
(437,108,o),
(355,74,o),
(251,74,cs)
);
}
);
width = 688;
},
{
layerId = "732555A9-C6E9-44F7-9412-4A8D1575CED6";
shapes = (
{
closed = 1;
nodes = (
(27,0,l),
(226,0,ls),
(358,0,o),
(467,43,o),
(541,116,cs),
(615,189,o),
(656,295,o),
(656,419,cs),
(656,512,o),
(633,582,o),
(582,630,cs),
(531,677,o),
(456,700,o),
(349,700,cs),
(150,700,l)
);
},
{
closed = 1;
nodes = (
(90,45,l),
(197,655,l),
(343,655,ls),
(528,655,o),
(600,571,o),
(600,415,cs),
(600,303,o),
(566,210,o),
(503,146,cs),
(440,81,o),
(350,45,o),
(235,45,cs)
);
}
);
width = 675;
}
);
rightKerningGroup = D;
unicode = 68;
},
{
glyphname = E;
layers = (
{
layerId = "F1969046-B2E8-43BF-9859-EB2A2EDBE7A7";
shapes = (
{
closed = 1;
nodes = (
(12,0,l),
(472,0,l),
(496,135,l),
(207,135,l),
(235,292,l),
(494,292,l),
(517,421,l),
(258,421,l),
(283,565,l),
(572,565,l),
(596,700,l),
(136,700,l)
);
}
);
width = 566;
},
{
layerId = "F079074A-78E4-4C90-8BE5-DA787960C0F3";
shapes = (
{
closed = 1;
nodes = (
(23,0,l),
(430,0,l),
(442,70,l),
(123,70,l),
(167,318,l),
(457,318,l),
(468,387,l),
(179,387,l),
(222,630,l),
(541,630,l),
(554,700,l),
(146,700,l)
);
}
);
width = 529;
},
{
layerId = "732555A9-C6E9-44F7-9412-4A8D1575CED6";
shapes = (
{
closed = 1;
nodes = (
(27,0,l),
(413,0,l),
(421,44,l),
(90,44,l),
(140,329,l),
(442,329,l),
(448,374,l),
(148,374,l),
(197,656,l),
(528,656,l),
(537,700,l),
(150,700,l)
);
}
);
width = 514;
}
);
unicode = 69;
},
{
glyphname = F;
layers = (
{
layerId = "F1969046-B2E8-43BF-9859-EB2A2EDBE7A7";
shapes = (
{
closed = 1;
nodes = (
(12,0,l),
(183,0,l),
(233,286,l),
(447,286,l),
(471,416,l),
(257,416,l),
(283,565,l),
(569,565,l),
(593,700,l),
(136,700,l)
);
}
);
width = 542;
},
{
layerId = "F079074A-78E4-4C90-8BE5-DA787960C0F3";
shapes = (
{
closed = 1;
nodes = (
(23,0,l),
(111,0,l),
(167,317,l),
(443,317,l),
(456,386,l),
(179,386,l),
(222,630,l),
(551,630,l),
(564,700,l),
(146,700,l)
);
}
);
width = 516;
},
{
layerId = "732555A9-C6E9-44F7-9412-4A8D1575CED6";
shapes = (
{
closed = 1;
nodes = (
(27,0,l),
(82,0,l),
(140,330,l),
(442,330,l),
(450,374,l),
(148,374,l),
(197,656,l),
(544,656,l),
(552,700,l),
(150,700,l)
);
}
);
width = 506;
}
);
unicode = 70;
},
{
glyphname = G;
layers = (
{
layerId = "F1969046-B2E8-43BF-9859-EB2A2EDBE7A7";
shapes = (
{
closed = 1;
nodes = (
(373,-12,o),
(412,-5,o),
(445,9,cs),
(478,23,o),
(506,43,o),
(531,70,c),
(535,0,l),
(690,0,l),
(760,396,l),
(438,396,l),
(416,270,l),
(567,270,l),
(554,234,o),
(531,201,o),
(500,178,cs),
(468,154,o),
(427,139,o),
(375,139,cs),
(327,139,o),
(290,154,o),
(265,181,cs),
(240,208,o),
(227,249,o),
(227,298,cs),
(227,375,o),
(251,439,o),
(291,484,cs),
(331,528,o),
(388,554,o),
(455,554,cs),
(523,554,o),
(559,529,o),
(574,482,c),
(763,482,l),
(759,554,o),
(731,612,o),
(683,652,cs),
(635,691,o),
(566,712,o),
(481,712,cs),
(358,712,o),
(250,669,o),
(174,594,cs),
(97,518,o),
(51,411,o),
(51,283,cs),
(51,199,o),
(77,126,o),
(125,73,cs),
(172,20,o),
(242,-12,o),
(327,-12,cs)
);
}
);
width = 781;
},
{
layerId = "F079074A-78E4-4C90-8BE5-DA787960C0F3";
shapes = (
{
closed = 1;
nodes = (
(386,-12,o),
(436,-1,o),
(476,21,cs),
(516,42,o),
(552,73,o),
(584,113,c),
(571,0,l),
(653,0,l),
(719,375,l),
(429,375,l),
(416,306,l),
(616,306,l),
(599,234,o),
(566,173,o),
(521,132,cs),
(476,91,o),
(417,67,o),
(344,67,cs),
(283,67,o),
(233,89,o),
(198,127,cs),
(163,165,o),
(145,218,o),
(145,285,cs),
(145,386,o),
(176,473,o),
(230,534,cs),
(284,595,o),
(358,631,o),
(449,631,cs),
(561,631,o),
(621,578,o),
(626,497,c),
(727,497,l),
(724,565,o),
(697,619,o),
(651,656,cs),
(605,692,o),
(539,712,o),
(460,712,cs),
(340,712,o),
(240,667,o),
(168,591,cs),
(96,514,o),
(54,406,o),
(54,279,cs),
(54,195,o),
(79,122,o),
(126,71,cs),
(173,19,o),
(241,-12,o),
(326,-12,cs)
);
}
);
width = 748;
},
{
layerId = "732555A9-C6E9-44F7-9412-4A8D1575CED6";
shapes = (
{
closed = 1;
nodes = (
(391,-12,o),
(446,0,o),
(489,25,cs),
(532,50,o),
(570,85,o),
(605,130,c),
(586,0,l),
(638,0,l),
(702,367,l),
(425,367,l),
(416,321,l),
(636,321,l),
(616,233,o),
(581,162,o),
(530,114,cs),
(479,65,o),
(414,38,o),
(331,38,cs),
(264,38,o),
(210,63,o),
(172,105,cs),
(134,147,o),
(112,207,o),
(112,280,cs),
(112,391,o),
(145,486,o),
(205,554,cs),
(264,622,o),
(347,662,o),
(447,662,cs),
(576,662,o),
(644,599,o),
(647,503,c),
(713,503,l),
(710,570,o),
(683,621,o),
(638,657,cs),
(593,693,o),
(528,712,o),
(451,712,cs),
(334,712,o),
(236,666,o),
(166,589,cs),
(96,512,o),
(55,404,o),
(55,277,cs),
(55,193,o),
(80,121,o),
(127,70,cs),
(174,18,o),
(241,-12,o),
(325,-12,cs)
);
}
);
width = 735;
}
);
leftKerningGroup = C2;
rightKerningGroup = G;
unicode = 71;
},
{
glyphname = H;
layers = (
{
layerId = "F1969046-B2E8-43BF-9859-EB2A2EDBE7A7";
shapes = (
{
closed = 1;
nodes = (
(449,0,l),
(620,0,l),
(744,700,l),
(573,700,l),
(524,426,l),
(258,426,l),
(307,700,l),
(136,700,l),
(12,0,l),
(183,0,l),
(235,291,l),
(501,291,l)
);
}
);
width = 720;
},
{
layerId = "F079074A-78E4-4C90-8BE5-DA787960C0F3";
shapes = (
{
closed = 1;
nodes = (
(470,0,l),
(558,0,l),
(682,700,l),
(594,700,l),
(539,392,l),
(180,392,l),
(234,700,l),
(146,700,l),
(23,0,l),
(111,0,l),
(168,322,l),
(527,322,l)
);
}
);
width = 668;
},
{
layerId = "732555A9-C6E9-44F7-9412-4A8D1575CED6";
shapes = (
{
closed = 1;
nodes = (
(478,0,l),
(533,0,l),
(657,700,l),
(602,700,l),
(545,378,l),
(149,378,l),
(205,700,l),
(150,700,l),
(27,0,l),
(82,0,l),
(141,335,l),
(537,335,l)
);
}
);
width = 647;
}
);
unicode = 72;
},
{
glyphname = I;
layers = (
{
layerId = "F1969046-B2E8-43BF-9859-EB2A2EDBE7A7";
shapes = (
{
closed = 1;
nodes = (
(12,0,l),
(183,0,l),
(307,700,l),
(136,700,l)
);
}
);
width = 283;
},
{
layerId = "F079074A-78E4-4C90-8BE5-DA787960C0F3";
shapes = (
{
closed = 1;
nodes = (
(23,0,l),
(111,0,l),
(234,700,l),
(146,700,l)
);
}
);
width = 221;
},
{
layerId = "732555A9-C6E9-44F7-9412-4A8D1575CED6";
shapes = (
{
closed = 1;
nodes = (
(27,0,l),
(82,0,l),
(205,700,l),
(150,700,l)
);
}
);
width = 196;
}
);
unicode = 73;
},
{
glyphname = J;
layers = (
{
layerId = "F1969046-B2E8-43BF-9859-EB2A2EDBE7A7";
shapes = (
{
closed = 1;
nodes = (
(281,-12,o),
(343,8,o),
(390,47,cs),
(437,86,o),
(471,143,o),
(484,219,cs),
(569,700,l),
(398,700,l),
(313,219,ls),
(309,194,o),
(300,173,o),
(286,161,cs),
(272,148,o),
(254,141,o),
(234,141,cs),
(213,141,o),
(195,148,o),
(186,163,cs),
(177,178,o),
(175,201,o),
(180,230,c),
(10,230,l),
(-3,151,o),
(11,90,o),
(47,50,cs),
(83,9,o),
(140,-12,o),
(212,-12,cs)
);
}
);
width = 545;
},
{
layerId = "F079074A-78E4-4C90-8BE5-DA787960C0F3";
shapes = (
{
closed = 1;
nodes = (
(230,-12,o),
(281,6,o),
(320,39,cs),
(359,71,o),
(386,118,o),
(395,175,cs),
(487,700,l),
(399,700,l),
(307,175,l),
(303,147,o),
(290,119,o),
(271,100,cs),
(251,80,o),
(223,67,o),
(186,67,cs),
(147,67,o),
(123,81,o),
(110,102,cs),
(97,123,o),
(96,153,o),
(101,188,c),
(12,188,l),
(1,125,o),
(12,75,o),
(40,41,cs),
(68,7,o),
(114,-12,o),
(173,-12,cs)
);
}
);
width = 475;
},
{
layerId = "732555A9-C6E9-44F7-9412-4A8D1575CED6";
shapes = (
{
closed = 1;
nodes = (
(210,-12,o),
(257,6,o),
(293,36,cs),
(328,66,o),
(352,108,o),
(360,157,cs),
(454,700,l),
(399,700,l),
(305,157,ls),
(300,128,o),
(287,98,o),
(265,75,cs),
(243,52,o),
(211,37,o),
(167,37,cs),
(122,37,o),
(95,53,o),
(80,78,cs),
(65,102,o),
(64,135,o),
(69,171,c),
(13,171,l),
(4,115,o),
(12,69,o),
(37,37,cs),
(62,5,o),
(104,-12,o),
(157,-12,cs)
);
}
);
width = 447;
}
);
unicode = 74;
},
{
glyphname = K;
layers = (
{
layerId = "F1969046-B2E8-43BF-9859-EB2A2EDBE7A7";
shapes = (
{
closed = 1;
nodes = (
(13,0,l),
(184,0,l),
(225,230,l),
(295,295,l),
(424,0,l),
(629,0,l),
(438,424,l),
(742,700,l),
(533,700,l),
(264,451,l),
(307,700,l),
(136,700,l)
);
}
);
width = 692;
},
{
layerId = "F079074A-78E4-4C90-8BE5-DA787960C0F3";
shapes = (
{
closed = 1;
nodes = (
(23,0,l),
(111,0,l),
(159,271,l),
(254,356,l),
(413,0,l),
(515,0,l),
(325,420,l),
(634,700,l),
(524,700,l),
(180,386,l),
(234,700,l),
(146,700,l)
);
}
);
width = 580;
},
{
layerId = "732555A9-C6E9-44F7-9412-4A8D1575CED6";
shapes = (
{
closed = 1;
nodes = (
(27,0,l),
(82,0,l),
(132,287,l),
(237,381,l),
(408,0,l),
(470,0,l),
(280,419,l),
(591,700,l),
(520,700,l),
(146,360,l),
(205,700,l),
(150,700,l)
);
}
);
width = 535;
}
);
rightKerningGroup = K;
unicode = 75;
},
{
glyphname = L;
layers = (
{
layerId = "F1969046-B2E8-43BF-9859-EB2A2EDBE7A7";
shapes = (
{
closed = 1;
nodes = (
(13,0,l),
(478,0,l),
(501,132,l),
(207,132,l),
(307,700,l),
(136,700,l)
);
}
);
width = 566;
},
{
layerId = "F079074A-78E4-4C90-8BE5-DA787960C0F3";
shapes = (
{
closed = 1;
nodes = (
(23,0,l),
(436,0,l),
(448,71,l),
(123,71,l),
(234,700,l),
(146,700,l)
);
}
);
width = 514;
},
{
layerId = "732555A9-C6E9-44F7-9412-4A8D1575CED6";
shapes = (
{
closed = 1;
nodes = (
(27,0,l),
(419,0,l),
(427,46,l),
(90,46,l),
(205,700,l),
(150,700,l)
);
}
);
width = 493;
}
);
rightKerningGroup = L;
unicode = 76;
},
{
glyphname = M;
layers = (
{
layerId = "F1969046-B2E8-43BF-9859-EB2A2EDBE7A7";
shapes = (
{
closed = 1;
nodes = (
(13,0,l),
(184,0,l),
(257,417,l),
(360,100,l),
(498,100,l),
(710,416,l),
(637,0,l),
(808,0,l),
(931,700,l),
(726,700,l),
(466,301,l),
(342,700,l),
(136,700,l)
);
}
);
width = 908;
},
{
layerId = "F079074A-78E4-4C90-8BE5-DA787960C0F3";
shapes = (
{
closed = 1;
nodes = (
(23,0,l),
(111,0,l),
(206,541,l),
(359,100,l),
(426,100,l),
(734,543,l),
(638,0,l),
(726,0,l),
(849,700,l),
(746,700,l),
(413,217,l),
(248,700,l),
(146,700,l)
);
}
);
width = 837;
},
{
layerId = "732555A9-C6E9-44F7-9412-4A8D1575CED6";
shapes = (
{
closed = 1;
nodes = (
(27,0,l),
(82,0,l),
(186,591,l),
(359,100,l),
(397,100,l),
(743,594,l),
(638,0,l),
(693,0,l),
(816,700,l),
(754,700,l),
(392,183,l),
(211,700,l),
(150,700,l)
);
}
);
width = 808;
}
);
unicode = 77;
},
{
glyphname = N;
layers = (
{
layerId = "F1969046-B2E8-43BF-9859-EB2A2EDBE7A7";
shapes = (
{
closed = 1;
nodes = (
(12,0,l),
(183,0,l),
(260,433,l),
(469,0,l),
(640,0,l),
(764,700,l),
(593,700,l),
(516,267,l),
(309,700,l),
(136,700,l)
);
}
);
width = 740;
},
{
layerId = "F079074A-78E4-4C90-8BE5-DA787960C0F3";
shapes = (
{
closed = 1;
nodes = (
(23,0,l),
(111,0,l),
(210,561,l),
(480,0,l),
(568,0,l),
(691,700,l),
(603,700,l),
(505,140,l),
(234,700,l),
(146,700,l)
);
}
);
width = 678;
},
{
layerId = "732555A9-C6E9-44F7-9412-4A8D1575CED6";
shapes = (
{
closed = 1;
nodes = (
(27,0,l),
(82,0,l),
(190,612,l),
(484,0,l),
(539,0,l),
(662,700,l),
(607,700,l),
(500,89,l),
(204,700,l),
(150,700,l)
);
}
);
width = 653;
}
);
unicode = 78;
},
{
glyphname = O;
layers = (
{
layerId = "F1969046-B2E8-43BF-9859-EB2A2EDBE7A7";
shapes = (
{
closed = 1;
nodes = (
(482,-12,o),
(587,34,o),
(663,110,cs),
(739,185,o),
(785,290,o),
(785,406,cs),
(785,494,o),
(753,570,o),
(698,625,cs),
(642,680,o),
(565,712,o),
(474,712,cs),
(355,712,o),
(250,666,o),
(174,591,cs),
(98,515,o),
(52,410,o),
(52,294,cs),
(52,206,o),
(84,130,o),
(140,75,cs),
(195,20,o),
(272,-12,o),
(363,-12,cs)
);
},
{
closed = 1;
nodes = (
(333,143,o),
(294,160,o),
(268,189,cs),
(242,218,o),
(228,261,o),
(228,310,cs),
(228,381,o),
(254,442,o),
(295,486,cs),
(335,530,o),
(392,557,o),
(455,557,cs),
(508,557,o),
(547,540,o),
(572,511,cs),
(597,482,o),
(609,441,o),
(609,390,cs),
(609,321,o),
(583,258,o),
(543,214,cs),
(502,170,o),
(445,143,o),
(382,143,cs)
);
}
);
width = 801;
},
{
layerId = "F079074A-78E4-4C90-8BE5-DA787960C0F3";
shapes = (
{
closed = 1;
nodes = (
(461,-12,o),
(565,35,o),
(641,112,cs),
(717,189,o),
(764,296,o),
(764,415,cs),
(764,503,o),
(734,576,o),
(683,629,cs),
(631,681,o),
(558,712,o),
(471,712,cs),
(356,712,o),
(252,665,o),
(176,588,cs),
(100,511,o),
(53,404,o),
(53,287,cs),
(53,200,o),
(83,125,o),
(135,73,cs),
(186,20,o),
(259,-12,o),
(346,-12,cs)
);
},
{
closed = 1;
nodes = (
(295,66,o),
(241,88,o),
(204,128,cs),
(167,167,o),
(144,224,o),
(144,292,cs),
(144,388,o),
(180,473,o),
(237,534,cs),
(293,595,o),
(372,633,o),
(459,633,cs),
(522,633,o),
(576,612,o),
(614,574,cs),
(652,536,o),
(673,479,o),
(673,410,cs),
(673,314,o),
(637,227,o),
(581,166,cs),
(524,105,o),
(445,66,o),
(358,66,cs)
);
}
);
width = 781;
},
{
layerId = "732555A9-C6E9-44F7-9412-4A8D1575CED6";
shapes = (
{
closed = 1;
nodes = (
(452,-12,o),
(556,36,o),
(632,114,cs),
(708,192,o),
(755,299,o),
(755,419,cs),
(755,506,o),
(727,578,o),
(677,630,cs),
(627,682,o),
(555,712,o),
(470,712,cs),
(357,712,o),
(253,664,o),
(177,587,cs),
(101,510,o),
(53,403,o),
(53,284,cs),
(53,197,o),
(83,123,o),
(133,71,cs),
(183,19,o),
(254,-12,o),
(339,-12,cs)
);
},
{
closed = 1;
nodes = (
(281,35,o),
(221,59,o),
(179,103,cs),
(137,146,o),
(111,209,o),
(111,285,cs),
(111,390,o),
(150,485,o),
(213,554,cs),
(276,622,o),
(364,664,o),
(460,664,cs),
(528,664,o),
(587,641,o),
(630,599,cs),
(673,557,o),
(698,495,o),
(698,418,cs),
(698,311,o),
(659,215,o),
(596,147,cs),
(532,78,o),
(445,35,o),
(349,35,cs)
);
}
);
width = 773;
}
);
leftKerningGroup = C2;
rightKerningGroup = D;
unicode = 79;
},
{
glyphname = P;
layers = (
{
layerId = "F1969046-B2E8-43BF-9859-EB2A2EDBE7A7";
shapes = (
{
closed = 1;
nodes = (
(13,0,l),
(184,0,l),
(228,250,l),
(344,250,ls),
(432,250,o),
(507,275,o),
(561,319,cs),
(615,363,o),
(646,428,o),
(646,505,cs),
(646,557,o),
(628,606,o),
(591,642,cs),
(554,678,o),
(499,700,o),
(423,700,cs),
(136,700,l)
);
},
{
closed = 1;
nodes = (
(252,386,l),
(283,562,l),
(386,562,ls),
(445,562,o),
(470,538,o),
(470,491,cs),
(470,427,o),
(427,386,o),
(355,386,cs)
);
}
);
width = 626;
},
{
layerId = "F079074A-78E4-4C90-8BE5-DA787960C0F3";
shapes = (
{
closed = 1;
nodes = (
(23,0,l),
(111,0,l),
(162,290,l),
(308,290,ls),
(391,290,o),
(461,312,o),
(510,352,cs),
(559,392,o),
(587,449,o),
(587,524,cs),
(587,572,o),
(572,616,o),
(538,648,cs),
(504,680,o),
(451,700,o),
(379,700,cs),
(146,700,l)
);
},
{
closed = 1;
nodes = (
(175,364,l),
(222,627,l),
(364,627,ls),
(457,627,o),
(496,581,o),
(496,517,cs),
(496,413,o),
(431,364,o),
(318,364,cs)
);
}
);
width = 570;
},
{
layerId = "732555A9-C6E9-44F7-9412-4A8D1575CED6";
shapes = (
{
closed = 1;
nodes = (
(27,0,l),
(82,0,l),
(136,306,l),
(293,306,ls),
(374,306,o),
(442,326,o),
(490,365,cs),
(537,404,o),
(564,459,o),
(564,531,cs),
(564,578,o),
(548,619,o),
(516,650,cs),
(483,681,o),
(432,700,o),
(361,700,cs),
(150,700,l)
);
},
{
closed = 1;
nodes = (
(144,355,l),
(197,653,l),
(355,653,ls),
(462,653,o),
(506,599,o),
(506,528,cs),
(506,407,o),
(432,355,o),
(303,355,cs)
);
}
);
width = 548;
}
);
unicode = 80;
},
{
glyphname = Q;
layers = (
{
layerId = "F1969046-B2E8-43BF-9859-EB2A2EDBE7A7";
shapes = (
{
closed = 1;
nodes = (
(521,379,l),
(391,264,l),
(629,-13,l),
(759,102,l)
);
},
{
alignment = -1;
ref = O;
}
);
width = 776;
},
{
layerId = "F079074A-78E4-4C90-8BE5-DA787960C0F3";
shapes = (
{
closed = 1;
nodes = (
(504,274,l),
(440,218,l),
(636,-11,l),
(700,45,l)
);
},
{
alignment = -1;
ref = O;
}
);
width = 774;
},
{
layerId = "732555A9-C6E9-44F7-9412-4A8D1575CED6";
shapes = (
{
closed = 1;
nodes = (
(501,230,l),
(463,196,l),
(641,-10,l),
(677,23,l)
);
},
{
alignment = -1;
ref = O;
}
);
width = 773;
}
);
leftKerningGroup = C2;
unicode = 81;
},
{
glyphname = R;
layers = (
{
layerId = "F1969046-B2E8-43BF-9859-EB2A2EDBE7A7";
shapes = (
{
closed = 1;
nodes = (
(13,0,l),
(184,0,l),
(230,263,l),
(305,263,l),
(377,0,l),
(564,0,l),
(477,284,l),
(581,319,o),
(646,399,o),
(646,508,cs),
(646,559,o),
(627,607,o),
(589,643,cs),
(551,678,o),
(493,700,o),
(417,700,cs),
(136,700,l)
);
},
{
closed = 1;
nodes = (
(252,384,l),
(282,558,l),
(388,558,ls),
(416,558,o),
(437,552,o),
(450,540,cs),
(462,528,o),
(469,510,o),
(469,489,cs),
(469,425,o),
(426,384,o),
(358,384,cs)
);
}
);
width = 641;
},
{
layerId = "F079074A-78E4-4C90-8BE5-DA787960C0F3";
shapes = (
{
closed = 1;
nodes = (
(23,0,l),
(111,0,l),
(162,288,l),
(310,289,l),
(401,0,l),
(496,0,l),
(398,300,l),
(509,329,o),
(579,408,o),
(579,523,cs),
(579,571,o),
(563,615,o),
(530,648,cs),
(497,680,o),
(446,700,o),
(373,700,cs),
(146,700,l)
);
},
{
closed = 1;
nodes = (
(174,356,l),
(221,626,l),
(355,626,ls),
(402,626,o),
(436,614,o),
(457,594,cs),
(478,574,o),
(488,546,o),
(488,515,cs),
(488,412,o),
(417,356,o),
(309,356,cs)
);
}
);
width = 582;
},
{
layerId = "732555A9-C6E9-44F7-9412-4A8D1575CED6";
shapes = (
{
closed = 1;
nodes = (
(27,0,l),
(82,0,l),
(135,298,l),
(312,299,l),
(410,0,l),
(469,0,l),
(366,307,l),
(479,334,o),
(552,412,o),
(552,529,cs),
(552,576,o),
(538,618,o),
(507,650,c),
(475,681,o),
(427,700,o),
(356,700,cs),
(150,700,l)
);
},
{
closed = 1;
nodes = (
(143,345,l),
(197,653,l),
(342,653,ls),
(397,653,o),
(435,639,o),
(460,616,cs),
(485,592,o),
(496,560,o),
(496,525,cs),
(496,408,o),
(414,345,o),
(289,345,cs)
);
}
);
width = 558;
}
);
rightKerningGroup = R;
unicode = 82;
},
{
glyphname = S;
layers = (
{
layerId = "F1969046-B2E8-43BF-9859-EB2A2EDBE7A7";
shapes = (
{
closed = 1;
nodes = (
(433,-12,o),
(560,81,o),
(560,227,cs),
(560,329,o),
(480,386,o),
(390,418,cs),
(325,442,o),
(271,460,o),
(271,507,cs),
(271,542,o),
(298,569,o),
(345,569,cs),
(390,569,o),
(417,547,o),
(411,502,c),
(596,502,l),
(609,647,o),
(514,712,o),
(376,712,cs),
(209,712,o),
(86,617,o),
(86,474,cs),
(86,393,o),
(139,336,o),
(227,305,cs),
(301,279,o),
(373,257,o),
(373,204,cs),
(373,161,o),
(338,131,o),
(287,131,cs),
(235,131,o),
(205,161,o),
(211,212,c),
(28,212,l),
(-7,60,o),
(135,-12,o),
(265,-12,cs)
);
}
);
width = 605;
},
{
layerId = "F079074A-78E4-4C90-8BE5-DA787960C0F3";
shapes = (
{
closed = 1;
nodes = (
(414,-12,o),
(519,78,o),
(526,202,c),
(535,302,o),
(471,354,o),
(388,386,cs),
(291,423,o),
(201,439,o),
(210,523,c),
(215,586,o),
(267,634,o),
(350,634,cs),
(427,634,o),
(475,591,o),
(463,516,c),
(560,516,l),
(579,641,o),
(493,712,o),
(366,712,cs),
(220,712,o),
(119,628,o),
(111,510,cs),
(105,429,o),
(150,376,o),
(241,343,cs),
(335,308,o),
(438,288,o),
(428,192,c),
(422,118,o),
(365,66,o),
(268,66,cs),
(166,66,o),
(118,127,o),
(132,211,c),
(35,211,l),
(9,71,o),
(109,-12,o),
(256,-12,cs)
);
}
);
width = 578;
},
{
layerId = "732555A9-C6E9-44F7-9412-4A8D1575CED6";
shapes = (
{
closed = 1;
nodes = (
(407,-12,o),
(502,77,o),
(513,192,c),
(525,291,o),
(467,341,o),
(387,373,cs),
(278,416,o),
(173,430,o),
(185,529,c),
(192,604,o),
(254,660,o),
(352,660,cs),
(442,660,o),
(498,608,o),
(484,522,c),
(546,522,l),
(567,639,o),
(485,712,o),
(362,712,cs),
(224,712,o),
(132,633,o),
(121,524,cs),
(112,444,o),
(154,392,o),
(246,358,cs),
(349,320,o),
(464,300,o),
(450,187,c),
(441,101,o),
(376,40,o),
(260,40,cs),
(139,40,o),
(83,114,o),
(101,210,c),
(38,210,l),
(16,75,o),
(98,-12,o),
(252,-12,cs)
);
}
);
width = 567;
}
);
leftKerningGroup = S2;
rightKerningGroup = S;
unicode = 83;
},
{
glyphname = T;
layers = (
{
layerId = "F1969046-B2E8-43BF-9859-EB2A2EDBE7A7";
shapes = (
{
closed = 1;
nodes = (
(176,0,l),
(347,0,l),
(447,566,l),
(649,566,l),
(672,700,l),
(98,700,l),
(74,566,l),
(276,566,l)
);
}
);
width = 611;
},
{
layerId = "F079074A-78E4-4C90-8BE5-DA787960C0F3";
shapes = (
{
closed = 1;
nodes = (
(186,0,l),
(274,0,l),
(385,630,l),
(593,630,l),
(606,700,l),
(102,700,l),
(89,630,l),
(297,630,l)
);
}
);
width = 547;
},
{
layerId = "732555A9-C6E9-44F7-9412-4A8D1575CED6";
shapes = (
{
closed = 1;
nodes = (
(190,0,l),
(245,0,l),
(360,656,l),
(571,656,l),
(579,700,l),
(103,700,l),
(95,656,l),
(305,656,l)
);
}
);
width = 522;
}
);
leftKerningGroup = T2;
rightKerningGroup = T;
unicode = 84;
},
{
glyphname = U;
layers = (
{
layerId = "F1969046-B2E8-43BF-9859-EB2A2EDBE7A7";
shapes = (
{
closed = 1;
nodes = (
(375,-12,o),
(453,11,o),
(515,59,cs),
(577,107,o),
(623,179,o),
(640,278,cs),
(714,700,l),
(543,700,l),
(469,278,l),
(461,237,o),
(445,204,o),
(421,181,cs),
(396,158,o),
(362,147,o),
(322,147,cs),
(254,147,o),
(219,181,o),
(219,242,cs),
(219,253,o),
(220,265,o),
(223,278,c),
(297,700,l),
(126,700,l),
(53,278,ls),
(49,254,o),
(47,232,o),
(47,211,cs),
(47,136,o),
(73,80,o),
(117,44,cs),
(160,7,o),
(221,-12,o),
(292,-12,cs)
);
}
);
width = 693;
},
{
layerId = "F079074A-78E4-4C90-8BE5-DA787960C0F3";
shapes = (
{
closed = 1;
nodes = (
(347,-12,o),
(416,9,o),
(472,53,cs),
(527,97,o),
(568,166,o),
(584,259,cs),
(663,700,l),
(574,700,l),
(495,259,ls),
(484,192,o),
(458,145,o),
(423,114,cs),
(387,82,o),
(341,68,o),
(289,68,cs),
(201,68,o),
(144,109,o),
(144,205,cs),
(144,221,o),
(146,239,o),
(149,259,c),
(228,700,l),
(140,700,l),
(62,259,ls),
(58,235,o),
(56,214,o),
(56,191,cs),
(56,122,o),
(78,70,o),
(118,37,cs),
(157,4,o),
(211,-12,o),
(274,-12,cs)
);
}
);
width = 654;
},
{
layerId = "732555A9-C6E9-44F7-9412-4A8D1575CED6";
shapes = (
{
closed = 1;
nodes = (
(336,-12,o),
(402,8,o),
(455,51,cs),
(507,94,o),
(546,160,o),
(562,252,cs),
(642,700,l),
(587,700,l),
(506,252,ls),
(493,175,o),
(463,121,o),
(423,87,cs),
(383,53,o),
(332,37,o),
(276,37,cs),
(180,37,o),
(114,81,o),
(114,190,cs),
(114,209,o),
(116,229,o),
(120,252,cs),
(201,700,l),
(146,700,l),
(65,252,ls),
(61,228,o),
(59,206,o),
(59,183,cs),
(59,115,o),
(81,67,o),
(118,35,cs),
(155,3,o),
(207,-12,o),
(267,-12,cs)
);
}
);
width = 638;
}
);
leftKerningGroup = U2;
rightKerningGroup = U;
unicode = 85;
},
{
glyphname = V;
layers = (
{
layerId = "F1969046-B2E8-43BF-9859-EB2A2EDBE7A7";
shapes = (
{
closed = 1;
nodes = (
(208,0,l),
(422,0,l),
(794,700,l),
(612,700,l),
(346,172,l),
(265,700,l),
(83,700,l)
);
}
);
width = 717;
},
{
layerId = "F079074A-78E4-4C90-8BE5-DA787960C0F3";
shapes = (
{
closed = 1;
nodes = (
(232,0,l),
(336,0,l),
(723,700,l),
(628,700,l),
(301,96,l),
(189,700,l),
(94,700,l)
);
}
);
width = 657;
},
{
layerId = "732555A9-C6E9-44F7-9412-4A8D1575CED6";
shapes = (
{
closed = 1;
nodes = (
(242,0,l),
(302,0,l),
(694,700,l),
(634,700,l),
(283,65,l),
(159,700,l),
(98,700,l)
);
}
);
width = 633;
}
);
unicode = 86;
},
{
glyphname = W;
layers = (
{
layerId = "F1969046-B2E8-43BF-9859-EB2A2EDBE7A7";
shapes = (
{
closed = 1;
nodes = (
(146,0,l),
(353,0,l),
(550,461,l),
(581,0,l),
(788,0,l),
(1094,700,l),
(910,700,l),
(720,194,l),
(690,700,l),
(500,700,l),
(286,191,l),
(275,700,l),
(93,700,l)
);
}
);
width = 1040;
},
{
layerId = "F079074A-78E4-4C90-8BE5-DA787960C0F3";
shapes = (
{
closed = 1;
nodes = (
(160,-1,l),
(259,0,l),
(529,570,l),
(592,0,l),
(693,0,l),
(1013,700,l),
(917,700,l),
(663,107,l),
(604,700,l),
(505,700,l),
(231,108,l),
(187,700,l),
(92,700,l)
);
}
);
width = 958;
},
{
layerId = "732555A9-C6E9-44F7-9412-4A8D1575CED6";
shapes = (
{
closed = 1;
nodes = (
(165,-1,l),
(222,0,l),
(520,614,l),
(596,0,l),
(655,0,l),
(981,700,l),
(920,700,l),
(640,72,l),
(570,700,l),
(507,700,l),
(209,75,l),
(152,700,l),
(92,700,l)
);
}
);
width = 925;
}
);
leftKerningGroup = W2;
rightKerningGroup = W;
unicode = 87;
},
{
glyphname = X;
layers = (
{
layerId = "F1969046-B2E8-43BF-9859-EB2A2EDBE7A7";
shapes = (
{
closed = 1;
nodes = (
(435,0,l),
(634,0,l),
(463,348,l),
(747,700,l),
(553,700,l),
(394,490,l),
(291,700,l),
(92,700,l),
(260,357,l),
(-28,0,l),
(166,0,l),
(330,215,l)
);
}
);
width = 703;
},
{
layerId = "F079074A-78E4-4C90-8BE5-DA787960C0F3";
shapes = (
{
closed = 1;
nodes = (
(404,0,l),
(505,0,l),
(350,349,l),
(628,700,l),
(528,700,l),
(316,423,l),
(195,700,l),
(95,700,l),
(249,352,l),
(-27,0,l),
(72,0,l),
(282,279,l)
);
}
);
width = 585;
},
{
layerId = "732555A9-C6E9-44F7-9412-4A8D1575CED6";
shapes = (
{
closed = 1;
nodes = (
(392,0,l),
(453,0,l),
(305,349,l),
(581,700,l),
(518,700,l),
(285,396,l),
(157,700,l),
(96,700,l),
(244,350,l),
(-27,0,l),
(34,0,l),
(263,304,l)
);
}
);
width = 538;
}
);
unicode = 88;
},
{
glyphname = Y;
layers = (
{
layerId = "F1969046-B2E8-43BF-9859-EB2A2EDBE7A7";
shapes = (
{
closed = 1;
nodes = (
(193,0,l),
(364,0,l),
(406,232,l),
(730,700,l),
(537,700,l),
(352,409,l),
(269,700,l),
(74,700,l),
(235,232,l)
);
}
);
width = 659;
},
{
layerId = "F079074A-78E4-4C90-8BE5-DA787960C0F3";
shapes = (
{
closed = 1;
nodes = (
(191,0,l),
(279,0,l),
(326,265,l),
(631,700,l),
(531,700,l),
(296,349,l),
(185,700,l),
(85,700,l),
(238,265,l)
);
}
);
width = 568;
},
{
layerId = "732555A9-C6E9-44F7-9412-4A8D1575CED6";
shapes = (
{
closed = 1;
nodes = (
(190,0,l),
(245,0,l),
(294,278,l),
(591,700,l),
(529,700,l),
(274,325,l),
(152,700,l),
(89,700,l),
(239,278,l)
);
}
);
width = 532;
}
);
leftKerningGroup = Y2;
rightKerningGroup = Y;
unicode = 89;
},
{
glyphname = Z;
layers = (
{
layerId = "F1969046-B2E8-43BF-9859-EB2A2EDBE7A7";
shapes = (
{
closed = 1;
nodes = (
(-7,0,l),
(489,0,l),
(514,140,l),
(212,140,l),
(590,570,l),
(613,700,l),
(117,700,l),
(92,560,l),
(392,560,l),
(16,130,l)
);
}
);
width = 584;
},
{
layerId = "F079074A-78E4-4C90-8BE5-DA787960C0F3";
shapes = (
{
closed = 1;
nodes = (
(-13,0,l),
(436,0,l),
(450,76,l),
(102,76,l),
(544,631,l),
(556,700,l),
(116,700,l),
(101,624,l),
(439,624,l),
(-1,69,l)
);
}
);
width = 523;
},
{
layerId = "732555A9-C6E9-44F7-9412-4A8D1575CED6";
shapes = (
{
closed = 1;
nodes = (
(-16,0,l),
(415,0,l),
(424,50,l),
(58,50,l),
(525,655,l),
(533,700,l),
(115,700,l),
(105,650,l),
(458,650,l),
(-8,45,l)
);
}
);
width = 498;
}
);
rightKerningGroup = Z;
unicode = 90;
},
{
glyphname = bracketleft;
layers = (
{
layerId = "F1969046-B2E8-43BF-9859-EB2A2EDBE7A7";
shapes = (
{
closed = 1;
nodes = (
(-21,-190,l),
(279,-190,l),
(304,-51,l),
(164,-51,l),
(291,672,l),
(431,672,l),
(455,810,l),
(155,810,l)
);
}
);
width = 401;
},
{
layerId = "F079074A-78E4-4C90-8BE5-DA787960C0F3";
shapes = (
{
closed = 1;
nodes = (
(-5,-153,l),
(176,-153,l),
(188,-80,l),
(91,-80,l),
(235,738,l),
(333,738,l),
(346,811,l),
(166,811,l)
);
}
);
width = 298;
},
{
layerId = "732555A9-C6E9-44F7-9412-4A8D1575CED6";
shapes = (
{
closed = 1;
nodes = (
(2,-138,l),
(135,-138,l),
(142,-91,l),
(62,-91,l),
(213,765,l),
(294,765,l),
(303,811,l),
(170,811,l)
);
}
);
width = 257;
}
);
unicode = 91;
},
{
glyphname = backslash;
layers = (
{
layerId = "F1969046-B2E8-43BF-9859-EB2A2EDBE7A7";
shapes = (
{
closed = 1;
nodes = (
(195,-127,l),
(360,-127,l),
(273,790,l),
(108,790,l)
);
}
);
width = 438;
},
{
layerId = "F079074A-78E4-4C90-8BE5-DA787960C0F3";
shapes = (
{
closed = 1;
nodes = (
(211,-97,l),
(297,-97,l),
(199,766,l),
(112,766,l)
);
}
);
width = 379;
},
{
layerId = "732555A9-C6E9-44F7-9412-4A8D1575CED6";
shapes = (
{
closed = 1;
nodes = (
(217,-85,l),
(272,-85,l),
(169,756,l),
(113,756,l)
);
}
);
width = 355;
}
);
unicode = 92;
},
{
glyphname = bracketright;
layers = (
{
layerId = "F1969046-B2E8-43BF-9859-EB2A2EDBE7A7";
shapes = (
{
closed = 1;
nodes = (
(456,811,l),
(156,811,l),
(131,672,l),
(271,672,l),
(144,-51,l),
(4,-51,l),
(-20,-189,l),
(280,-189,l)
);
}
);
width = 401;
},
{
layerId = "F079074A-78E4-4C90-8BE5-DA787960C0F3";
shapes = (
{
closed = 1;
nodes = (
(346,811,l),
(165,811,l),
(153,738,l),
(250,738,l),
(106,-80,l),
(8,-80,l),
(-5,-153,l),
(176,-153,l)
);
}
);
width = 298;
},
{
layerId = "732555A9-C6E9-44F7-9412-4A8D1575CED6";
shapes = (
{
closed = 1;
nodes = (
(302,811,l),
(169,811,l),
(162,764,l),
(242,764,l),
(91,-92,l),
(10,-92,l),
(1,-138,l),
(134,-138,l)
);
}
);
width = 257;
}
);
unicode = 93;
},
{
glyphname = asciicircum;
layers = (
{
layerId = "F1969046-B2E8-43BF-9859-EB2A2EDBE7A7";
shapes = (
{
closed = 1;
nodes = (
(3,161,l),
(175,161,l),
(388,502,l),
(479,161,l),
(652,161,l),
(506,700,l),
(340,700,l)
);
}
);
width = 697;
},
{
layerId = "F079074A-78E4-4C90-8BE5-DA787960C0F3";
shapes = (
{
closed = 1;
nodes = (
(9,177,l),
(99,177,l),
(359,592,l),
(471,177,l),
(561,177,l),
(418,700,l),
(337,700,l)
);
}
);
width = 610;
},
{
layerId = "732555A9-C6E9-44F7-9412-4A8D1575CED6";
shapes = (
{
closed = 1;
nodes = (
(11,184,l),
(69,184,l),
(348,628,l),
(468,184,l),
(525,184,l),
(383,700,l),
(336,700,l)
);
}
);
width = 575;
}
);
unicode = 94;
},
{
glyphname = underscore;
layers = (
{
layerId = "F1969046-B2E8-43BF-9859-EB2A2EDBE7A7";
shapes = (
{
closed = 1;
nodes = (
(-35,-205,l),
(585,-205,l),
(613,-41,l),
(-7,-41,l)
);
}
);
width = 709;
},
{
layerId = "F079074A-78E4-4C90-8BE5-DA787960C0F3";
shapes = (
{
closed = 1;
nodes = (
(-14,-119,l),
(515,-119,l),
(529,-36,l),
(1,-36,l)
);
}
);
width = 630;
},
{
layerId = "732555A9-C6E9-44F7-9412-4A8D1575CED6";
shapes = (
{
closed = 1;
nodes = (
(-5,-84,l),
(487,-84,l),
(495,-34,l),
(4,-34,l)
);
}
);
width = 598;
}
);
unicode = 95;
},
{
glyphname = a;
layers = (
{
layerId = "F1969046-B2E8-43BF-9859-EB2A2EDBE7A7";
shapes = (
{
closed = 1;
nodes = (
(273,-12,o),
(304,-4,o),
(331,9,cs),
(358,22,o),
(380,40,o),
(397,60,c),
(409,0,l),
(560,0,l),
(647,500,l),
(497,500,l),
(466,447,l),
(443,482,o),
(400,512,o),
(320,512,cs),
(243,512,o),
(172,479,o),
(121,425,cs),
(70,371,o),
(39,295,o),
(39,210,cs),
(39,146,o),
(59,91,o),
(93,52,cs),
(127,12,o),
(175,-12,o),
(234,-12,cs)
);
},
{
closed = 1;
nodes = (
(281,138,o),
(257,149,o),
(242,166,c),
(226,182,o),
(218,206,o),
(218,233,cs),
(218,268,o),
(231,300,o),
(254,324,cs),
(277,347,o),
(309,362,o),
(345,362,cs),
(405,362,o),
(441,324,o),
(441,271,cs),
(441,236,o),
(426,203,o),
(403,179,cs),
(379,154,o),
(346,138,o),
(310,138,cs)
);
}
);
width = 660;
},
{
layerId = "F079074A-78E4-4C90-8BE5-DA787960C0F3";
shapes = (
{
closed = 1;
nodes = (
(289,-12,o),
(325,0,o),
(357,17,cs),
(388,34,o),
(412,58,o),
(431,82,c),
(425,0,l),
(506,0,l),
(595,500,l),
(513,500,l),
(491,418,l),
(464,475,o),
(411,512,o),
(322,512,cs),
(242,512,o),
(171,479,o),
(120,426,cs),
(68,373,o),
(37,297,o),
(37,209,cs),
(37,148,o),
(56,93,o),
(91,53,cs),
(126,13,o),
(178,-12,o),
(242,-12,cs)
);
},
{
closed = 1;
nodes = (
(225,65,o),
(190,82,o),
(166,109,cs),
(142,136,o),
(129,174,o),
(129,217,cs),
(129,278,o),
(149,333,o),
(185,373,cs),
(220,412,o),
(270,435,o),
(326,435,cs),
(411,435,o),
(463,379,o),
(463,292,cs),
(463,229,o),
(443,173,o),
(408,132,cs),
(373,91,o),
(324,65,o),
(268,65,cs)
);
}
);
width = 612;
},
{
layerId = "732555A9-C6E9-44F7-9412-4A8D1575CED6";
shapes = (
{
closed = 1;
nodes = (
(294,-12,o),
(334,1,o),
(367,20,cs),
(399,39,o),
(425,66,o),
(445,91,c),
(431,0,l),
(485,0,l),
(574,500,l),
(519,500,l),
(501,406,l),
(473,473,o),
(415,512,o),
(323,512,cs),
(242,512,o),
(170,480,o),
(119,427,cs),
(67,374,o),
(36,298,o),
(36,209,cs),
(36,149,o),
(55,94,o),
(91,54,c),
(126,13,o),
(178,-12,o),
(245,-12,cs)
);
},
{
closed = 1;
nodes = (
(203,36,o),
(163,55,o),
(136,86,cs),
(108,117,o),
(93,162,o),
(93,211,cs),
(93,283,o),
(117,347,o),
(157,392,cs),
(197,437,o),
(254,464,o),
(318,464,cs),
(414,464,o),
(472,401,o),
(472,300,cs),
(472,227,o),
(449,161,o),
(410,113,cs),
(371,65,o),
(315,36,o),
(251,36,cs)
);
}
);
width = 593;
}
);
leftKerningGroup = a2;
rightKerningGroup = a;
unicode = 97;
},
{
glyphname = b;
layers = (
{
layerId = "F1969046-B2E8-43BF-9859-EB2A2EDBE7A7";
shapes = (
{
closed = 1;
nodes = (
(417,-12,o),
(489,23,o),
(541,79,cs),
(593,135,o),
(624,211,o),
(624,294,cs),
(624,357,o),
(603,410,o),
(567,450,cs),
(531,489,o),
(481,512,o),
(422,512,cs),
(353,512,o),
(300,486,o),
(264,451,c),
(313,726,l),
(140,726,l),
(12,0,l),
(163,0,l),
(194,53,l),
(207,33,o),
(226,16,o),
(250,5,cs),
(273,-6,o),
(301,-12,o),
(334,-12,cs)
);
},
{
closed = 1;
nodes = (
(257,138,o),
(219,180,o),
(219,233,cs),
(219,269,o),
(232,302,o),
(255,325,cs),
(278,348,o),
(310,362,o),
(346,362,cs),
(377,362,o),
(402,351,o),
(419,333,cs),
(436,315,o),
(446,291,o),
(446,264,cs),
(446,229,o),
(432,198,o),
(409,175,cs),
(385,152,o),
(353,138,o),
(317,138,cs)
);
}
);
width = 662;
},
{
layerId = "F079074A-78E4-4C90-8BE5-DA787960C0F3";
shapes = (
{
closed = 1;
nodes = (
(370,-12,o),
(442,22,o),
(494,78,cs),
(545,133,o),
(576,210,o),
(576,298,cs),
(576,358,o),
(557,411,o),
(521,450,cs),
(485,489,o),
(434,512,o),
(370,512,cs),
(281,512,o),
(223,472,o),
(180,423,c),
(234,726,l),
(145,726,l),
(17,0,l),
(97,0,l),
(121,83,l),
(133,59,o),
(154,34,o),
(183,17,cs),
(211,0,o),
(247,-12,o),
(287,-12,cs)
);
},
{
closed = 1;
nodes = (
(204,65,o),
(149,124,o),
(149,212,cs),
(149,275,o),
(170,330,o),
(205,371,cs),
(240,411,o),
(289,435,o),
(345,435,cs),
(389,435,o),
(423,419,o),
(447,392,cs),
(471,365,o),
(484,328,o),
(484,284,cs),
(484,221,o),
(464,167,o),
(429,128,cs),
(394,88,o),
(347,65,o),
(291,65,cs)
);
}
);
width = 611;
},
{
layerId = "732555A9-C6E9-44F7-9412-4A8D1575CED6";
shapes = (
{
closed = 1;
nodes = (
(351,-12,o),
(423,21,o),
(475,77,cs),
(526,132,o),
(557,210,o),
(557,299,cs),
(557,359,o),
(538,413,o),
(503,451,cs),
(467,489,o),
(416,512,o),
(349,512,cs),
(252,512,o),
(191,467,o),
(147,412,c),
(203,726,l),
(147,726,l),
(19,0,l),
(71,0,l),
(92,95,l),
(103,70,o),
(125,42,o),
(156,22,cs),
(187,2,o),
(225,-12,o),
(268,-12,cs)
);
},
{
closed = 1;
nodes = (
(184,36,o),
(121,102,o),
(121,203,cs),
(121,276,o),
(145,341,o),
(185,389,cs),
(225,436,o),
(281,464,o),
(345,464,cs),
(393,464,o),
(431,447,o),
(458,416,cs),
(485,385,o),
(499,343,o),
(499,292,cs),
(499,219,o),
(477,155,o),
(438,109,cs),
(398,63,o),
(344,36,o),
(280,36,cs)
);
}
);
width = 591;
}
);
rightKerningGroup = b;
unicode = 98;
},
{
glyphname = c;
layers = (
{
layerId = "F1969046-B2E8-43BF-9859-EB2A2EDBE7A7";
shapes = (
{
closed = 1;
nodes = (
(336,-12,o),
(399,9,o),
(452,46,cs),
(504,82,o),
(545,135,o),
(569,200,c),
(385,200,l),
(370,160,o),
(337,135,o),
(292,135,cs),
(268,135,o),
(248,143,o),
(236,159,c),
(223,174,o),
(216,196,o),
(216,221,cs),
(216,260,o),
(229,295,o),
(250,322,cs),
(271,349,o),
(301,365,o),
(334,365,cs),
(354,365,o),
(371,359,o),
(383,348,cs),
(395,336,o),
(402,320,o),
(402,300,c),
(586,300,l),
(586,435,o),
(499,512,o),
(360,512,cs),
(265,512,o),
(185,477,o),
(128,421,cs),
(71,365,o),
(38,288,o),
(38,205,cs),
(38,140,o),
(60,86,o),
(100,48,cs),
(140,10,o),
(197,-12,o),
(268,-12,cs)
);
}
);
width = 619;
},
{
layerId = "F079074A-78E4-4C90-8BE5-DA787960C0F3";
shapes = (
{
closed = 1;
nodes = (
(307,-12,o),
(363,6,o),
(408,38,cs),
(453,69,o),
(488,112,o),
(508,165,c),
(417,165,l),
(390,97,o),
(327,63,o),
(259,63,cs),
(223,63,o),
(190,77,o),
(167,102,cs),
(143,127,o),
(129,165,o),
(129,210,cs),
(129,275,o),
(151,333,o),
(187,373,cs),
(222,413,o),
(272,436,o),
(325,436,cs),
(358,436,o),
(389,427,o),
(411,411,cs),
(433,394,o),
(446,368,o),
(446,335,c),
(537,335,l),
(536,444,o),
(461,512,o),
(337,512,cs),
(253,512,o),
(178,479,o),
(124,424,cs),
(70,368,o),
(36,290,o),
(36,201,cs),
(36,137,o),
(57,84,o),
(94,47,cs),
(130,10,o),
(183,-12,o),
(246,-12,cs)
);
}
);
width = 561;
},
{
layerId = "732555A9-C6E9-44F7-9412-4A8D1575CED6";
shapes = (
{
closed = 1;
nodes = (
(296,-12,o),
(348,5,o),
(391,34,cs),
(434,63,o),
(466,103,o),
(483,151,c),
(430,151,l),
(398,71,o),
(323,34,o),
(246,34,cs),
(205,34,o),
(166,50,o),
(139,79,cs),
(111,108,o),
(94,151,o),
(94,206,cs),
(94,282,o),
(120,348,o),
(161,393,cs),
(202,438,o),
(259,465,o),
(322,465,cs),
(359,465,o),
(396,455,o),
(422,436,cs),
(448,416,o),
(464,388,o),
(464,349,c),
(518,349,l),
(515,449,o),
(447,512,o),
(328,512,cs),
(248,512,o),
(174,480,o),
(122,425,cs),
(69,369,o),
(35,291,o),
(35,199,cs),
(35,136,o),
(56,83,o),
(92,47,c),
(127,10,o),
(177,-12,o),
(237,-12,cs)
);
}
);
width = 538;
}
);
leftKerningGroup = a2;
unicode = 99;
},
{
glyphname = d;
layers = (
{
layerId = "F1969046-B2E8-43BF-9859-EB2A2EDBE7A7";
shapes = (
{
closed = 1;
nodes = (
(273,-12,o),
(304,-4,o),
(331,9,cs),
(358,22,o),
(380,40,o),
(397,60,c),
(407,0,l),
(560,0,l),
(687,726,l),
(514,726,l),
(466,447,l),
(443,482,o),
(400,512,o),
(320,512,cs),
(243,512,o),
(172,479,o),
(121,425,cs),
(70,371,o),
(39,295,o),
(39,210,cs),
(39,146,o),
(59,91,o),
(93,52,cs),
(127,12,o),
(175,-12,o),
(234,-12,cs)
);
},
{
closed = 1;
nodes = (
(281,138,o),
(257,149,o),
(242,166,c),
(226,182,o),
(218,206,o),
(218,233,cs),
(218,268,o),
(231,300,o),
(254,324,cs),
(277,347,o),
(309,362,o),
(345,362,cs),
(405,362,o),
(441,324,o),
(441,271,cs),
(441,236,o),
(426,203,o),
(403,179,cs),
(379,154,o),
(346,138,o),
(310,138,cs)
);
}
);
width = 660;
},
{
layerId = "F079074A-78E4-4C90-8BE5-DA787960C0F3";
shapes = (
{
closed = 1;
nodes = (
(289,-12,o),
(325,0,o),
(357,17,cs),
(388,34,o),
(412,58,o),
(431,82,c),
(425,0,l),
(506,0,l),
(635,726,l),
(546,726,l),
(491,418,l),
(464,475,o),
(411,512,o),
(322,512,cs),
(242,512,o),
(171,479,o),
(120,426,cs),
(68,373,o),
(37,297,o),
(37,209,cs),
(37,148,o),
(56,93,o),
(91,53,cs),
(126,13,o),
(178,-12,o),
(242,-12,cs)
);
},
{
closed = 1;
nodes = (
(225,65,o),
(190,82,o),
(166,109,cs),
(142,136,o),
(129,174,o),
(129,217,cs),
(129,278,o),
(149,333,o),
(185,373,cs),
(220,412,o),
(270,435,o),
(326,435,cs),
(411,435,o),
(463,379,o),
(463,292,cs),
(463,229,o),
(443,173,o),
(408,132,cs),
(373,91,o),
(324,65,o),
(268,65,cs)
);
}
);
width = 613;
},
{
layerId = "732555A9-C6E9-44F7-9412-4A8D1575CED6";
shapes = (
{
closed = 1;
nodes = (
(294,-12,o),
(334,1,o),
(367,20,cs),
(399,39,o),
(425,66,o),
(445,91,c),
(432,0,l),
(485,0,l),
(614,726,l),
(559,726,l),
(501,406,l),
(473,473,o),
(415,512,o),
(323,512,cs),
(242,512,o),
(170,480,o),
(119,427,cs),
(67,374,o),
(36,298,o),
(36,209,cs),
(36,149,o),
(55,94,o),
(91,54,c),
(126,13,o),
(178,-12,o),
(245,-12,cs)
);
},
{
closed = 1;
nodes = (
(203,36,o),
(163,55,o),
(136,86,cs),
(108,117,o),
(93,162,o),
(93,211,cs),
(93,283,o),
(117,347,o),
(157,392,cs),
(197,437,o),
(254,464,o),
(318,464,cs),
(414,464,o),
(472,401,o),
(472,300,cs),
(472,227,o),
(449,161,o),
(410,113,cs),
(371,65,o),
(315,36,o),
(251,36,cs)
);
}
);
width = 594;
}
);
leftKerningGroup = a2;
unicode = 100;
},
{
glyphname = e;
layers = (
{
layerId = "F1969046-B2E8-43BF-9859-EB2A2EDBE7A7";
shapes = (
{
closed = 1;
nodes = (
(390,-12,o),
(501,65,o),
(550,165,c),
(373,165,l),
(354,144,o),
(328,127,o),
(292,127,cs),
(234,127,o),
(208,160,o),
(208,215,cs),
(208,292,o),
(256,375,o),
(340,375,cs),
(387,375,o),
(416,345,o),
(413,302,c),
(215,302,l),
(194,207,l),
(570,207,l),
(578,234,o),
(586,268,o),
(586,305,cs),
(586,429,o),
(494,512,o),
(362,512,cs),
(166,512,o),
(38,367,o),
(38,203,cs),
(38,70,o),
(126,-12,o),
(270,-12,cs)
);
}
);
width = 616;
},
{
layerId = "F079074A-78E4-4C90-8BE5-DA787960C0F3";
shapes = (
{
closed = 1;
nodes = (
(362,-12,o),
(451,56,o),
(494,146,c),
(402,146,l),
(373,95,o),
(326,64,o),
(258,64,cs),
(173,64,o),
(121,128,o),
(139,239,cs),
(154,341,o),
(210,436,o),
(325,436,cs),
(407,436,o),
(456,386,o),
(442,290,c),
(136,290,l),
(123,228,l),
(521,228,l),
(527,249,o),
(532,274,o),
(532,297,c),
(543,418,o),
(475,512,o),
(338,512,cs),
(178,512,o),
(60,390,o),
(48,223,cs),
(36,81,o),
(112,-12,o),
(246,-12,cs)
);
}
);
width = 571;
},
{
layerId = "FCCFDAEB-1A4A-4506-9D6C-0B8E7DE1B620";
associatedMasterId = "732555A9-C6E9-44F7-9412-4A8D1575CED6";
name = 1;
shapes = (
{
closed = 1;
nodes = (
(186,-12,o),
(114,18,o),
(63,73,o),
(35,151,o),
(35,198,qs),
(35,264,o),
(79,379,o),
(156,464,o),
(261,512,o),
(323,512,qs),
(372,512,o),
(444,482,o),
(492,431,o),
(515,365,o),
(515,328,qs),
(515,309,o),
(507,258,o),
(503,239,q),
(92,239,l),
(86,200,o),
(98,127,o),
(135,70,o),
(197,36,o),
(241,36,qs),
(303,36,o),
(393,95,o),
(419,144,q),
(472,144,l),
(457,110,o),
(411,53,o),
(350,11,o),
(275,-12,o),
(231,-12,qs)
);
},
{
closed = 1;
nodes = (
(460,294,l),
(467,370,o),
(398,463,o),
(315,463,qs),
(281,463,o),
(213,441,o),
(156,398,o),
(113,335,o),
(103,294,q)
);
}
);
width = 537;
},
{
anchors = (
{
name = bottom;
position = "{233, 0}";
},
{
name = ogonek;
position = "{344, 11}";
},
{
name = top;
position = "{325, 511}";
}
);
layerId = "732555A9-C6E9-44F7-9412-4A8D1575CED6";
shapes = (
{
closed = 1;
nodes = (
(351,-12,o),
(431,52,o),
(472,139,c),
(413,139,l),
(380,75,o),
(325,39,o),
(245,39,cs),
(148,39,o),
(86,115,o),
(111,248,cs),
(132,360,o),
(192,461,o),
(319,461,cs),
(415,461,o),
(472,402,o),
(453,285,c),
(104,285,l),
(95,237,l),
(501,237,l),
(506,255,o),
(510,276,o),
(511,294,c),
(526,414,o),
(468,512,o),
(329,512,cs),
(183,512,o),
(69,399,o),
(52,231,cs),
(35,85,o),
(107,-12,o),
(236,-12,cs)
);
}
);
width = 553;
}
);
leftKerningGroup = a2;
rightKerningGroup = e;
unicode = 101;
},
{
glyphname = f;
layers = (
{
layerId = "F1969046-B2E8-43BF-9859-EB2A2EDBE7A7";
shapes = (
{
closed = 1;
nodes = (
(32,0,l),
(205,0,l),
(267,357,l),
(360,357,l),
(385,500,l),
(292,500,l),
(298,532,l),
(306,567,o),
(320,580,o),
(359,580,cs),
(392,580,l),
(418,726,l),
(359,726,ls),
(300,726,o),
(249,714,o),
(209,683,cs),
(169,652,o),
(139,603,o),
(126,530,cs),
(121,500,l),
(57,500,l),
(31,357,l),
(96,357,l)
);
}
);
width = 379;
},
{
layerId = "F079074A-78E4-4C90-8BE5-DA787960C0F3";
shapes = (
{
closed = 1;
nodes = (
(43,0,l),
(133,0,l),
(208,425,l),
(330,425,l),
(344,500,l),
(221,500,l),
(236,582,ls),
(245,631,o),
(266,650,o),
(318,650,cs),
(355,650,l),
(368,726,l),
(318,726,ls),
(271,726,o),
(232,716,o),
(204,693,cs),
(175,669,o),
(155,633,o),
(147,584,cs),
(132,500,l),
(59,500,l),
(45,425,l),
(119,425,l)
);
}
);
width = 325;
},
{
layerId = "732555A9-C6E9-44F7-9412-4A8D1575CED6";
shapes = (
{
closed = 1;
nodes = (
(48,0,l),
(104,0,l),
(185,452,l),
(318,452,l),
(327,500,l),
(193,500,l),
(211,602,ls),
(222,658,o),
(245,678,o),
(301,678,cs),
(340,678,l),
(348,726,l),
(301,726,ls),
(260,726,o),
(226,716,o),
(202,696,cs),
(177,676,o),
(162,646,o),
(155,606,cs),
(137,500,l),
(60,500,l),
(50,452,l),
(128,452,l)
);
}
);
width = 303;
}
);
unicode = 102;
},
{
glyphname = g;
layers = (
{
layerId = "F1969046-B2E8-43BF-9859-EB2A2EDBE7A7";
shapes = (
{
closed = 1;
nodes = (
(325,-234,o),
(397,-216,o),
(456,-173,cs),
(515,-130,o),
(561,-64,o),
(578,32,cs),
(660,500,l),
(505,500,l),
(479,448,l),
(452,487,o),
(393,512,o),
(329,512,cs),
(249,512,o),
(177,479,o),
(125,426,cs),
(73,373,o),
(40,299,o),
(40,218,cs),
(40,158,o),
(61,105,o),
(98,66,cs),
(134,27,o),
(187,4,o),
(250,4,cs),
(286,4,o),
(318,11,o),
(346,24,cs),
(373,36,o),
(396,54,o),
(413,74,c),
(404,21,ls),
(397,-18,o),
(379,-44,o),
(355,-61,cs),
(331,-77,o),
(303,-85,o),
(275,-85,cs),
(219,-85,o),
(178,-65,o),
(182,-22,c),
(10,-22,l),
(3,-102,o),
(34,-155,o),
(82,-188,cs),
(129,-220,o),
(193,-234,o),
(254,-234,cs)
);
},
{
closed = 1;
nodes = (
(283,152,o),
(259,161,o),
(243,180,c),
(226,198,o),
(218,219,o),
(218,242,cs),
(218,275,o),
(232,305,o),
(256,327,cs),
(279,349,o),
(311,362,o),
(347,362,cs),
(379,362,o),
(403,352,o),
(420,336,cs),
(437,320,o),
(446,298,o),
(446,274,cs),
(446,241,o),
(431,210,o),
(407,188,cs),
(383,166,o),
(351,152,o),
(315,152,cs)
);
}
);
width = 672;
},
{
layerId = "F079074A-78E4-4C90-8BE5-DA787960C0F3";
shapes = (
{
closed = 1;
nodes = (
(308,-234,o),
(378,-210,o),
(431,-166,cs),
(483,-121,o),
(521,-58,o),
(534,21,cs),
(619,500,l),
(544,500,l),
(514,412,l),
(489,469,o),
(421,512,o),
(333,512,cs),
(249,512,o),
(174,478,o),
(122,423,cs),
(69,367,o),
(36,291,o),
(36,208,cs),
(36,147,o),
(58,93,o),
(95,54,cs),
(132,14,o),
(186,-9,o),
(247,-9,cs),
(295,-9,o),
(338,4,o),
(374,24,cs),
(409,44,o),
(438,71,o),
(458,100,c),
(446,27,ls),
(435,-34,o),
(408,-79,o),
(372,-110,cs),
(336,-141,o),
(290,-156,o),
(242,-156,cs),
(157,-156,o),
(100,-113,o),
(93,-42,c),
(5,-42,l),
(5,-103,o),
(29,-151,o),
(70,-184,cs),
(110,-216,o),
(166,-234,o),
(231,-234,cs)
);
},
{
closed = 1;
nodes = (
(230,68,o),
(195,82,o),
(169,109,cs),
(142,136,o),
(129,172,o),
(129,216,cs),
(129,276,o),
(150,330,o),
(186,370,cs),
(222,410,o),
(274,435,o),
(334,435,cs),
(378,435,o),
(415,420,o),
(442,395,cs),
(469,370,o),
(485,334,o),
(485,290,cs),
(485,230,o),
(462,174,o),
(424,134,cs),
(386,93,o),
(332,68,o),
(275,68,cs)
);
}
);
width = 636;
},
{
layerId = "732555A9-C6E9-44F7-9412-4A8D1575CED6";
shapes = (
{
closed = 1;
nodes = (
(302,-234,o),
(369,-207,o),
(420,-163,cs),
(471,-118,o),
(504,-55,o),
(516,17,cs),
(602,500,l),
(560,500,l),
(528,398,l),
(503,462,o),
(432,512,o),
(335,512,cs),
(248,512,o),
(173,477,o),
(120,421,cs),
(67,365,o),
(35,288,o),
(35,204,cs),
(35,143,o),
(57,88,o),
(94,49,cs),
(131,9,o),
(185,-14,o),
(246,-14,cs),
(299,-14,o),
(346,1,o),
(385,25,cs),
(424,48,o),
(455,78,o),
(476,110,c),
(463,30,ls),
(451,-41,o),
(420,-94,o),
(379,-130,cs),
(338,-166,o),
(285,-185,o),
(229,-185,cs),
(132,-185,o),
(69,-133,o),
(58,-50,c),
(3,-50,l),
(6,-105,o),
(27,-150,o),
(65,-183,cs),
(103,-215,o),
(155,-234,o),
(222,-234,cs)
);
},
{
closed = 1;
nodes = (
(210,34,o),
(170,50,o),
(139,81,cs),
(108,112,o),
(93,153,o),
(93,206,cs),
(93,277,o),
(117,340,o),
(158,388,cs),
(199,435,o),
(258,464,o),
(329,464,cs),
(377,464,o),
(420,448,o),
(451,419,cs),
(482,390,o),
(501,348,o),
(501,297,cs),
(501,226,o),
(474,160,o),
(430,112,cs),
(386,64,o),
(326,34,o),
(259,34,cs)
);
}
);
width = 621;
}
);
leftKerningGroup = g;
unicode = 103;
},
{
glyphname = h;
layers = (
{
layerId = "F1969046-B2E8-43BF-9859-EB2A2EDBE7A7";
shapes = (
{
closed = 1;
nodes = (
(371,0,l),
(542,0,l),
(591,272,ls),
(604,348,o),
(598,408,o),
(573,449,cs),
(548,490,o),
(502,512,o),
(437,512,cs),
(360,512,o),
(301,480,o),
(261,432,c),
(313,726,l),
(140,726,l),
(13,0,l),
(186,0,l),
(231,259,ls),
(238,294,o),
(252,320,o),
(272,339,cs),
(292,358,o),
(319,368,o),
(347,368,cs),
(412,368,o),
(428,326,o),
(416,257,cs)
);
}
);
width = 637;
},
{
layerId = "F079074A-78E4-4C90-8BE5-DA787960C0F3";
shapes = (
{
closed = 1;
nodes = (
(382,0,l),
(471,0,l),
(522,291,ls),
(535,366,o),
(527,421,o),
(500,458,c),
(472,494,o),
(427,512,o),
(368,512,cs),
(291,512,o),
(223,476,o),
(180,415,c),
(234,726,l),
(145,726,l),
(18,0,l),
(107,0,l),
(153,260,ls),
(164,317,o),
(187,362,o),
(219,391,cs),
(250,420,o),
(290,436,o),
(333,436,cs),
(416,436,o),
(449,386,o),
(432,282,cs)
);
}
);
width = 566;
},
{
layerId = "732555A9-C6E9-44F7-9412-4A8D1575CED6";
shapes = (
{
closed = 1;
nodes = (
(386,0,l),
(442,0,l),
(495,298,ls),
(508,373,o),
(498,426,o),
(470,461,cs),
(442,496,o),
(396,512,o),
(340,512,cs),
(264,512,o),
(192,475,o),
(147,408,c),
(203,726,l),
(147,726,l),
(20,0,l),
(76,0,l),
(122,261,ls),
(134,326,o),
(161,378,o),
(197,412,cs),
(233,446,o),
(279,463,o),
(327,463,cs),
(416,463,o),
(458,409,o),
(438,292,cs)
);
}
);
width = 537;
}
);
rightKerningGroup = h;
unicode = 104;
},
{
glyphname = i;
layers = (
{
layerId = "F1969046-B2E8-43BF-9859-EB2A2EDBE7A7";
shapes = (
{
closed = 1;
nodes = (
(272,539,o),
(314,581,o),
(314,632,cs),
(314,684,o),
(272,726,o),
(212,726,cs),
(149,726,o),
(109,684,o),
(109,632,cs),
(109,581,o),
(149,539,o),
(212,539,cs)
);
},
{
closed = 1;
nodes = (
(13,0,l),
(186,0,l),
(273,500,l),
(101,500,l)
);
}
);
width = 288;
},
{
layerId = "F079074A-78E4-4C90-8BE5-DA787960C0F3";
shapes = (
{
closed = 1;
nodes = (
(222,607,o),
(250,633,o),
(250,666,cs),
(250,701,o),
(222,726,o),
(189,726,cs),
(154,726,o),
(128,701,o),
(128,666,cs),
(128,633,o),
(154,607,o),
(189,607,cs)
);
},
{
closed = 1;
nodes = (
(27,0,l),
(116,0,l),
(203,500,l),
(115,500,l)
);
}
);
width = 231;
},
{
layerId = "732555A9-C6E9-44F7-9412-4A8D1575CED6";
shapes = (
{
closed = 1;
nodes = (
(203,634,o),
(224,653,o),
(224,680,cs),
(224,708,o),
(203,726,o),
(180,726,cs),
(156,726,o),
(136,708,o),
(136,680,cs),
(136,653,o),
(156,634,o),
(180,634,cs)
);
},
{
closed = 1;
nodes = (
(32,0,l),
(88,0,l),
(175,500,l),
(120,500,l)
);
}
);
width = 208;
}
);
unicode = 105;
},
{
glyphname = j;
layers = (
{
layerId = "F1969046-B2E8-43BF-9859-EB2A2EDBE7A7";
shapes = (
{
closed = 1;
nodes = (
(264,539,o),
(306,581,o),
(306,632,cs),
(306,684,o),
(264,726,o),
(204,726,cs),
(141,726,o),
(101,684,o),
(101,632,cs),
(101,581,o),
(141,539,o),
(204,539,cs)
);
},
{
closed = 1;
nodes = (
(-128,-222,l),
(-60,-222,ls),
(-1,-222,o),
(50,-210,o),
(90,-179,cs),
(130,-148,o),
(159,-99,o),
(172,-26,cs),
(265,500,l),
(93,500,l),
(0,-28,l),
(-7,-61,o),
(-21,-76,o),
(-60,-76,cs),
(-102,-76,l)
);
}
);
width = 284;
},
{
layerId = "F079074A-78E4-4C90-8BE5-DA787960C0F3";
shapes = (
{
closed = 1;
nodes = (
(220,607,o),
(247,633,o),
(247,666,cs),
(247,701,o),
(220,726,o),
(187,726,cs),
(152,726,o),
(126,701,o),
(126,666,cs),
(126,633,o),
(152,607,o),
(187,607,cs)
);
},
{
closed = 1;
nodes = (
(-124,-222,l),
(-73,-222,ls),
(-26,-222,o),
(13,-212,o),
(42,-189,cs),
(71,-165,o),
(90,-129,o),
(98,-80,cs),
(200,500,l),
(112,500,l),
(9,-78,ls),
(1,-127,o),
(-22,-146,o),
(-73,-146,cs),
(-111,-146,l)
);
}
);
width = 232;
},
{
layerId = "732555A9-C6E9-44F7-9412-4A8D1575CED6";
shapes = (
{
closed = 1;
nodes = (
(203,634,o),
(223,653,o),
(223,680,cs),
(223,708,o),
(203,726,o),
(180,726,cs),
(156,726,o),
(136,708,o),
(136,680,cs),
(136,653,o),
(156,634,o),
(180,634,cs)
);
},
{
closed = 1;
nodes = (
(-123,-222,l),
(-78,-222,ls),
(-37,-222,o),
(-2,-212,o),
(23,-192,cs),
(47,-172,o),
(62,-142,o),
(69,-102,cs),
(174,500,l),
(119,500,l),
(13,-98,ls),
(4,-154,o),
(-22,-174,o),
(-78,-174,cs),
(-114,-174,l)
);
}
);
width = 211;
}
);
unicode = 106;
},
{
glyphname = k;
leftMetricsKey = l;
rightMetricsKey = v;
layers = (
{
anchors = (
{
name = bottom;
position = "{170, 0}";
}
);
layerId = "732555A9-C6E9-44F7-9412-4A8D1575CED6";
shapes = (
{
closed = 1;
nodes = (
(76,0,l),
(203,726,l),
(148,726,l),
(21,0,l)
);
},
{
closed = 1;
nodes = (
(466,500,l),
(393,500,l),
(111,261,l),
(95,188,l)
);
},
{
closed = 1;
nodes = (
(399,0,l),
(231,321,l),
(187,279,l),
(323,0,l)
);
}
);
width = 456;
},
{
anchors = (
{
name = bottom;
position = "{197, 0}";
}
);
layerId = "F079074A-78E4-4C90-8BE5-DA787960C0F3";
shapes = (
{
closed = 1;
nodes = (
(107,0,l),
(235,726,l),
(146,726,l),
(18,0,l)
);
},
{
closed = 1;
nodes = (
(507,496,l),
(398,496,l),
(113,243,l),
(127,167,l)
);
},
{
closed = 1;
nodes = (
(448,0,l),
(260,323,l),
(195,265,l),
(335,0,l)
);
}
);
width = 505;
},
{
anchors = (
{
name = bottom;
position = "{264, 0}";
}
);
layerId = "F1969046-B2E8-43BF-9859-EB2A2EDBE7A7";
shapes = (
{
closed = 1;
nodes = (
(184,0,l),
(313,726,l),
(141,726,l),
(12,0,l)
);
},
{
closed = 1;
nodes = (
(621,500,l),
(423,500,l),
(119,198,l),
(205,115,l)
);
},
{
closed = 1;
nodes = (
(569,0,l),
(332,328,l),
(216,229,l),
(365,0,l)
);
}
);
width = 623;
}
);
rightKerningGroup = k;
unicode = 107;
},
{
glyphname = l;
layers = (
{
layerId = "F1969046-B2E8-43BF-9859-EB2A2EDBE7A7";
shapes = (
{
closed = 1;
nodes = (
(12,0,l),
(185,0,l),
(314,726,l),
(141,726,l)
);
}
);
width = 286;
},
{
layerId = "F079074A-78E4-4C90-8BE5-DA787960C0F3";
shapes = (
{
closed = 1;
nodes = (
(17,0,l),
(106,0,l),
(235,726,l),
(146,726,l)
);
}
);
width = 213;
},
{
layerId = "732555A9-C6E9-44F7-9412-4A8D1575CED6";
shapes = (
{
closed = 1;
nodes = (
(19,0,l),
(75,0,l),
(204,726,l),
(148,726,l)
);
}
);
width = 184;
}
);
unicode = 108;
},
{
glyphname = m;
layers = (
{
layerId = "F1969046-B2E8-43BF-9859-EB2A2EDBE7A7";
shapes = (
{
closed = 1;
nodes = (
(700,0,l),
(871,0,l),
(919,272,l),
(934,348,o),
(924,408,o),
(895,449,cs),
(866,490,o),
(815,512,o),
(744,512,cs),
(671,512,o),
(610,480,o),
(565,429,c),
(537,485,o),
(488,512,o),
(412,512,cs),
(343,512,o),
(292,483,o),
(255,439,c),
(251,500,l),
(101,500,l),
(13,0,l),
(186,0,l),
(231,257,ls),
(238,292,o),
(249,319,o),
(267,339,cs),
(285,358,o),
(307,368,o),
(335,368,cs),
(395,368,o),
(414,326,o),
(402,257,cs),
(357,0,l),
(528,0,l),
(577,270,l),
(585,301,o),
(597,325,o),
(613,342,cs),
(629,359,o),
(651,368,o),
(676,368,cs),
(735,368,o),
(757,326,o),
(745,257,cs)
);
}
);
width = 966;
},
{
layerId = "F079074A-78E4-4C90-8BE5-DA787960C0F3";
shapes = (
{
closed = 1;
nodes = (
(698,0,l),
(786,0,l),
(838,291,ls),
(851,367,o),
(839,422,o),
(811,459,c),
(782,495,o),
(737,512,o),
(680,512,cs),
(611,512,o),
(539,475,o),
(495,410,c),
(475,482,o),
(418,512,o),
(345,512,cs),
(276,512,o),
(217,477,o),
(178,417,c),
(185,500,l),
(106,500,l),
(18,0,l),
(107,0,l),
(152,258,ls),
(163,317,o),
(186,361,o),
(216,391,cs),
(246,421,o),
(282,436,o),
(319,436,cs),
(391,436,o),
(426,386,o),
(407,282,cs),
(358,0,l),
(447,0,l),
(496,277,l),
(509,329,o),
(533,368,o),
(561,395,cs),
(588,422,o),
(622,436,o),
(657,436,cs),
(729,436,o),
(764,386,o),
(747,282,cs)
);
}
);
width = 881;
},
{
layerId = "732555A9-C6E9-44F7-9412-4A8D1575CED6";
shapes = (
{
closed = 1;
nodes = (
(697,0,l),
(752,0,l),
(806,298,l),
(818,374,o),
(805,427,o),
(777,462,cs),
(749,497,o),
(706,512,o),
(655,512,cs),
(586,512,o),
(510,474,o),
(467,403,c),
(450,480,o),
(391,512,o),
(318,512,cs),
(249,512,o),
(187,475,o),
(147,408,c),
(158,500,l),
(108,500,l),
(20,0,l),
(76,0,l),
(121,259,ls),
(133,326,o),
(160,376,o),
(195,411,cs),
(230,446,o),
(272,463,o),
(312,463,cs),
(389,463,o),
(430,409,o),
(409,292,cs),
(358,0,l),
(414,0,l),
(464,280,l),
(479,340,o),
(507,385,o),
(540,416,cs),
(572,447,o),
(611,463,o),
(650,463,cs),
(727,463,o),
(768,409,o),
(748,292,cs)
);
}
);
width = 847;
}
);
leftKerningGroup = m;
rightKerningGroup = h;
unicode = 109;
},
{
glyphname = n;
layers = (
{
layerId = "F1969046-B2E8-43BF-9859-EB2A2EDBE7A7";
shapes = (
{
closed = 1;
nodes = (
(371,0,l),
(542,0,l),
(591,272,ls),
(595,297,o),
(598,321,o),
(598,342,cs),
(598,451,o),
(541,512,o),
(433,512,cs),
(353,512,o),
(295,478,o),
(256,426,c),
(251,500,l),
(101,500,l),
(13,0,l),
(186,0,l),
(231,257,ls),
(243,326,o),
(290,368,o),
(347,368,cs),
(399,368,o),
(420,342,o),
(420,294,cs),
(420,283,o),
(419,272,o),
(416,257,cs)
);
}
);
width = 637;
},
{
layerId = "F079074A-78E4-4C90-8BE5-DA787960C0F3";
shapes = (
{
closed = 1;
nodes = (
(382,0,l),
(471,0,l),
(522,291,ls),
(526,312,o),
(528,331,o),
(528,351,cs),
(528,456,o),
(468,512,o),
(367,512,cs),
(290,512,o),
(220,475,o),
(177,412,c),
(186,500,l),
(106,500,l),
(18,0,l),
(107,0,l),
(155,268,ls),
(176,377,o),
(249,436,o),
(333,436,cs),
(400,436,o),
(436,401,o),
(436,330,cs),
(436,317,o),
(435,301,o),
(432,282,cs)
);
}
);
width = 566;
},
{
layerId = "732555A9-C6E9-44F7-9412-4A8D1575CED6";
shapes = (
{
closed = 1;
nodes = (
(386,0,l),
(442,0,l),
(495,298,ls),
(499,319,o),
(500,335,o),
(500,354,cs),
(500,458,o),
(439,512,o),
(340,512,cs),
(264,512,o),
(190,474,o),
(146,406,c),
(160,500,l),
(108,500,l),
(20,0,l),
(76,0,l),
(124,272,l),
(151,397,o),
(232,463,o),
(327,463,cs),
(400,463,o),
(443,424,o),
(443,344,cs),
(443,329,o),
(441,312,o),
(438,292,c)
);
}
);
width = 537;
}
);
leftKerningGroup = m;
rightKerningGroup = h;
unicode = 110;
},
{
glyphname = o;
layers = (
{
layerId = "F1969046-B2E8-43BF-9859-EB2A2EDBE7A7";
shapes = (
{
closed = 1;
nodes = (
(354,-12,o),
(431,21,o),
(486,74,cs),
(541,127,o),
(574,202,o),
(574,285,cs),
(574,352,o),
(550,408,o),
(510,448,cs),
(469,488,o),
(411,512,o),
(343,512,cs),
(258,512,o),
(182,479,o),
(127,426,cs),
(72,373,o),
(40,299,o),
(40,215,cs),
(40,151,o),
(62,94,o),
(102,54,cs),
(142,13,o),
(199,-12,o),
(267,-12,cs)
);
},
{
closed = 1;
nodes = (
(269,137,o),
(250,144,o),
(238,159,cs),
(225,174,o),
(217,195,o),
(217,222,cs),
(217,262,o),
(228,298,o),
(248,323,cs),
(267,347,o),
(294,363,o),
(325,363,cs),
(345,363,o),
(363,356,o),
(376,341,cs),
(388,326,o),
(396,306,o),
(396,278,cs),
(396,238,o),
(385,202,o),
(366,178,cs),
(347,153,o),
(320,137,o),
(289,137,cs)
);
}
);
width = 614;
},
{
layerId = "F079074A-78E4-4C90-8BE5-DA787960C0F3";
shapes = (
{
closed = 1;
nodes = (
(332,-12,o),
(408,21,o),
(461,77,cs),
(514,132,o),
(548,211,o),
(548,296,cs),
(548,360,o),
(526,415,o),
(488,453,cs),
(450,491,o),
(396,512,o),
(332,512,cs),
(249,512,o),
(177,480,o),
(123,425,cs),
(69,370,o),
(36,294,o),
(36,207,cs),
(36,144,o),
(59,90,o),
(97,51,cs),
(135,11,o),
(188,-12,o),
(251,-12,cs)
);
},
{
closed = 1;
nodes = (
(226,64,o),
(192,77,o),
(168,102,cs),
(144,127,o),
(128,163,o),
(128,210,cs),
(128,274,o),
(149,330,o),
(185,371,cs),
(220,411,o),
(267,436,o),
(322,436,cs),
(358,436,o),
(391,423,o),
(416,398,cs),
(440,373,o),
(456,337,o),
(456,290,cs),
(456,226,o),
(435,170,o),
(400,130,cs),
(365,89,o),
(317,64,o),
(262,64,cs)
);
}
);
width = 584;
},
{
layerId = "732555A9-C6E9-44F7-9412-4A8D1575CED6";
shapes = (
{
closed = 1;
nodes = (
(324,-12,o),
(398,22,o),
(451,78,cs),
(504,134,o),
(537,213,o),
(537,301,cs),
(537,364,o),
(515,417,o),
(479,454,cs),
(442,491,o),
(389,512,o),
(328,512,cs),
(247,512,o),
(174,480,o),
(121,425,cs),
(68,369,o),
(35,292,o),
(35,204,cs),
(35,141,o),
(57,88,o),
(94,49,cs),
(131,10,o),
(184,-12,o),
(244,-12,cs)
);
},
{
closed = 1;
nodes = (
(210,35,o),
(169,50,o),
(141,79,cs),
(112,108,o),
(93,150,o),
(93,205,cs),
(93,278,o),
(118,343,o),
(159,390,cs),
(200,437,o),
(257,465,o),
(321,465,cs),
(364,465,o),
(403,450,o),
(432,421,cs),
(461,392,o),
(480,350,o),
(480,295,cs),
(480,222,o),
(455,157,o),
(414,110,cs),
(373,63,o),
(315,35,o),
(251,35,cs)
);
}
);
width = 572;
}
);
leftKerningGroup = a2;
rightKerningGroup = b;
unicode = 111;
},
{
glyphname = p;
layers = (
{
layerId = "F1969046-B2E8-43BF-9859-EB2A2EDBE7A7";
shapes = (
{
closed = 1;
nodes = (
(-25,-222,l),
(147,-222,l),
(194,53,l),
(207,33,o),
(226,16,o),
(250,5,cs),
(273,-6,o),
(301,-12,o),
(334,-12,cs),
(417,-12,o),
(489,23,o),
(541,79,cs),
(593,135,o),
(624,211,o),
(624,294,cs),
(624,357,o),
(603,410,o),
(567,450,cs),
(531,489,o),
(481,512,o),
(422,512,cs),
(353,512,o),
(301,485,o),
(262,440,c),
(252,500,l),
(101,500,l)
);
},
{
closed = 1;
nodes = (
(257,138,o),
(219,180,o),
(219,233,cs),
(219,269,o),
(232,302,o),
(255,325,cs),
(278,348,o),
(310,362,o),
(346,362,cs),
(377,362,o),
(402,351,o),
(419,333,cs),
(436,315,o),
(446,291,o),
(446,264,cs),
(446,229,o),
(432,198,o),
(409,175,cs),
(385,152,o),
(353,138,o),
(317,138,cs)
);
}
);
width = 662;
},
{
layerId = "F079074A-78E4-4C90-8BE5-DA787960C0F3";
shapes = (
{
closed = 1;
nodes = (
(-21,-222,l),
(67,-222,l),
(122,83,l),
(133,59,o),
(155,34,o),
(184,17,cs),
(212,0,o),
(248,-12,o),
(288,-12,cs),
(371,-12,o),
(443,22,o),
(495,78,cs),
(546,133,o),
(577,210,o),
(577,298,cs),
(577,358,o),
(557,411,o),
(522,450,cs),
(486,489,o),
(435,512,o),
(371,512,cs),
(282,512,o),
(222,471,o),
(181,418,c),
(188,500,l),
(106,500,l)
);
},
{
closed = 1;
nodes = (
(206,65,o),
(150,124,o),
(150,212,cs),
(150,275,o),
(170,330,o),
(206,371,cs),
(241,411,o),
(290,435,o),
(346,435,cs),
(389,435,o),
(424,419,o),
(448,392,cs),
(472,365,o),
(485,328,o),
(485,284,cs),
(485,221,o),
(465,167,o),
(430,128,cs),
(395,88,o),
(347,65,o),
(291,65,cs)
);
}
);
width = 613;
},
{
layerId = "732555A9-C6E9-44F7-9412-4A8D1575CED6";
shapes = (
{
closed = 1;
nodes = (
(-20,-222,l),
(35,-222,l),
(93,95,l),
(104,70,o),
(126,42,o),
(157,22,cs),
(188,2,o),
(226,-12,o),
(269,-12,cs),
(352,-12,o),
(424,21,o),
(476,77,cs),
(527,132,o),
(558,210,o),
(558,299,cs),
(558,359,o),
(539,413,o),
(504,451,cs),
(468,489,o),
(417,512,o),
(350,512,cs),
(253,512,o),
(192,466,o),
(149,409,c),
(162,500,l),
(108,500,l)
);
},
{
closed = 1;
nodes = (
(185,36,o),
(122,102,o),
(122,203,cs),
(122,276,o),
(146,341,o),
(186,389,cs),
(226,436,o),
(282,464,o),
(346,464,cs),
(394,464,o),
(432,447,o),
(459,416,cs),
(486,385,o),
(500,343,o),
(500,292,cs),
(500,219,o),
(478,155,o),
(439,109,cs),
(399,63,o),
(345,36,o),
(281,36,cs)
);
}
);
width = 593;
}
);
rightKerningGroup = b;
unicode = 112;
},
{
glyphname = q;
layers = (
{
layerId = "F1969046-B2E8-43BF-9859-EB2A2EDBE7A7";
shapes = (
{
closed = 1;
nodes = (
(350,-222,l),
(522,-222,l),
(647,500,l),
(496,500,l),
(466,447,l),
(443,482,o),
(400,512,o),
(320,512,cs),
(243,512,o),
(172,479,o),
(121,425,cs),
(70,371,o),
(39,295,o),
(39,210,cs),
(39,146,o),
(59,91,o),
(93,52,cs),
(127,12,o),
(175,-12,o),
(234,-12,cs),
(273,-12,o),
(304,-4,o),
(331,9,cs),
(358,22,o),
(380,40,o),
(397,60,c)
);
},
{
closed = 1;
nodes = (
(281,138,o),
(257,149,o),
(242,166,c),
(226,182,o),
(218,206,o),
(218,233,cs),
(218,268,o),
(231,300,o),
(254,324,cs),
(277,347,o),
(309,362,o),
(345,362,cs),
(405,362,o),
(441,324,o),
(441,271,cs),
(441,236,o),
(426,203,o),
(403,179,cs),
(379,154,o),
(346,138,o),
(310,138,cs)
);
}
);
width = 662;
},
{
layerId = "F079074A-78E4-4C90-8BE5-DA787960C0F3";
shapes = (
{
closed = 1;
nodes = (
(379,-222,l),
(468,-222,l),
(595,500,l),
(515,500,l),
(491,418,l),
(464,475,o),
(411,512,o),
(322,512,cs),
(242,512,o),
(171,479,o),
(120,426,cs),
(68,373,o),
(37,297,o),
(37,209,cs),
(37,148,o),
(56,93,o),
(91,53,cs),
(126,13,o),
(178,-12,o),
(242,-12,cs),
(289,-12,o),
(325,0,o),
(357,17,cs),
(388,34,o),
(412,58,o),
(431,82,c)
);
},
{
closed = 1;
nodes = (
(225,65,o),
(190,82,o),
(166,109,cs),
(142,136,o),
(129,174,o),
(129,217,cs),
(129,278,o),
(149,333,o),
(185,373,cs),
(220,412,o),
(270,435,o),
(326,435,cs),
(411,435,o),
(463,379,o),
(463,292,cs),
(463,229,o),
(443,173,o),
(408,132,cs),
(373,91,o),
(324,65,o),
(268,65,cs)
);
}
);
width = 613;
},
{
layerId = "732555A9-C6E9-44F7-9412-4A8D1575CED6";
shapes = (
{
closed = 1;
nodes = (
(391,-222,l),
(447,-222,l),
(574,500,l),
(522,500,l),
(501,406,l),
(473,473,o),
(415,512,o),
(323,512,cs),
(242,512,o),
(170,480,o),
(119,427,cs),
(67,374,o),
(36,298,o),
(36,209,cs),
(36,149,o),
(55,94,o),
(91,54,c),
(126,13,o),
(178,-12,o),
(245,-12,cs),
(294,-12,o),
(334,1,o),
(367,20,cs),
(399,39,o),
(425,66,o),
(445,91,c)
);
},
{
closed = 1;
nodes = (
(203,36,o),
(163,55,o),
(136,86,cs),
(108,117,o),
(93,162,o),
(93,211,cs),
(93,283,o),
(117,347,o),
(157,392,cs),
(197,437,o),
(254,464,o),
(318,464,cs),
(414,464,o),
(472,401,o),
(472,300,cs),
(472,227,o),
(449,161,o),
(410,113,cs),
(371,65,o),
(315,36,o),
(251,36,cs)
);
}
);
width = 594;
}
);
leftKerningGroup = a2;
unicode = 113;
},
{
glyphname = r;
layers = (
{
layerId = "F1969046-B2E8-43BF-9859-EB2A2EDBE7A7";
shapes = (
{
closed = 1;
nodes = (
(13,0,l),
(186,0,l),
(222,205,ls),
(230,253,o),
(248,284,o),
(273,304,cs),
(298,323,o),
(332,330,o),
(373,330,cs),
(420,330,l),
(453,512,l),
(374,512,o),
(304,471,o),
(255,408,c),
(253,500,l),
(101,500,l)
);
}
);
width = 428;
},
{
layerId = "F079074A-78E4-4C90-8BE5-DA787960C0F3";
shapes = (
{
closed = 1;
nodes = (
(18,0,l),
(107,0,l),
(154,266,ls),
(165,323,o),
(190,362,o),
(223,386,cs),
(256,410,o),
(300,419,o),
(344,419,cs),
(368,419,l),
(384,512,l),
(295,512,o),
(224,475,o),
(179,410,c),
(187,500,l),
(106,500,l)
);
}
);
width = 360;
},
{
layerId = "732555A9-C6E9-44F7-9412-4A8D1575CED6";
shapes = (
{
closed = 1;
nodes = (
(20,0,l),
(76,0,l),
(127,290,ls),
(138,351,o),
(166,393,o),
(203,419,cs),
(240,445,o),
(287,455,o),
(332,455,cs),
(347,455,l),
(357,512,l),
(262,512,o),
(192,476,o),
(148,411,c),
(160,500,l),
(108,500,l)
);
}
);
width = 333;
}
);
leftKerningGroup = m;
rightKerningGroup = r;
unicode = 114;
},
{
glyphname = s;
layers = (
{
layerId = "F1969046-B2E8-43BF-9859-EB2A2EDBE7A7";
shapes = (
{
closed = 1;
nodes = (
(385,-12,o),
(495,59,o),
(495,174,cs),
(495,256,o),
(423,286,o),
(318,313,c),
(266,325,o),
(230,334,o),
(230,353,cs),
(230,372,o),
(252,386,o),
(287,386,cs),
(322,386,o),
(347,372,o),
(352,351,c),
(514,351,l),
(514,448,o),
(440,512,o),
(307,512,cs),
(164,512,o),
(63,442,o),
(63,337,cs),
(63,254,o),
(159,219,o),
(251,195,c),
(288,183,o),
(321,177,o),
(321,154,cs),
(321,134,o),
(301,113,o),
(258,113,cs),
(218,113,o),
(185,131,o),
(185,167,c),
(14,167,l),
(6,72,o),
(91,-12,o),
(238,-12,cs)
);
}
);
width = 550;
},
{
layerId = "F079074A-78E4-4C90-8BE5-DA787960C0F3";
shapes = (
{
closed = 1;
nodes = (
(339,-12,o),
(429,53,o),
(436,153,cs),
(444,246,o),
(374,274,o),
(278,294,cs),
(203,309,o),
(172,332,o),
(176,369,c),
(179,410,o),
(218,439,o),
(280,439,cs),
(341,439,o),
(374,408,o),
(372,361,c),
(461,361,l),
(465,457,o),
(400,512,o),
(291,512,cs),
(173,512,o),
(90,449,o),
(84,361,cs),
(77,278,o),
(148,242,o),
(241,223,cs),
(309,209,o),
(348,195,o),
(342,143,c),
(338,95,o),
(295,61,o),
(229,61,cs),
(155,61,o),
(115,100,o),
(119,158,c),
(26,158,l),
(17,56,o),
(89,-12,o),
(217,-12,cs)
);
}
);
width = 508;
},
{
anchors = (
{
name = bottom;
position = "{203, 0}";
},
{
name = top;
position = "{289, 511}";
}
);
layerId = "732555A9-C6E9-44F7-9412-4A8D1575CED6";
shapes = (
{
closed = 1;
nodes = (
(320,-12,o),
(403,50,o),
(413,145,cs),
(424,242,o),
(355,269,o),
(262,286,cs),
(178,302,o),
(149,331,o),
(154,376,cs),
(159,425,o),
(205,460,o),
(277,460,cs),
(348,460,o),
(385,423,o),
(380,365,c),
(440,365,l),
(446,461,o),
(384,512,o),
(285,512,cs),
(177,512,o),
(101,452,o),
(92,370,cs),
(83,287,o),
(144,251,o),
(237,234,cs),
(317,220,o),
(359,202,o),
(351,138,c),
(345,80,o),
(292,40,o),
(217,40,cs),
(130,40,o),
(87,87,o),
(92,155,c),
(31,155,l),
(22,49,o),
(88,-12,o),
(208,-12,cs)
);
}
);
width = 491;
}
);
leftKerningGroup = s2;
rightKerningGroup = s;
unicode = 115;
},
{
glyphname = t;
layers = (
{
layerId = "F1969046-B2E8-43BF-9859-EB2A2EDBE7A7";
shapes = (
{
closed = 1;
nodes = (
(357,0,l),
(383,146,l),
(312,146,ls),
(279,146,o),
(266,156,o),
(266,180,cs),
(266,185,o),
(266,191,o),
(267,194,cs),
(296,357,l),
(419,357,l),
(445,500,l),
(322,500,l),
(348,647,l),
(194,647,l),
(149,500,l),
(65,500,l),
(39,357,l),
(124,357,l),
(95,196,l),
(92,176,o),
(90,158,o),
(90,142,cs),
(90,90,o),
(107,54,o),
(137,32,cs),
(167,10,o),
(208,0,o),
(259,0,cs)
);
}
);
width = 446;
},
{
layerId = "F079074A-78E4-4C90-8BE5-DA787960C0F3";
shapes = (
{
closed = 1;
nodes = (
(282,0,l),
(296,75,l),
(231,75,ls),
(180,75,o),
(160,88,o),
(160,129,cs),
(160,137,o),
(159,146,o),
(162,158,c),
(210,425,l),
(357,425,l),
(371,500,l),
(224,500,l),
(246,621,l),
(168,621,l),
(135,500,l),
(56,500,l),
(43,425,l),
(121,425,l),
(74,157,ls),
(71,141,o),
(70,124,o),
(70,111,cs),
(70,70,o),
(82,43,o),
(105,25,cs),
(128,7,o),
(160,0,o),
(203,0,cs)
);
}
);
width = 362;
},
{
layerId = "732555A9-C6E9-44F7-9412-4A8D1575CED6";
shapes = (
{
closed = 1;
nodes = (
(252,0,l),
(261,47,l),
(198,47,ls),
(141,47,o),
(117,61,o),
(117,109,cs),
(117,118,o),
(117,128,o),
(120,143,cs),
(176,452,l),
(332,452,l),
(341,500,l),
(185,500,l),
(205,611,l),
(157,611,l),
(129,500,l),
(53,500,l),
(44,452,l),
(120,452,l),
(65,142,ls),
(62,126,o),
(62,111,o),
(62,98,cs),
(62,62,o),
(72,38,o),
(92,22,cs),
(112,6,o),
(141,0,o),
(180,0,cs)
);
}
);
width = 328;
}
);
leftKerningGroup = t2;
rightKerningGroup = t;
unicode = 116;
},
{
glyphname = u;
layers = (
{
layerId = "F1969046-B2E8-43BF-9859-EB2A2EDBE7A7";
shapes = (
{
closed = 1;
nodes = (
(278,500,l),
(107,500,l),
(58,228,ls),
(54,203,o),
(51,179,o),
(51,158,cs),
(51,49,o),
(108,-12,o),
(216,-12,cs),
(296,-12,o),
(354,22,o),
(393,74,c),
(398,0,l),
(548,0,l),
(636,500,l),
(463,500,l),
(418,243,ls),
(406,174,o),
(359,132,o),
(302,132,cs),
(250,132,o),
(229,158,o),
(229,206,cs),
(229,217,o),
(230,228,o),
(233,243,cs)
);
}
);
width = 637;
},
{
layerId = "F079074A-78E4-4C90-8BE5-DA787960C0F3";
shapes = (
{
closed = 1;
nodes = (
(199,500,l),
(110,500,l),
(58,209,ls),
(54,188,o),
(52,169,o),
(52,149,cs),
(52,44,o),
(113,-12,o),
(214,-12,cs),
(291,-12,o),
(360,25,o),
(403,88,c),
(394,0,l),
(474,0,l),
(562,500,l),
(473,500,l),
(426,232,l),
(403,123,o),
(332,64,o),
(248,64,cs),
(180,64,o),
(144,99,o),
(144,170,cs),
(144,183,o),
(146,199,o),
(149,218,cs)
);
}
);
width = 566;
},
{
layerId = "732555A9-C6E9-44F7-9412-4A8D1575CED6";
shapes = (
{
closed = 1;
nodes = (
(167,500,l),
(111,500,l),
(58,202,ls),
(54,181,o),
(53,165,o),
(53,146,cs),
(53,42,o),
(114,-12,o),
(213,-12,cs),
(289,-12,o),
(363,26,o),
(407,94,c),
(393,0,l),
(445,0,l),
(533,500,l),
(477,500,l),
(429,228,l),
(402,103,o),
(321,37,o),
(226,37,cs),
(153,37,o),
(110,76,o),
(110,156,cs),
(110,171,o),
(112,188,o),
(115,208,c)
);
}
);
width = 537;
}
);
leftKerningGroup = u;
rightKerningGroup = a;
unicode = 117;
},
{
glyphname = v;
layers = (
{
layerId = "F1969046-B2E8-43BF-9859-EB2A2EDBE7A7";
shapes = (
{
closed = 1;
nodes = (
(143,0,l),
(357,0,l),
(623,500,l),
(442,500,l),
(278,161,l),
(235,500,l),
(54,500,l)
);
}
);
width = 589;
},
{
layerId = "F079074A-78E4-4C90-8BE5-DA787960C0F3";
shapes = (
{
closed = 1;
nodes = (
(164,0,l),
(270,0,l),
(554,500,l),
(461,500,l),
(232,84,l),
(149,500,l),
(57,500,l)
);
}
);
width = 523;
},
{
layerId = "732555A9-C6E9-44F7-9412-4A8D1575CED6";
shapes = (
{
closed = 1;
nodes = (
(172,0,l),
(235,0,l),
(527,500,l),
(468,500,l),
(213,53,l),
(114,500,l),
(58,500,l)
);
}
);
width = 496;
}
);
unicode = 118;
},
{
glyphname = w;
layers = (
{
layerId = "F1969046-B2E8-43BF-9859-EB2A2EDBE7A7";
shapes = (
{
closed = 1;
nodes = (
(114,0,l),
(293,0,l),
(444,334,l),
(477,0,l),
(656,0,l),
(891,500,l),
(722,500,l),
(595,175,l),
(568,500,l),
(378,500,l),
(237,175,l),
(224,500,l),
(54,500,l)
);
}
);
width = 857;
},
{
layerId = "F079074A-78E4-4C90-8BE5-DA787960C0F3";
shapes = (
{
closed = 1;
nodes = (
(115,0,l),
(206,0,l),
(399,408,l),
(449,0,l),
(540,0,l),
(774,500,l),
(685,500,l),
(513,114,l),
(465,500,l),
(365,500,l),
(181,114,l),
(145,500,l),
(57,500,l)
);
}
);
width = 742;
},
{
layerId = "732555A9-C6E9-44F7-9412-4A8D1575CED6";
shapes = (
{
closed = 1;
nodes = (
(115,0,l),
(171,0,l),
(381,438,l),
(438,0,l),
(493,0,l),
(727,500,l),
(670,500,l),
(480,89,l),
(424,500,l),
(360,500,l),
(158,89,l),
(114,500,l),
(58,500,l)
);
}
);
width = 696;
}
);
leftKerningGroup = w2;
rightKerningGroup = w;
unicode = 119;
},
{
glyphname = x;
layers = (
{
layerId = "F1969046-B2E8-43BF-9859-EB2A2EDBE7A7";
shapes = (
{
closed = 1;
nodes = (
(-33,0,l),
(152,0,l),
(291,149,l),
(377,0,l),
(563,0,l),
(416,250,l),
(650,500,l),
(465,500,l),
(327,351,l),
(240,500,l),
(54,500,l),
(202,250,l)
);
}
);
width = 617;
},
{
layerId = "F079074A-78E4-4C90-8BE5-DA787960C0F3";
shapes = (
{
closed = 1;
nodes = (
(-31,0,l),
(63,0,l),
(240,204,l),
(343,0,l),
(434,0,l),
(307,248,l),
(526,500,l),
(430,500,l),
(256,296,l),
(151,500,l),
(60,500,l),
(189,252,l)
);
}
);
width = 494;
},
{
layerId = "732555A9-C6E9-44F7-9412-4A8D1575CED6";
shapes = (
{
closed = 1;
nodes = (
(-30,0,l),
(28,0,l),
(219,226,l),
(329,0,l),
(383,0,l),
(263,247,l),
(476,500,l),
(416,500,l),
(228,274,l),
(116,500,l),
(62,500,l),
(184,253,l)
);
}
);
width = 445;
}
);
unicode = 120;
},
{
glyphname = y;
layers = (
{
layerId = "13F78407-9584-4645-8E30-4A73FD50F324";
name = "#instance";
shapes = (
{
closed = 1;
nodes = (
(26,-222,l),
(61,-222,ls),
(180,-222,o),
(251,-172,o),
(339,-26,cs),
(658,500,l),
(473,500,l),
(300,185,l),
(240,500,l),
(52,500,l),
(158,19,l),
(190,19,l),
(160,-28,ls),
(135,-67,o),
(121,-76,o),
(87,-76,cs),
(52,-76,l)
);
}
);
width = 622;
},
{
layerId = "F1969046-B2E8-43BF-9859-EB2A2EDBE7A7";
shapes = (
{
closed = 1;
nodes = (
(26,-222,l),
(61,-222,ls),
(180,-222,o),
(251,-172,o),
(339,-26,cs),
(658,500,l),
(473,500,l),
(300,185,l),
(240,500,l),
(52,500,l),
(158,19,l),
(190,19,l),
(160,-28,ls),
(135,-67,o),
(121,-76,o),
(87,-76,cs),
(52,-76,l)
);
}
);
width = 622;
},
{
layerId = "F079074A-78E4-4C90-8BE5-DA787960C0F3";
shapes = (
{
closed = 1;
nodes = (
(-30,-222,l),
(21,-222,ls),
(99,-222,o),
(154,-177,o),
(215,-80,cs),
(580,500,l),
(488,500,l),
(248,114,l),
(150,500,l),
(56,500,l),
(175,47,l),
(204,47,l),
(126,-78,ls),
(95,-127,o),
(72,-146,o),
(21,-146,cs),
(-17,-146,l)
);
}
);
width = 548;
},
{
layerId = "732555A9-C6E9-44F7-9412-4A8D1575CED6";
shapes = (
{
closed = 1;
nodes = (
(-50,-222,l),
(-5,-222,ls),
(63,-222,o),
(108,-191,o),
(165,-102,cs),
(549,500,l),
(494,500,l),
(227,86,l),
(114,500,l),
(58,500,l),
(182,58,l),
(210,58,l),
(110,-98,ls),
(72,-157,o),
(47,-174,o),
(-5,-174,cs),
(-41,-174,l)
);
}
);
width = 518;
}
);
leftKerningGroup = y2;
rightKerningGroup = y;
unicode = 121;
},
{
glyphname = z;
layers = (
{
layerId = "F1969046-B2E8-43BF-9859-EB2A2EDBE7A7";
shapes = (
{
closed = 1;
nodes = (
(-20,0,l),
(416,0,l),
(443,142,l),
(198,142,l),
(483,363,l),
(508,500,l),
(79,500,l),
(53,358,l),
(285,358,l),
(5,137,l)
);
}
);
width = 500;
},
{
layerId = "F079074A-78E4-4C90-8BE5-DA787960C0F3";
shapes = (
{
closed = 1;
nodes = (
(-21,0,l),
(360,0,l),
(374,73,l),
(92,73,l),
(441,428,l),
(455,500,l),
(83,500,l),
(69,427,l),
(339,427,l),
(-8,72,l)
);
}
);
width = 446;
},
{
layerId = "732555A9-C6E9-44F7-9412-4A8D1575CED6";
shapes = (
{
closed = 1;
nodes = (
(-22,0,l),
(337,0,l),
(346,46,l),
(50,46,l),
(424,454,l),
(434,500,l),
(85,500,l),
(76,454,l),
(361,454,l),
(-13,46,l)
);
}
);
width = 424;
}
);
leftKerningGroup = z;
unicode = 122;
},
{
glyphname = braceleft;
layers = (
{
layerId = "F1969046-B2E8-43BF-9859-EB2A2EDBE7A7";
shapes = (
{
closed = 1;
nodes = (
(344,-194,l),
(369,-54,l),
(330,-54,ls),
(298,-54,o),
(279,-44,o),
(279,-5,cs),
(279,27,o),
(292,59,o),
(305,94,cs),
(317,129,o),
(330,165,o),
(330,205,cs),
(330,256,o),
(308,295,o),
(244,308,c),
(244,310,l),
(283,318,o),
(313,334,o),
(334,358,cs),
(355,381,o),
(370,412,o),
(375,445,cs),
(387,514,o),
(380,567,o),
(388,615,cs),
(392,635,o),
(399,649,o),
(411,658,cs),
(422,667,o),
(438,671,o),
(458,671,cs),
(497,671,l),
(522,811,l),
(450,811,ls),
(369,811,o),
(312,784,o),
(275,737,cs),
(238,690,o),
(221,625,o),
(221,549,c),
(222,531,l),
(222,486,o),
(220,448,o),
(204,422,cs),
(188,396,o),
(160,380,o),
(108,377,c),
(84,241,l),
(144,238,o),
(167,215,o),
(167,180,cs),
(167,147,o),
(153,109,o),
(138,70,cs),
(123,30,o),
(109,-13,o),
(109,-54,cs),
(109,-146,o),
(172,-194,o),
(272,-194,cs)
);
}
);
width = 488;
},
{
layerId = "F079074A-78E4-4C90-8BE5-DA787960C0F3";
shapes = (
{
closed = 1;
nodes = (
(298,-154,l),
(310,-79,l),
(272,-79,ls),
(232,-79,o),
(201,-66,o),
(201,-18,cs),
(201,13,o),
(215,49,o),
(231,90,cs),
(246,131,o),
(260,175,o),
(260,220,cs),
(260,272,o),
(234,313,o),
(170,328,c),
(170,330,l),
(211,339,o),
(246,357,o),
(271,390,cs),
(296,422,o),
(312,470,o),
(312,537,c),
(313,564,o),
(313,584,o),
(314,607,cs),
(315,663,o),
(328,696,o),
(347,714,cs),
(366,732,o),
(391,736,o),
(416,736,cs),
(453,736,l),
(467,811,l),
(414,811,ls),
(350,811,o),
(305,790,o),
(274,752,cs),
(243,714,o),
(229,658,o),
(229,593,cs),
(229,553,ls),
(229,493,o),
(220,451,o),
(200,421,cs),
(179,391,o),
(148,373,o),
(100,365,c),
(88,294,l),
(153,279,o),
(174,247,o),
(174,206,cs),
(174,170,o),
(159,129,o),
(144,88,cs),
(128,47,o),
(113,4,o),
(113,-39,cs),
(113,-116,o),
(163,-154,o),
(243,-154,cs)
);
}
);
width = 414;
},
{
layerId = "732555A9-C6E9-44F7-9412-4A8D1575CED6";
shapes = (
{
closed = 1;
nodes = (
(279,-138,l),
(287,-89,l),
(249,-89,ls),
(206,-89,o),
(170,-75,o),
(170,-23,cs),
(170,6,o),
(185,45,o),
(201,89,cs),
(217,132,o),
(232,179,o),
(232,226,cs),
(232,279,o),
(205,320,o),
(141,336,c),
(141,338,l),
(182,347,o),
(219,366,o),
(246,403,cs),
(273,439,o),
(288,494,o),
(287,574,c),
(284,583,o),
(285,592,o),
(284,604,c),
(284,675,o),
(300,714,o),
(322,736,cs),
(344,758,o),
(372,762,o),
(399,762,cs),
(436,762,l),
(445,811,l),
(399,811,ls),
(343,811,o),
(301,792,o),
(274,757,cs),
(246,722,o),
(232,673,o),
(232,610,cs),
(232,562,ls),
(232,497,o),
(221,452,o),
(198,420,cs),
(175,388,o),
(142,371,o),
(97,360,c),
(89,315,l),
(157,296,o),
(177,260,o),
(177,217,cs),
(177,178,o),
(162,138,o),
(146,96,cs),
(130,54,o),
(115,11,o),
(115,-33,cs),
(115,-105,o),
(160,-138,o),
(232,-138,cs)
);
}
);
width = 384;
}
);
unicode = 123;
},
{
glyphname = bar;
layers = (
{
layerId = "F1969046-B2E8-43BF-9859-EB2A2EDBE7A7";
shapes = (
{
closed = 1;
nodes = (
(-5,-100,l),
(166,-100,l),
(311,720,l),
(140,720,l)
);
}
);
width = 284;
},
{
layerId = "F079074A-78E4-4C90-8BE5-DA787960C0F3";
shapes = (
{
closed = 1;
nodes = (
(5,-100,l),
(93,-100,l),
(238,720,l),
(150,720,l)
);
}
);
width = 221;
},
{
layerId = "732555A9-C6E9-44F7-9412-4A8D1575CED6";
shapes = (
{
closed = 1;
nodes = (
(9,-100,l),
(64,-100,l),
(209,720,l),
(154,720,l)
);
}
);
width = 196;
}
);
unicode = 124;
},
{
glyphname = braceright;
layers = (
{
layerId = "F1969046-B2E8-43BF-9859-EB2A2EDBE7A7";
shapes = (
{
closed = 1;
nodes = (
(-13,-194,l),
(59,-194,ls),
(140,-194,o),
(198,-167,o),
(235,-120,cs),
(271,-73,o),
(288,-8,o),
(288,68,c),
(287,86,l),
(287,133,o),
(289,170,o),
(305,196,cs),
(321,222,o),
(349,237,o),
(401,240,c),
(425,376,l),
(365,379,o),
(342,402,o),
(342,437,cs),
(342,470,o),
(356,508,o),
(371,548,cs),
(386,587,o),
(400,630,o),
(400,671,cs),
(400,763,o),
(337,811,o),
(237,811,cs),
(165,811,l),
(140,671,l),
(179,671,ls),
(211,671,o),
(230,661,o),
(230,622,cs),
(230,590,o),
(217,558,o),
(205,523,cs),
(192,488,o),
(179,452,o),
(179,412,cs),
(179,361,o),
(201,322,o),
(265,309,c),
(265,307,l),
(226,299,o),
(196,283,o),
(175,260,cs),
(154,236,o),
(141,207,o),
(134,172,cs),
(122,103,o),
(129,50,o),
(121,2,cs),
(117,-18,o),
(110,-32,o),
(99,-41,cs),
(87,-50,o),
(71,-54,o),
(51,-54,cs),
(12,-54,l)
);
}
);
width = 487;
},
{
layerId = "F079074A-78E4-4C90-8BE5-DA787960C0F3";
shapes = (
{
closed = 1;
nodes = (
(-25,-154,l),
(29,-154,ls),
(92,-154,o),
(139,-133,o),
(169,-95,cs),
(199,-57,o),
(214,-2,o),
(214,65,c),
(213,104,l),
(213,164,o),
(222,208,o),
(243,238,cs),
(263,268,o),
(295,285,o),
(342,293,c),
(355,364,l),
(290,377,o),
(268,411,o),
(268,451,cs),
(268,488,o),
(283,528,o),
(299,569,cs),
(314,610,o),
(329,653,o),
(329,697,cs),
(329,774,o),
(279,811,o),
(198,811,cs),
(145,811,l),
(132,736,l),
(170,736,ls),
(210,736,o),
(241,723,o),
(241,676,cs),
(241,644,o),
(227,608,o),
(212,568,cs),
(197,527,o),
(183,483,o),
(183,438,cs),
(183,383,o),
(208,343,o),
(272,330,c),
(272,328,l),
(232,319,o),
(196,301,o),
(172,268,cs),
(147,235,o),
(131,188,o),
(130,121,cs),
(129,93,o),
(129,72,o),
(129,51,c),
(128,-5,o),
(115,-37,o),
(96,-56,cs),
(76,-75,o),
(51,-79,o),
(27,-79,cs),
(-12,-79,l)
);
}
);
width = 413;
},
{
layerId = "732555A9-C6E9-44F7-9412-4A8D1575CED6";
shapes = (
{
closed = 1;
nodes = (
(-30,-138,l),
(17,-138,ls),
(73,-138,o),
(115,-119,o),
(143,-84,cs),
(170,-49,o),
(184,1,o),
(184,64,cs),
(184,111,ls),
(184,176,o),
(195,222,o),
(218,254,cs),
(241,286,o),
(274,303,o),
(319,314,c),
(327,359,l),
(259,378,o),
(239,414,o),
(239,457,cs),
(239,496,o),
(254,536,o),
(270,578,cs),
(285,620,o),
(300,663,o),
(300,707,cs),
(300,779,o),
(256,811,o),
(183,811,cs),
(137,811,l),
(129,762,l),
(167,762,ls),
(210,762,o),
(245,748,o),
(245,697,cs),
(245,666,o),
(230,628,o),
(215,585,cs),
(199,542,o),
(184,496,o),
(184,448,cs),
(184,392,o),
(211,353,o),
(275,338,c),
(275,336,l),
(234,327,o),
(197,308,o),
(170,272,cs),
(143,235,o),
(128,180,o),
(129,100,c),
(130,89,o),
(129,81,o),
(132,70,c),
(132,1,o),
(117,-39,o),
(95,-62,cs),
(73,-85,o),
(44,-89,o),
(17,-89,cs),
(-21,-89,l)
);
}
);
width = 384;
}
);
unicode = 125;
},
{
glyphname = asciitilde;
layers = (
{
layerId = "F1969046-B2E8-43BF-9859-EB2A2EDBE7A7";
shapes = (
{
closed = 1;
nodes = (
(496,208,o),
(584,272,o),
(635,425,c),
(508,425,l),
(493,378,o),
(469,359,o),
(434,359,cs),
(405,359,o),
(382,376,o),
(355,392,cs),
(328,408,o),
(297,425,o),
(253,425,cs),
(153,425,o),
(68,363,o),
(15,208,c),
(141,208,l),
(156,252,o),
(181,274,o),
(216,274,cs),
(245,274,o),
(268,257,o),
(296,241,cs),
(323,225,o),
(353,208,o),
(397,208,cs)
);
}
);
width = 625;
},
{
layerId = "F079074A-78E4-4C90-8BE5-DA787960C0F3";
shapes = (
{
closed = 1;
nodes = (
(405,247,o),
(464,295,o),
(499,392,c),
(432,392,l),
(419,351,o),
(389,327,o),
(354,327,cs),
(325,327,o),
(305,344,o),
(282,360,cs),
(259,376,o),
(235,393,o),
(196,393,cs),
(124,393,o),
(67,348,o),
(31,248,c),
(97,248,l),
(112,287,o),
(140,313,o),
(175,313,cs),
(204,313,o),
(225,296,o),
(248,280,cs),
(271,264,o),
(296,247,o),
(333,247,cs)
);
}
);
width = 503;
},
{
layerId = "732555A9-C6E9-44F7-9412-4A8D1575CED6";
shapes = (
{
closed = 1;
nodes = (
(369,263,o),
(417,303,o),
(444,379,c),
(402,379,l),
(389,340,o),
(357,314,o),
(322,314,cs),
(293,314,o),
(273,331,o),
(253,347,cs),
(232,363,o),
(209,380,o),
(173,380,cs),
(112,380,o),
(66,341,o),
(37,264,c),
(79,264,l),
(94,301,o),
(124,329,o),
(159,329,cs),
(188,329,o),
(208,312,o),
(229,296,cs),
(250,280,o),
(272,263,o),
(308,263,cs)
);
}
);
width = 454;
}
);
unicode = 126;
},
{
glyphname = exclamdown;
layers = (
{
layerId = "F1969046-B2E8-43BF-9859-EB2A2EDBE7A7";
shapes = (
{
closed = 1;
nodes = (
(274,316,l),
(129,316,l),
(30,-136,l),
(213,-136,l)
);
},
{
closed = 1;
nodes = (
(159,572,o),
(118,531,o),
(118,480,cs),
(118,427,o),
(159,386,o),
(219,386,cs),
(280,386,o),
(321,427,o),
(321,480,cs),
(321,531,o),
(280,572,o),
(219,572,cs)
);
}
);
width = 334;
},
{
layerId = "F079074A-78E4-4C90-8BE5-DA787960C0F3";
shapes = (
{
closed = 1;
nodes = (
(200,361,l),
(126,361,l),
(26,-142,l),
(122,-142,l)
);
},
{
closed = 1;
nodes = (
(145,563,o),
(120,537,o),
(120,504,cs),
(120,471,o),
(145,445,o),
(180,445,cs),
(215,445,o),
(240,471,o),
(240,504,cs),
(240,537,o),
(215,563,o),
(180,563,cs)
);
}
);
width = 240;
},
{
layerId = "732555A9-C6E9-44F7-9412-4A8D1575CED6";
shapes = (
{
closed = 1;
nodes = (
(171,379,l),
(125,379,l),
(25,-145,l),
(85,-145,l)
);
},
{
closed = 1;
nodes = (
(140,560,o),
(121,540,o),
(121,513,cs),
(121,488,o),
(140,469,o),
(164,469,cs),
(188,469,o),
(207,488,o),
(207,513,cs),
(207,540,o),
(188,560,o),
(164,560,cs)
);
}
);
width = 203;
}
);
unicode = 161;
},
{
glyphname = cent;
layers = (
{
layerId = "F1969046-B2E8-43BF-9859-EB2A2EDBE7A7";
shapes = (
{
closed = 1;
nodes = (
(172,-85,l),
(326,-85,l),
(341,-3,l),
(445,20,o),
(527,93,o),
(564,198,c),
(382,198,l),
(367,159,o),
(334,134,o),
(290,134,cs),
(266,134,o),
(246,142,o),
(234,158,c),
(221,173,o),
(214,194,o),
(214,219,cs),
(214,258,o),
(227,294,o),
(248,320,cs),
(269,346,o),
(299,362,o),
(331,362,cs),
(351,362,o),
(368,356,o),
(380,345,cs),
(392,333,o),
(399,318,o),
(399,298,c),
(581,298,l),
(582,406,o),
(525,477,o),
(429,500,c),
(446,597,l),
(292,597,l),
(274,498,l),
(203,481,o),
(144,442,o),
(103,390,cs),
(62,338,o),
(38,274,o),
(38,203,cs),
(38,151,o),
(52,107,o),
(77,72,cs),
(102,36,o),
(139,11,o),
(187,-2,c)
);
}
);
width = 614;
},
{
layerId = "F079074A-78E4-4C90-8BE5-DA787960C0F3";
shapes = (
{
closed = 1;
nodes = (
(185,-101,l),
(270,-101,l),
(286,-9,l),
(389,6,o),
(470,72,o),
(503,164,c),
(413,164,l),
(388,96,o),
(324,63,o),
(257,63,cs),
(221,63,o),
(188,76,o),
(165,101,cs),
(142,126,o),
(128,163,o),
(128,208,cs),
(128,273,o),
(149,330,o),
(185,370,cs),
(220,409,o),
(269,433,o),
(322,433,cs),
(355,433,o),
(385,424,o),
(407,408,cs),
(429,391,o),
(443,365,o),
(443,332,c),
(533,332,l),
(532,427,o),
(475,491,o),
(376,504,c),
(393,599,l),
(308,599,l),
(291,504,l),
(219,495,o),
(154,458,o),
(109,405,cs),
(64,352,o),
(36,280,o),
(36,199,cs),
(36,143,o),
(52,96,o),
(81,61,c),
(109,25,o),
(150,1,o),
(201,-8,c)
);
}
);
width = 557;
},
{
layerId = "732555A9-C6E9-44F7-9412-4A8D1575CED6";
shapes = (
{
closed = 1;
nodes = (
(190,-107,l),
(247,-107,l),
(264,-11,l),
(367,0,o),
(447,63,o),
(479,150,c),
(426,150,l),
(395,70,o),
(320,34,o),
(244,34,cs),
(203,34,o),
(165,50,o),
(138,79,c),
(110,107,o),
(93,151,o),
(93,204,cs),
(93,280,o),
(118,345,o),
(159,390,cs),
(200,434,o),
(256,461,o),
(319,461,cs),
(356,461,o),
(392,452,o),
(418,433,cs),
(444,413,o),
(460,385,o),
(460,346,c),
(514,346,l),
(511,435,o),
(455,495,o),
(355,506,c),
(372,600,l),
(314,600,l),
(298,507,l),
(225,500,o),
(159,466,o),
(112,412,cs),
(64,358,o),
(35,284,o),
(35,197,cs),
(35,140,o),
(53,92,o),
(83,56,cs),
(113,20,o),
(155,-3,o),
(206,-10,c)
);
}
);
width = 534;
}
);
unicode = 162;
},
{
glyphname = sterling;
layers = (
{
layerId = "F1969046-B2E8-43BF-9859-EB2A2EDBE7A7";
shapes = (
{
closed = 1;
nodes = (
(13,0,l),
(531,0,l),
(554,134,l),
(207,134,l),
(228,149,o),
(246,168,o),
(261,189,cs),
(281,218,o),
(295,252,o),
(302,287,c),
(458,287,l),
(478,402,l),
(295,402,l),
(291,425,o),
(288,445,o),
(288,466,cs),
(288,493,o),
(295,519,o),
(311,539,cs),
(327,559,o),
(351,572,o),
(387,572,cs),
(434,572,o),
(464,543,o),
(464,503,cs),
(464,496,o),
(464,492,o),
(463,485,c),
(619,485,l),
(622,500,o),
(622,512,o),
(622,525,cs),
(622,580,o),
(603,626,o),
(567,659,cs),
(530,692,o),
(475,712,o),
(403,712,cs),
(322,712,o),
(253,685,o),
(205,638,cs),
(156,590,o),
(127,524,o),
(127,447,cs),
(127,431,o),
(127,417,o),
(130,402,c),
(51,402,l),
(31,287,l),
(140,287,l),
(137,260,o),
(131,233,o),
(120,208,cs),
(111,187,o),
(99,166,o),
(84,146,cs),
(69,126,o),
(50,108,o),
(29,91,c)
);
}
);
width = 625;
},
{
layerId = "F079074A-78E4-4C90-8BE5-DA787960C0F3";
shapes = (
{
closed = 1;
nodes = (
(32,0,l),
(485,0,l),
(498,73,l),
(133,73,l),
(188,120,o),
(225,175,o),
(229,244,c),
(234,264,o),
(237,286,o),
(237,309,c),
(412,309,l),
(422,371,l),
(229,371,l),
(224,400,o),
(218,431,o),
(218,462,cs),
(218,513,o),
(233,557,o),
(261,589,cs),
(289,620,o),
(328,638,o),
(380,638,cs),
(456,638,o),
(495,593,o),
(495,530,cs),
(495,522,o),
(495,514,o),
(494,506,c),
(575,506,l),
(576,518,o),
(577,527,o),
(577,538,cs),
(577,587,o),
(561,630,o),
(529,662,cs),
(497,693,o),
(449,712,o),
(386,712,cs),
(313,712,o),
(250,685,o),
(206,641,cs),
(162,596,o),
(136,532,o),
(136,456,cs),
(136,424,o),
(141,398,o),
(146,371,c),
(52,371,l),
(41,309,l),
(154,309,l),
(155,289,o),
(155,270,o),
(151,250,c),
(148,209,o),
(137,174,o),
(118,142,cs),
(99,110,o),
(74,82,o),
(42,51,c)
);
}
);
width = 581;
},
{
layerId = "732555A9-C6E9-44F7-9412-4A8D1575CED6";
shapes = (
{
closed = 1;
nodes = (
(40,0,l),
(467,0,l),
(475,48,l),
(104,48,l),
(172,108,o),
(216,177,o),
(216,266,cs),
(216,282,o),
(214,299,o),
(211,318,c),
(394,318,l),
(400,358,l),
(203,358,l),
(196,391,o),
(190,425,o),
(190,460,cs),
(190,520,o),
(208,572,o),
(241,608,cs),
(273,644,o),
(320,665,o),
(377,665,cs),
(465,665,o),
(508,613,o),
(508,541,cs),
(508,532,o),
(507,523,o),
(506,514,c),
(557,514,l),
(558,525,o),
(559,534,o),
(559,543,cs),
(559,591,o),
(545,632,o),
(515,663,cs),
(485,694,o),
(439,712,o),
(379,712,cs),
(308,712,o),
(249,686,o),
(207,642,cs),
(165,598,o),
(140,535,o),
(140,459,cs),
(140,422,o),
(145,390,o),
(152,358,c),
(52,358,l),
(45,318,l),
(160,318,l),
(163,301,o),
(164,284,o),
(164,267,cs),
(164,218,o),
(152,177,o),
(132,141,cs),
(112,104,o),
(83,71,o),
(47,35,c)
);
}
);
width = 564;
}
);
unicode = 163;
},
{
glyphname = currency;
layers = (
{
layerId = "F1969046-B2E8-43BF-9859-EB2A2EDBE7A7";
shapes = (
{
closed = 1;
nodes = (
(297,116,o),
(331,122,o),
(362,134,c),
(414,70,l),
(492,137,l),
(449,189,l),
(484,225,o),
(505,271,o),
(505,327,cs),
(505,356,o),
(498,382,o),
(483,405,c),
(549,461,l),
(495,528,l),
(416,461,l),
(389,472,o),
(360,478,o),
(325,478,cs),
(289,478,o),
(256,472,o),
(225,461,c),
(170,528,l),
(92,461,l),
(137,406,l),
(102,370,o),
(82,325,o),
(82,269,cs),
(82,241,o),
(88,217,o),
(101,194,c),
(35,137,l),
(89,70,l),
(166,136,l),
(193,123,o),
(224,116,o),
(260,116,cs)
);
},
{
closed = 1;
nodes = (
(243,216,o),
(217,235,o),
(217,276,cs),
(217,305,o),
(227,330,o),
(243,349,cs),
(259,368,o),
(282,379,o),
(307,379,cs),
(340,379,o),
(368,361,o),
(368,318,cs),
(368,289,o),
(358,264,o),
(342,246,cs),
(326,228,o),
(303,216,o),
(278,216,cs)
);
}
);
width = 566;
},
{
layerId = "F079074A-78E4-4C90-8BE5-DA787960C0F3";
shapes = (
{
closed = 1;
nodes = (
(277,121,o),
(314,131,o),
(346,152,c),
(395,91,l),
(441,131,l),
(394,188,l),
(427,224,o),
(449,271,o),
(449,327,cs),
(449,356,o),
(442,382,o),
(429,405,c),
(501,466,l),
(468,505,l),
(394,441,l),
(369,461,o),
(337,473,o),
(300,473,cs),
(260,473,o),
(224,464,o),
(191,445,c),
(141,505,l),
(96,466,l),
(143,410,l),
(110,374,o),
(90,329,o),
(90,273,cs),
(90,242,o),
(97,216,o),
(110,193,c),
(37,131,l),
(69,91,l),
(143,155,l),
(167,134,o),
(200,121,o),
(237,121,cs)
);
},
{
closed = 1;
nodes = (
(208,187,o),
(172,215,o),
(172,272,cs),
(172,312,o),
(185,345,o),
(206,369,cs),
(226,393,o),
(255,408,o),
(288,408,cs),
(328,408,o),
(366,379,o),
(366,322,cs),
(366,283,o),
(353,250,o),
(332,226,cs),
(311,202,o),
(281,187,o),
(249,187,cs)
);
}
);
width = 520;
},
{
layerId = "732555A9-C6E9-44F7-9412-4A8D1575CED6";
shapes = (
{
closed = 1;
nodes = (
(269,123,o),
(307,135,o),
(340,159,c),
(388,100,l),
(421,128,l),
(372,187,l),
(405,224,o),
(426,271,o),
(426,327,cs),
(426,356,o),
(420,382,o),
(407,405,c),
(482,468,l),
(457,496,l),
(385,433,l),
(361,457,o),
(329,471,o),
(290,471,cs),
(249,471,o),
(211,461,o),
(178,438,c),
(130,496,l),
(98,468,l),
(146,411,l),
(113,376,o),
(93,330,o),
(93,274,cs),
(93,243,o),
(100,215,o),
(113,192,c),
(38,128,l),
(61,100,l),
(134,162,l),
(157,138,o),
(189,123,o),
(228,123,cs)
);
},
{
closed = 1;
nodes = (
(193,176,o),
(154,207,o),
(154,271,cs),
(154,315,o),
(167,352,o),
(190,378,cs),
(213,404,o),
(244,419,o),
(280,419,cs),
(324,419,o),
(365,387,o),
(365,323,cs),
(365,282,o),
(351,245,o),
(328,218,cs),
(305,191,o),
(273,176,o),
(237,176,cs)
);
}
);
width = 501;
}
);
unicode = 164;
},
{
glyphname = yen;
layers = (
{
layerId = "13F78407-9584-4645-8E30-4A73FD50F324";
name = "#instance";
shapes = (
{
closed = 1;
nodes = (
(213,0,l),
(384,0,l),
(408,134,l),
(608,134,l),
(628,248,l),
(437,248,l),
(437,248,l),
(479,309,l),
(639,310,l),
(659,425,l),
(560,425,l),
(750,700,l),
(558,700,l),
(369,390,l),
(289,700,l),
(94,700,l),
(189,425,l),
(88,425,l),
(68,310,l),
(228,309,l),
(249,248,l),
(249,248,l),
(57,248,l),
(37,134,l),
(237,134,l)
);
}
);
width = 684;
},
{
layerId = "F1969046-B2E8-43BF-9859-EB2A2EDBE7A7";
shapes = (
{
closed = 1;
nodes = (
(213,0,l),
(384,0,l),
(408,134,l),
(608,134,l),
(628,248,l),
(437,248,l),
(437,248,l),
(479,309,l),
(639,310,l),
(659,425,l),
(560,425,l),
(750,700,l),
(558,700,l),
(369,390,l),
(289,700,l),
(94,700,l),
(189,425,l),
(88,425,l),
(68,310,l),
(228,309,l),
(249,248,l),
(249,248,l),
(57,248,l),
(37,134,l),
(237,134,l)
);
}
);
width = 684;
},
{
layerId = "F079074A-78E4-4C90-8BE5-DA787960C0F3";
shapes = (
{
closed = 1;
nodes = (
(206,0,l),
(294,0,l),
(324,165,l),
(524,165,l),
(534,229,l),
(338,229,l),
(345,269,l),
(378,318,l),
(550,319,l),
(562,381,l),
(424,381,l),
(647,700,l),
(547,700,l),
(312,346,l),
(200,700,l),
(101,700,l),
(213,381,l),
(74,381,l),
(62,319,l),
(235,318,l),
(252,269,l),
(245,229,l),
(46,229,l),
(36,165,l),
(236,165,l)
);
}
);
width = 588;
},
{
layerId = "732555A9-C6E9-44F7-9412-4A8D1575CED6";
shapes = (
{
closed = 1;
nodes = (
(203,0,l),
(258,0,l),
(290,178,l),
(490,178,l),
(497,222,l),
(298,222,l),
(308,278,l),
(338,321,l),
(515,322,l),
(523,364,l),
(369,364,l),
(606,700,l),
(542,700,l),
(289,328,l),
(165,700,l),
(104,700,l),
(222,364,l),
(68,364,l),
(60,322,l),
(238,321,l),
(253,278,l),
(243,222,l),
(42,222,l),
(35,178,l),
(235,178,l)
);
}
);
width = 549;
}
);
unicode = 165;
},
{
glyphname = brokenbar;
layers = (
{
layerId = "13F78407-9584-4645-8E30-4A73FD50F324";
name = "#instance";
shapes = (
{
closed = 1;
nodes = (
(83,400,l),
(254,400,l),
(311,720,l),
(140,720,l)
);
},
{
closed = 1;
nodes = (
(-5,-100,l),
(166,-100,l),
(223,220,l),
(52,220,l)
);
}
);
width = 284;
},
{
layerId = "F1969046-B2E8-43BF-9859-EB2A2EDBE7A7";
shapes = (
{
closed = 1;
nodes = (
(83,400,l),
(254,400,l),
(311,720,l),
(140,720,l)
);
},
{
closed = 1;
nodes = (
(-5,-100,l),
(166,-100,l),
(223,220,l),
(52,220,l)
);
}
);
width = 284;
},
{
layerId = "F079074A-78E4-4C90-8BE5-DA787960C0F3";
shapes = (
{
closed = 1;
nodes = (
(92,388,l),
(180,388,l),
(238,720,l),
(150,720,l)
);
},
{
closed = 1;
nodes = (
(5,-100,l),
(93,-100,l),
(152,232,l),
(63,232,l)
);
}
);
width = 221;
},
{
layerId = "732555A9-C6E9-44F7-9412-4A8D1575CED6";
shapes = (
{
closed = 1;
nodes = (
(95,383,l),
(150,383,l),
(209,720,l),
(154,720,l)
);
},
{
closed = 1;
nodes = (
(9,-100,l),
(64,-100,l),
(123,237,l),
(68,237,l)
);
}
);
width = 196;
}
);
unicode = 166;
},
{
glyphname = section;
layers = (
{
layerId = "13F78407-9584-4645-8E30-4A73FD50F324";
name = "#instance";
shapes = (
{
closed = 1;
nodes = (
(315,-232,o),
(385,-206,o),
(434,-163,cs),
(483,-119,o),
(512,-58,o),
(512,13,cs),
(512,33,o),
(508,56,o),
(499,73,c),
(551,120,o),
(582,176,o),
(582,240,cs),
(582,288,o),
(563,327,o),
(532,358,cs),
(501,389,o),
(459,412,o),
(412,428,c),
(380,440,o),
(350,448,o),
(328,459,cs),
(306,470,o),
(292,484,o),
(292,505,cs),
(292,525,o),
(301,541,o),
(315,552,cs),
(329,563,o),
(347,569,o),
(370,569,cs),
(390,569,o),
(405,562,o),
(417,550,cs),
(428,538,o),
(434,522,o),
(431,502,c),
(616,502,l),
(624,569,o),
(603,621,o),
(563,657,cs),
(522,693,o),
(461,712,o),
(386,712,cs),
(303,712,o),
(233,686,o),
(184,643,cs),
(135,599,o),
(106,538,o),
(106,467,cs),
(106,444,o),
(111,424,o),
(120,407,c),
(68,360,o),
(36,304,o),
(36,240,cs),
(36,191,o),
(56,152,o),
(88,121,cs),
(119,90,o),
(161,68,o),
(206,52,cs),
(239,40,o),
(270,32,o),
(292,21,cs),
(314,10,o),
(327,-4,o),
(327,-25,cs),
(327,-44,o),
(320,-60,o),
(306,-72,cs),
(292,-83,o),
(272,-89,o),
(248,-89,cs),
(228,-89,o),
(213,-82,o),
(202,-70,cs),
(190,-58,o),
(186,-42,o),
(187,-22,c),
(2,-22,l),
(-6,-89,o),
(15,-141,o),
(56,-177,cs),
(96,-213,o),
(159,-232,o),
(232,-232,cs)
);
},
{
closed = 1;
nodes = (
(358,168,o),
(335,176,o),
(311,187,cs),
(290,196,o),
(268,209,o),
(252,222,cs),
(235,235,o),
(224,252,o),
(224,269,cs),
(224,284,o),
(232,304,o),
(245,317,c),
(253,309,o),
(264,309,o),
(275,305,c),
(294,301,o),
(324,289,o),
(349,273,cs),
(374,256,o),
(394,235,o),
(394,211,cs),
(394,194,o),
(386,176,o),
(374,163,c)
);
}
);
width = 624;
},
{
layerId = "F1969046-B2E8-43BF-9859-EB2A2EDBE7A7";
shapes = (
{
closed = 1;
nodes = (
(315,-232,o),
(385,-206,o),
(434,-163,cs),
(483,-119,o),
(512,-58,o),
(512,13,cs),
(512,33,o),
(508,56,o),
(499,73,c),
(551,120,o),
(582,176,o),
(582,240,cs),
(582,288,o),
(563,327,o),
(532,358,cs),
(501,389,o),
(459,412,o),
(412,428,c),
(380,440,o),
(350,448,o),
(328,459,cs),
(306,470,o),
(292,484,o),
(292,505,cs),
(292,525,o),
(301,541,o),
(315,552,cs),
(329,563,o),
(347,569,o),
(370,569,cs),
(390,569,o),
(405,562,o),
(417,550,cs),
(428,538,o),
(434,522,o),
(431,502,c),
(616,502,l),
(624,569,o),
(603,621,o),
(563,657,cs),
(522,693,o),
(461,712,o),
(386,712,cs),
(303,712,o),
(233,686,o),
(184,643,cs),
(135,599,o),
(106,538,o),
(106,467,cs),
(106,444,o),
(111,424,o),
(120,407,c),
(68,360,o),
(36,304,o),
(36,240,cs),
(36,191,o),
(56,152,o),
(88,121,cs),
(119,90,o),
(161,68,o),
(206,52,cs),
(239,40,o),
(270,32,o),
(292,21,cs),
(314,10,o),
(327,-4,o),
(327,-25,cs),
(327,-44,o),
(320,-60,o),
(306,-72,cs),
(292,-83,o),
(272,-89,o),
(248,-89,cs),
(228,-89,o),
(213,-82,o),
(202,-70,cs),
(190,-58,o),
(186,-42,o),
(187,-22,c),
(2,-22,l),
(-6,-89,o),
(15,-141,o),
(56,-177,cs),
(96,-213,o),
(159,-232,o),
(232,-232,cs)
);
},
{
closed = 1;
nodes = (
(358,168,o),
(335,176,o),
(311,187,cs),
(290,196,o),
(268,209,o),
(252,222,cs),
(235,235,o),
(224,252,o),
(224,269,cs),
(224,284,o),
(232,304,o),
(245,317,c),
(253,309,o),
(264,309,o),
(275,305,c),
(294,301,o),
(324,289,o),
(349,273,cs),
(374,256,o),
(394,235,o),
(394,211,cs),
(394,194,o),
(386,176,o),
(374,163,c)
);
}
);
width = 624;
},
{
layerId = "F079074A-78E4-4C90-8BE5-DA787960C0F3";
shapes = (
{
closed = 1;
nodes = (
(285,-232,o),
(342,-211,o),
(385,-176,cs),
(428,-140,o),
(454,-91,o),
(461,-32,c),
(466,1,o),
(463,29,o),
(450,53,c),
(505,97,o),
(534,152,o),
(534,219,cs),
(534,264,o),
(518,299,o),
(492,327,cs),
(466,354,o),
(429,374,o),
(388,387,c),
(340,406,o),
(295,417,o),
(263,434,cs),
(231,450,o),
(211,471,o),
(211,506,cs),
(211,545,o),
(227,577,o),
(254,600,cs),
(281,623,o),
(318,637,o),
(359,637,cs),
(404,637,o),
(434,622,o),
(454,599,cs),
(473,576,o),
(478,546,o),
(473,517,c),
(565,517,l),
(574,574,o),
(558,622,o),
(523,657,cs),
(487,692,o),
(434,712,o),
(367,712,cs),
(294,712,o),
(231,687,o),
(187,647,cs),
(142,607,o),
(117,550,o),
(117,486,cs),
(117,463,o),
(122,444,o),
(131,427,c),
(76,382,o),
(47,328,o),
(47,261,cs),
(47,216,o),
(63,182,o),
(89,155,cs),
(115,127,o),
(151,108,o),
(192,93,cs),
(243,74,o),
(287,62,o),
(319,46,c),
(350,29,o),
(369,9,o),
(369,-26,cs),
(369,-65,o),
(354,-96,o),
(327,-120,cs),
(300,-143,o),
(264,-157,o),
(221,-157,cs),
(176,-157,o),
(146,-142,o),
(128,-119,cs),
(110,-96,o),
(104,-66,o),
(108,-37,c),
(16,-37,l),
(7,-94,o),
(22,-142,o),
(58,-177,cs),
(93,-212,o),
(146,-232,o),
(214,-232,cs)
);
},
{
closed = 1;
nodes = (
(371,122,o),
(354,130,o),
(319,143,c),
(272,159,o),
(228,172,o),
(195,191,cs),
(162,210,o),
(141,235,o),
(141,275,cs),
(141,319,o),
(163,353,o),
(186,373,c),
(205,361,o),
(224,350,o),
(252,341,c),
(293,326,o),
(341,314,o),
(378,295,cs),
(414,276,o),
(440,249,o),
(440,205,cs),
(440,165,o),
(422,130,o),
(395,107,c)
);
}
);
width = 583;
},
{
layerId = "732555A9-C6E9-44F7-9412-4A8D1575CED6";
shapes = (
{
closed = 1;
nodes = (
(272,-232,o),
(325,-213,o),
(365,-181,cs),
(405,-149,o),
(430,-103,o),
(441,-50,c),
(448,-11,o),
(445,18,o),
(430,45,c),
(486,88,o),
(515,143,o),
(515,211,cs),
(515,255,o),
(500,288,o),
(476,314,cs),
(451,340,o),
(418,358,o),
(379,371,cs),
(323,391,o),
(273,404,o),
(237,423,cs),
(201,442,o),
(179,466,o),
(179,507,cs),
(179,552,o),
(198,591,o),
(230,619,cs),
(261,647,o),
(306,664,o),
(355,664,cs),
(410,664,o),
(447,646,o),
(469,619,cs),
(491,591,o),
(497,556,o),
(490,523,c),
(545,523,l),
(554,576,o),
(540,624,o),
(507,658,cs),
(474,692,o),
(423,712,o),
(359,712,cs),
(290,712,o),
(230,688,o),
(188,649,cs),
(146,610,o),
(121,556,o),
(121,493,cs),
(121,472,o),
(126,452,o),
(135,435,c),
(79,391,o),
(51,337,o),
(51,269,cs),
(51,226,o),
(65,193,o),
(89,168,cs),
(113,143,o),
(147,124,o),
(187,109,cs),
(244,89,o),
(294,75,o),
(330,56,c),
(365,36,o),
(386,13,o),
(386,-27,cs),
(386,-72,o),
(367,-111,o),
(336,-139,cs),
(304,-167,o),
(261,-184,o),
(210,-184,cs),
(154,-184,o),
(118,-166,o),
(98,-139,cs),
(77,-111,o),
(71,-76,o),
(76,-43,c),
(21,-43,l),
(12,-96,o),
(26,-144,o),
(59,-178,cs),
(91,-212,o),
(142,-232,o),
(207,-232,cs)
);
},
{
closed = 1;
nodes = (
(376,103,o),
(361,110,o),
(322,125,c),
(265,145,o),
(212,158,o),
(173,179,c),
(133,199,o),
(108,228,o),
(108,277,cs),
(108,333,o),
(135,373,o),
(163,396,c),
(184,381,o),
(208,367,o),
(243,355,c),
(294,336,o),
(348,324,o),
(389,304,cs),
(430,284,o),
(458,255,o),
(458,203,cs),
(458,154,o),
(436,112,o),
(403,84,c)
);
}
);
width = 567;
}
);
unicode = 167;
},
{
glyphname = dieresis;
layers = (
{
layerId = "13F78407-9584-4645-8E30-4A73FD50F324";
name = "#instance";
shapes = (
{
closed = 1;
nodes = (
(389,558,o),
(420,590,o),
(420,631,cs),
(420,674,o),
(389,705,o),
(346,705,cs),
(305,705,o),
(273,674,o),
(273,631,cs),
(273,590,o),
(305,558,o),
(346,558,cs)
);
},
{
closed = 1;
nodes = (
(189,558,o),
(220,590,o),
(220,631,cs),
(220,674,o),
(189,705,o),
(146,705,cs),
(105,705,o),
(73,674,o),
(73,631,cs),
(73,590,o),
(105,558,o),
(146,558,cs)
);
}
);
width = 358;
},
{
layerId = "F1969046-B2E8-43BF-9859-EB2A2EDBE7A7";
shapes = (
{
closed = 1;
nodes = (
(389,558,o),
(420,590,o),
(420,631,cs),
(420,674,o),
(389,705,o),
(346,705,cs),
(305,705,o),
(273,674,o),
(273,631,cs),
(273,590,o),
(305,558,o),
(346,558,cs)
);
},
{
closed = 1;
nodes = (
(189,558,o),
(220,590,o),
(220,631,cs),
(220,674,o),
(189,705,o),
(146,705,cs),
(105,705,o),
(73,674,o),
(73,631,cs),
(73,590,o),
(105,558,o),
(146,558,cs)
);
}
);
width = 358;
},
{
layerId = "F079074A-78E4-4C90-8BE5-DA787960C0F3";
shapes = (
{
closed = 1;
nodes = (
(331,570,o),
(353,593,o),
(353,621,cs),
(353,649,o),
(331,672,o),
(302,672,cs),
(274,672,o),
(252,649,o),
(252,621,cs),
(252,593,o),
(274,570,o),
(302,570,cs)
);
},
{
closed = 1;
nodes = (
(169,570,o),
(191,593,o),
(191,621,cs),
(191,649,o),
(169,672,o),
(140,672,cs),
(112,672,o),
(89,649,o),
(89,621,cs),
(89,593,o),
(112,570,o),
(140,570,cs)
);
}
);
width = 311;
},
{
layerId = "732555A9-C6E9-44F7-9412-4A8D1575CED6";
shapes = (
{
closed = 1;
nodes = (
(308,575,o),
(326,594,o),
(326,617,cs),
(326,640,o),
(308,659,o),
(285,659,cs),
(262,659,o),
(243,640,o),
(243,617,cs),
(243,594,o),
(262,575,o),
(285,575,cs)
);
},
{
closed = 1;
nodes = (
(161,575,o),
(180,594,o),
(180,617,cs),
(180,640,o),
(161,659,o),
(138,659,cs),
(115,659,o),
(96,640,o),
(96,617,cs),
(96,594,o),
(115,575,o),
(138,575,cs)
);
}
);
width = 292;
}
);
unicode = 168;
},
{
glyphname = copyright;
layers = (
{
layerId = "13F78407-9584-4645-8E30-4A73FD50F324";
name = "#instance";
shapes = (
{
closed = 1;
nodes = (
(453,-7,o),
(557,40,o),
(633,117,cs),
(709,193,o),
(755,298,o),
(755,418,cs),
(755,503,o),
(727,577,o),
(676,629,cs),
(624,681,o),
(551,712,o),
(459,712,cs),
(338,712,o),
(234,665,o),
(158,589,cs),
(82,513,o),
(36,408,o),
(36,288,cs),
(36,203,o),
(64,129,o),
(116,77,cs),
(167,24,o),
(240,-7,o),
(332,-7,cs)
);
},
{
closed = 1;
nodes = (
(265,48,o),
(205,73,o),
(162,117,cs),
(119,160,o),
(98,221,o),
(98,293,cs),
(98,397,o),
(132,488,o),
(195,553,cs),
(258,618,o),
(345,657,o),
(450,657,cs),
(527,657,o),
(589,633,o),
(630,590,cs),
(671,547,o),
(694,487,o),
(694,415,cs),
(694,311,o),
(658,221,o),
(597,154,cs),
(536,87,o),
(447,48,o),
(342,48,cs)
);
},
{
closed = 1;
nodes = (
(409,128,o),
(460,144,o),
(501,173,cs),
(542,201,o),
(575,243,o),
(594,292,c),
(448,292,l),
(433,264,o),
(411,243,o),
(372,243,cs),
(333,243,o),
(309,268,o),
(309,319,cs),
(309,354,o),
(317,389,o),
(334,417,cs),
(351,444,o),
(376,463,o),
(411,463,cs),
(447,463,o),
(465,443,o),
(469,414,c),
(616,414,l),
(613,518,o),
(544,578,o),
(436,578,cs),
(360,578,o),
(294,550,o),
(247,503,cs),
(199,455,o),
(170,389,o),
(170,313,cs),
(170,257,o),
(189,212,o),
(222,180,c),
(254,147,o),
(301,128,o),
(357,128,cs)
);
}
);
width = 767;
},
{
layerId = "F1969046-B2E8-43BF-9859-EB2A2EDBE7A7";
shapes = (
{
closed = 1;
nodes = (
(453,-7,o),
(557,40,o),
(633,117,cs),
(709,193,o),
(755,298,o),
(755,418,cs),
(755,503,o),
(727,577,o),
(676,629,cs),
(624,681,o),
(551,712,o),
(459,712,cs),
(338,712,o),
(234,665,o),
(158,589,cs),
(82,513,o),
(36,408,o),
(36,288,cs),
(36,203,o),
(64,129,o),
(116,77,c),
(167,24,o),
(240,-7,o),
(332,-7,cs)
);
},
{
closed = 1;
nodes = (
(265,48,o),
(205,73,o),
(162,117,cs),
(119,160,o),
(98,221,o),
(98,293,cs),
(98,397,o),
(132,488,o),
(195,553,cs),
(258,618,o),
(345,657,o),
(450,657,cs),
(527,657,o),
(589,633,o),
(630,590,cs),
(671,547,o),
(694,487,o),
(694,415,cs),
(694,311,o),
(658,221,o),
(597,154,cs),
(536,87,o),
(447,48,o),
(342,48,cs)
);
},
{
closed = 1;
nodes = (
(409,128,o),
(460,144,o),
(501,173,cs),
(542,201,o),
(575,243,o),
(594,292,c),
(448,292,l),
(433,264,o),
(411,243,o),
(372,243,cs),
(333,243,o),
(309,268,o),
(309,319,cs),
(309,354,o),
(317,389,o),
(334,417,cs),
(351,444,o),
(376,463,o),
(411,463,cs),
(447,463,o),
(465,443,o),
(469,414,c),
(616,414,l),
(613,518,o),
(544,578,o),
(436,578,cs),
(360,578,o),
(294,550,o),
(247,503,cs),
(199,455,o),
(170,389,o),
(170,313,cs),
(170,257,o),
(189,212,o),
(222,180,c),
(254,147,o),
(301,128,o),
(357,128,cs)
);
}
);
width = 767;
},
{
layerId = "F079074A-78E4-4C90-8BE5-DA787960C0F3";
shapes = (
{
closed = 1;
nodes = (
(458,-5,o),
(560,41,o),
(635,118,cs),
(710,194,o),
(754,297,o),
(754,416,cs),
(754,500,o),
(728,571,o),
(677,623,cs),
(625,675,o),
(554,705,o),
(463,705,cs),
(344,705,o),
(243,659,o),
(167,583,cs),
(92,507,o),
(47,406,o),
(47,287,cs),
(47,203,o),
(74,130,o),
(125,78,cs),
(176,26,o),
(250,-5,o),
(339,-5,cs)
);
},
{
closed = 1;
nodes = (
(263,32,o),
(199,58,o),
(156,105,c),
(112,150,o),
(89,214,o),
(89,289,cs),
(89,397,o),
(127,491,o),
(192,559,cs),
(257,627,o),
(350,668,o),
(458,668,cs),
(539,668,o),
(603,641,o),
(646,596,cs),
(690,551,o),
(713,487,o),
(713,411,cs),
(713,304,o),
(676,210,o),
(611,143,cs),
(546,74,o),
(454,32,o),
(346,32,cs)
);
},
{
closed = 1;
nodes = (
(409,119,o),
(457,133,o),
(497,160,cs),
(538,187,o),
(571,224,o),
(592,271,c),
(512,271,l),
(484,214,o),
(432,182,o),
(371,182,cs),
(304,182,o),
(257,224,o),
(257,307,cs),
(257,363,o),
(273,414,o),
(304,453,c),
(333,493,o),
(378,519,o),
(430,519,cs),
(489,519,o),
(533,490,o),
(540,430,c),
(620,430,l),
(612,527,o),
(542,583,o),
(442,583,cs),
(366,583,o),
(301,550,o),
(254,499,cs),
(207,447,o),
(179,377,o),
(179,301,cs),
(179,242,o),
(198,198,o),
(231,167,cs),
(263,136,o),
(308,119,o),
(360,119,cs)
);
}
);
width = 778;
},
{
layerId = "732555A9-C6E9-44F7-9412-4A8D1575CED6";
shapes = (
{
closed = 1;
nodes = (
(459,-4,o),
(561,42,o),
(636,118,cs),
(711,194,o),
(754,298,o),
(754,415,cs),
(754,499,o),
(728,569,o),
(677,621,cs),
(626,672,o),
(554,702,o),
(465,702,cs),
(348,702,o),
(246,657,o),
(171,581,cs),
(96,505,o),
(51,404,o),
(51,287,cs),
(51,203,o),
(78,130,o),
(129,79,cs),
(180,27,o),
(253,-4,o),
(342,-4,cs)
);
},
{
closed = 1;
nodes = (
(263,26,o),
(197,53,o),
(153,100,cs),
(109,147,o),
(85,212,o),
(85,288,cs),
(85,396,o),
(124,492,o),
(191,561,cs),
(258,630,o),
(352,673,o),
(461,673,cs),
(545,673,o),
(609,645,o),
(653,598,cs),
(697,551,o),
(721,486,o),
(721,410,cs),
(721,302,o),
(684,206,o),
(617,138,cs),
(550,69,o),
(456,26,o),
(347,26,cs)
);
},
{
closed = 1;
nodes = (
(409,115,o),
(456,128,o),
(496,155,cs),
(536,182,o),
(570,218,o),
(591,263,c),
(538,263,l),
(503,194,o),
(442,158,o),
(370,158,cs),
(293,158,o),
(236,206,o),
(236,302,cs),
(236,366,o),
(256,424,o),
(292,468,cs),
(327,512,o),
(378,541,o),
(438,541,cs),
(506,541,o),
(560,508,o),
(568,436,c),
(621,436,l),
(612,532,o),
(541,585,o),
(444,585,cs),
(368,585,o),
(304,550,o),
(257,497,cs),
(210,444,o),
(183,372,o),
(183,296,cs),
(183,236,o),
(202,193,o),
(234,162,cs),
(266,131,o),
(310,115,o),
(361,115,cs)
);
}
);
width = 783;
}
);
unicode = 169;
},
{
glyphname = ordfeminine;
leftMetricsKey = "=40";
rightMetricsKey = "=23";
layers = (
{
layerId = "13F78407-9584-4645-8E30-4A73FD50F324";
leftMetricsKey = "=41";
name = "#instance";
shapes = (
{
closed = 1;
nodes = (
(246,357,o),
(268,362,o),
(286,371,cs),
(304,380,o),
(318,392,o),
(330,405,c),
(338,365,l),
(439,365,l),
(497,700,l),
(397,700,l),
(376,664,l),
(361,688,o),
(333,708,o),
(278,708,cs),
(227,708,o),
(180,686,o),
(146,650,cs),
(112,613,o),
(90,563,o),
(90,506,cs),
(90,463,o),
(103,426,o),
(126,400,cs),
(149,374,o),
(181,357,o),
(221,357,cs)
);
},
{
closed = 1;
nodes = (
(252,457,o),
(237,465,o),
(226,476,cs),
(215,487,o),
(210,504,o),
(210,521,cs),
(210,545,o),
(219,566,o),
(235,582,cs),
(250,597,o),
(271,608,o),
(295,608,cs),
(335,608,o),
(359,582,o),
(359,547,cs),
(359,523,o),
(349,501,o),
(334,485,cs),
(318,468,o),
(296,457,o),
(272,457,cs)
);
}
);
width = 442;
},
{
layerId = "FCCFDAEB-1A4A-4506-9D6C-0B8E7DE1B620";
leftMetricsKey = "=39";
rightMetricsKey = "=27";
associatedMasterId = "732555A9-C6E9-44F7-9412-4A8D1575CED6";
name = 1;
shapes = (
{
closed = 1;
nodes = (
(261,357,o),
(288,366,o),
(310,379,cs),
(332,391,o),
(349,409,o),
(362,426,c),
(353,365,l),
(389,365,l),
(449,700,l),
(412,700,l),
(400,637,l),
(381,682,o),
(343,708,o),
(280,708,cs),
(227,708,o),
(178,687,o),
(144,651,cs),
(110,615,o),
(88,565,o),
(88,505,cs),
(88,465,o),
(101,428,o),
(125,401,c),
(148,373,o),
(184,357,o),
(228,357,cs)
);
},
{
closed = 1;
nodes = (
(200,389,o),
(174,402,o),
(155,423,cs),
(136,443,o),
(126,474,o),
(126,506,cs),
(126,555,o),
(142,598,o),
(169,628,cs),
(196,658,o),
(234,676,o),
(277,676,cs),
(341,676,o),
(380,634,o),
(380,566,cs),
(380,517,o),
(365,473,o),
(339,441,cs),
(313,409,o),
(275,389,o),
(232,389,cs)
);
}
);
width = 397;
},
{
layerId = "732555A9-C6E9-44F7-9412-4A8D1575CED6";
rightMetricsKey = "=26";
shapes = (
{
closed = 1;
nodes = (
(258,357,o),
(282,365,o),
(303,377,cs),
(324,388,o),
(340,404,o),
(353,420,c),
(349,365,l),
(403,365,l),
(463,700,l),
(408,700,l),
(393,645,l),
(376,684,o),
(340,708,o),
(280,708,cs),
(227,708,o),
(179,686,o),
(144,651,cs),
(109,615,o),
(89,564,o),
(89,505,cs),
(89,464,o),
(102,428,o),
(125,401,cs),
(148,373,o),
(183,357,o),
(226,357,cs)
);
},
{
closed = 1;
nodes = (
(215,409,o),
(191,421,o),
(175,438,cs),
(159,455,o),
(150,482,o),
(150,510,cs),
(150,551,o),
(164,589,o),
(188,615,cs),
(211,641,o),
(245,656,o),
(282,656,cs),
(339,656,o),
(374,618,o),
(374,561,cs),
(374,518,o),
(361,481,o),
(338,454,cs),
(314,426,o),
(281,409,o),
(244,409,cs)
);
}
);
width = 410;
},
{
layerId = "F1969046-B2E8-43BF-9859-EB2A2EDBE7A7";
leftMetricsKey = "=41";
shapes = (
{
closed = 1;
nodes = (
(246,357,o),
(268,362,o),
(286,371,cs),
(304,380,o),
(318,392,o),
(330,405,c),
(338,365,l),
(439,365,l),
(497,700,l),
(397,700,l),
(376,664,l),
(361,688,o),
(333,708,o),
(278,708,cs),
(227,708,o),
(180,686,o),
(146,650,cs),
(112,613,o),
(90,563,o),
(90,506,cs),
(90,463,o),
(103,426,o),
(126,400,cs),
(149,374,o),
(181,357,o),
(221,357,cs)
);
},
{
closed = 1;
nodes = (
(252,457,o),
(237,465,o),
(226,476,cs),
(215,487,o),
(210,504,o),
(210,521,cs),
(210,545,o),
(219,566,o),
(235,582,cs),
(250,597,o),
(271,608,o),
(295,608,cs),
(335,608,o),
(359,582,o),
(359,547,cs),
(359,523,o),
(349,501,o),
(334,485,cs),
(318,468,o),
(296,457,o),
(272,457,cs)
);
}
);
width = 442;
},
{
layerId = "F079074A-78E4-4C90-8BE5-DA787960C0F3";
rightMetricsKey = "=25";
shapes = (
{
closed = 1;
nodes = (
(255,357,o),
(278,364,o),
(298,375,cs),
(318,386,o),
(334,401,o),
(346,416,c),
(346,365,l),
(413,365,l),
(473,700,l),
(405,700,l),
(388,650,l),
(372,685,o),
(338,708,o),
(279,708,cs),
(227,708,o),
(179,686,o),
(145,651,cs),
(110,614,o),
(89,564,o),
(89,505,cs),
(89,464,o),
(102,427,o),
(125,401,cs),
(148,373,o),
(182,357,o),
(225,357,cs)
);
},
{
closed = 1;
nodes = (
(226,423,o),
(204,434,o),
(190,449,cs),
(175,464,o),
(167,488,o),
(167,513,cs),
(167,549,o),
(180,582,o),
(201,606,c),
(222,628,o),
(252,642,o),
(286,642,cs),
(338,642,o),
(370,608,o),
(370,557,cs),
(370,519,o),
(358,487,o),
(337,463,cs),
(315,438,o),
(285,423,o),
(252,423,cs)
);
}
);
width = 419;
}
);
unicode = 170;
},
{
glyphname = guillemotleft;
layers = (
{
layerId = "13F78407-9584-4645-8E30-4A73FD50F324";
name = "#instance";
shapes = (
{
closed = 1;
nodes = (
(320,120,l),
(478,120,l),
(422,295,l),
(540,470,l),
(382,470,l),
(267,295,l)
);
},
{
closed = 1;
nodes = (
(95,120,l),
(253,120,l),
(197,295,l),
(315,470,l),
(157,470,l),
(42,295,l)
);
}
);
width = 545;
},
{
layerId = "F1969046-B2E8-43BF-9859-EB2A2EDBE7A7";
shapes = (
{
closed = 1;
nodes = (
(320,120,l),
(478,120,l),
(422,295,l),
(540,470,l),
(382,470,l),
(267,295,l)
);
},
{
closed = 1;
nodes = (
(95,120,l),
(253,120,l),
(197,295,l),
(315,470,l),
(157,470,l),
(42,295,l)
);
}
);
width = 545;
},
{
layerId = "F079074A-78E4-4C90-8BE5-DA787960C0F3";
shapes = (
{
closed = 1;
nodes = (
(286,120,l),
(373,120,l),
(304,295,l),
(434,470,l),
(348,470,l),
(221,295,l)
);
},
{
closed = 1;
nodes = (
(106,120,l),
(194,120,l),
(124,295,l),
(254,470,l),
(168,470,l),
(41,295,l)
);
}
);
width = 443;
},
{
layerId = "732555A9-C6E9-44F7-9412-4A8D1575CED6";
shapes = (
{
closed = 1;
nodes = (
(272,120,l),
(331,120,l),
(257,295,l),
(392,470,l),
(334,470,l),
(202,295,l)
);
},
{
closed = 1;
nodes = (
(110,120,l),
(170,120,l),
(95,295,l),
(230,470,l),
(172,470,l),
(40,295,l)
);
}
);
width = 402;
}
);
leftKerningGroup = guillemotleft;
unicode = 171;
},
{
glyphname = logicalnot;
layers = (
{
layerId = "13F78407-9584-4645-8E30-4A73FD50F324";
name = "#instance";
shapes = (
{
closed = 1;
nodes = (
(473,180,l),
(644,180,l),
(690,442,l),
(75,442,l),
(52,312,l),
(496,312,l)
);
}
);
width = 716;
},
{
layerId = "F1969046-B2E8-43BF-9859-EB2A2EDBE7A7";
shapes = (
{
closed = 1;
nodes = (
(473,180,l),
(644,180,l),
(690,442,l),
(75,442,l),
(52,312,l),
(496,312,l)
);
}
);
width = 716;
},
{
layerId = "F079074A-78E4-4C90-8BE5-DA787960C0F3";
shapes = (
{
closed = 1;
nodes = (
(517,221,l),
(605,221,l),
(642,432,l),
(70,432,l),
(58,362,l),
(542,362,l)
);
}
);
width = 660;
},
{
layerId = "732555A9-C6E9-44F7-9412-4A8D1575CED6";
shapes = (
{
closed = 1;
nodes = (
(535,237,l),
(589,237,l),
(623,428,l),
(68,428,l),
(60,382,l),
(561,382,l)
);
}
);
width = 637;
}
);
unicode = 172;
},
{
glyphname = registered;
layers = (
{
layerId = "13F78407-9584-4645-8E30-4A73FD50F324";
name = "#instance";
shapes = (
{
closed = 1;
nodes = (
(316,280,o),
(374,303,o),
(419,341,cs),
(463,379,o),
(495,433,o),
(507,496,cs),
(519,560,o),
(506,614,o),
(474,652,cs),
(442,690,o),
(392,712,o),
(328,712,cs),
(265,712,o),
(207,690,o),
(161,652,cs),
(115,614,o),
(83,560,o),
(72,496,cs),
(61,433,o),
(74,379,o),
(106,341,cs),
(138,303,o),
(188,280,o),
(252,280,cs)
);
},
{
closed = 1;
nodes = (
(213,336,o),
(178,352,o),
(156,380,cs),
(134,408,o),
(125,448,o),
(133,496,cs),
(141,544,o),
(163,584,o),
(196,612,cs),
(228,640,o),
(270,656,o),
(318,656,cs),
(366,656,o),
(401,640,o),
(424,612,cs),
(447,584,o),
(454,544,o),
(446,496,cs),
(438,448,o),
(415,408,o),
(383,380,cs),
(351,352,o),
(309,336,o),
(261,336,cs)
);
},
{
closed = 1;
nodes = (
(296,393,l),
(380,393,l),
(344,475,l),
(372,486,o),
(389,507,o),
(394,536,cs),
(401,579,o),
(376,605,o),
(329,605,cs),
(218,605,l),
(180,393,l),
(254,393,l),
(267,467,l),
(268,467,l)
);
},
{
closed = 1;
nodes = (
(275,518,l),
(279,543,l),
(304,543,ls),
(313,543,o),
(317,539,o),
(316,531,cs),
(315,522,o),
(310,518,o),
(299,518,cs)
);
}
);
width = 502;
},
{
layerId = "F1969046-B2E8-43BF-9859-EB2A2EDBE7A7";
shapes = (
{
closed = 1;
nodes = (
(316,280,o),
(374,303,o),
(419,341,cs),
(463,379,o),
(495,433,o),
(507,496,cs),
(519,560,o),
(506,614,o),
(474,652,cs),
(442,690,o),
(392,712,o),
(328,712,cs),
(265,712,o),
(207,690,o),
(161,652,cs),
(115,614,o),
(83,560,o),
(72,496,cs),
(61,433,o),
(74,379,o),
(106,341,cs),
(138,303,o),
(188,280,o),
(252,280,cs)
);
},
{
closed = 1;
nodes = (
(213,336,o),
(178,352,o),
(156,380,cs),
(134,408,o),
(125,448,o),
(133,496,cs),
(141,544,o),
(163,584,o),
(196,612,cs),
(228,640,o),
(270,656,o),
(318,656,cs),
(366,656,o),
(401,640,o),
(424,612,cs),
(447,584,o),
(454,544,o),
(446,496,cs),
(438,448,o),
(415,408,o),
(383,380,cs),
(351,352,o),
(309,336,o),
(261,336,cs)
);
},
{
closed = 1;
nodes = (
(296,393,l),
(380,393,l),
(344,475,l),
(372,486,o),
(389,507,o),
(394,536,cs),
(401,579,o),
(376,605,o),
(329,605,cs),
(218,605,l),
(180,393,l),
(254,393,l),
(267,467,l),
(268,467,l)
);
},
{
closed = 1;
nodes = (
(275,518,l),
(279,543,l),
(304,543,ls),
(313,543,o),
(317,539,o),
(316,531,cs),
(315,522,o),
(310,518,o),
(299,518,cs)
);
}
);
width = 502;
},
{
layerId = "F079074A-78E4-4C90-8BE5-DA787960C0F3";
shapes = (
{
closed = 1;
nodes = (
(309,306,o),
(363,327,o),
(405,363,cs),
(447,399,o),
(476,451,o),
(487,508,cs),
(498,567,o),
(486,618,o),
(457,654,cs),
(428,690,o),
(381,712,o),
(322,712,cs),
(263,712,o),
(210,690,o),
(167,654,cs),
(124,618,o),
(94,567,o),
(85,508,cs),
(76,451,o),
(86,399,o),
(115,363,cs),
(144,327,o),
(190,306,o),
(250,306,cs)
);
},
{
closed = 1;
nodes = (
(207,342,o),
(171,360,o),
(148,389,cs),
(125,418,o),
(117,460,o),
(125,508,cs),
(133,556,o),
(157,598,o),
(190,627,cs),
(222,656,o),
(266,674,o),
(315,674,cs),
(364,674,o),
(400,656,o),
(424,627,cs),
(447,598,o),
(455,556,o),
(447,508,cs),
(439,460,o),
(415,418,o),
(382,389,cs),
(349,360,o),
(305,342,o),
(256,342,cs)
);
},
{
closed = 1;
nodes = (
(307,403,l),
(364,404,l),
(322,489,l),
(354,496,o),
(376,519,o),
(383,552,c),
(390,592,o),
(366,617,o),
(321,617,cs),
(226,617,l),
(188,403,l),
(236,403,l),
(251,486,l),
(270,486,l)
);
},
{
closed = 1;
nodes = (
(257,525,l),
(266,574,l),
(308,574,ls),
(324,574,o),
(336,566,o),
(332,550,c),
(331,533,o),
(318,525,o),
(299,525,cs)
);
}
);
width = 489;
},
{
layerId = "732555A9-C6E9-44F7-9412-4A8D1575CED6";
shapes = (
{
closed = 1;
nodes = (
(306,316,o),
(358,337,o),
(399,372,cs),
(439,407,o),
(468,457,o),
(479,513,cs),
(490,569,o),
(478,619,o),
(450,655,cs),
(422,691,o),
(376,712,o),
(319,712,cs),
(263,712,o),
(210,691,o),
(170,655,cs),
(129,619,o),
(99,569,o),
(90,513,cs),
(81,457,o),
(91,407,o),
(119,372,cs),
(147,337,o),
(192,316,o),
(249,316,cs)
);
},
{
closed = 1;
nodes = (
(205,345,o),
(168,363,o),
(145,393,cs),
(122,423,o),
(114,465,o),
(122,513,cs),
(130,561,o),
(154,604,o),
(187,634,cs),
(220,664,o),
(265,681,o),
(314,681,cs),
(363,681,o),
(400,664,o),
(424,634,cs),
(447,604,o),
(455,561,o),
(447,513,cs),
(439,465,o),
(416,423,o),
(382,393,cs),
(348,363,o),
(303,345,o),
(254,345,cs)
);
},
{
closed = 1;
nodes = (
(312,407,l),
(357,408,l),
(313,495,l),
(348,500,o),
(371,523,o),
(378,558,cs),
(385,598,o),
(362,622,o),
(318,622,cs),
(229,622,l),
(191,407,l),
(229,407,l),
(244,493,l),
(271,493,l)
);
},
{
closed = 1;
nodes = (
(250,528,l),
(261,586,l),
(310,586,ls),
(329,586,o),
(343,577,o),
(339,557,cs),
(336,537,o),
(320,528,o),
(299,528,cs)
);
}
);
width = 484;
}
);
unicode = 174;
},
{
glyphname = macron;
layers = (
{
layerId = "13F78407-9584-4645-8E30-4A73FD50F324";
name = "#instance";
shapes = (
{
closed = 1;
nodes = (
(60,566,l),
(460,566,l),
(481,684,l),
(81,684,l)
);
}
);
width = 408;
},
{
layerId = "F1969046-B2E8-43BF-9859-EB2A2EDBE7A7";
shapes = (
{
closed = 1;
nodes = (
(60,566,l),
(460,566,l),
(481,684,l),
(81,684,l)
);
}
);
width = 408;
},
{
layerId = "F079074A-78E4-4C90-8BE5-DA787960C0F3";
shapes = (
{
closed = 1;
nodes = (
(74,591,l),
(425,591,l),
(436,656,l),
(86,656,l)
);
}
);
width = 379;
},
{
layerId = "732555A9-C6E9-44F7-9412-4A8D1575CED6";
shapes = (
{
closed = 1;
nodes = (
(80,601,l),
(411,601,l),
(418,645,l),
(88,645,l)
);
}
);
width = 367;
}
);
unicode = 175;
},
{
glyphname = degree;
layers = (
{
layerId = "13F78407-9584-4645-8E30-4A73FD50F324";
name = "#instance";
shapes = (
{
closed = 1;
nodes = (
(280,408,o),
(319,422,o),
(347,449,cs),
(375,476,o),
(393,514,o),
(393,559,cs),
(393,606,o),
(375,644,o),
(347,671,cs),
(319,698,o),
(281,712,o),
(241,712,cs),
(201,712,o),
(162,698,o),
(134,671,cs),
(106,644,o),
(88,606,o),
(88,559,cs),
(88,514,o),
(106,476,o),
(134,449,cs),
(162,422,o),
(200,408,o),
(240,408,cs)
);
},
{
closed = 1;
nodes = (
(217,509,o),
(193,527,o),
(193,560,cs),
(193,595,o),
(218,611,o),
(241,611,cs),
(264,611,o),
(288,595,o),
(288,560,cs),
(288,525,o),
(263,509,o),
(240,509,cs)
);
}
);
width = 371;
},
{
layerId = "F1969046-B2E8-43BF-9859-EB2A2EDBE7A7";
shapes = (
{
closed = 1;
nodes = (
(280,408,o),
(319,422,o),
(347,449,cs),
(375,476,o),
(393,514,o),
(393,559,cs),
(393,606,o),
(375,644,o),
(347,671,cs),
(319,698,o),
(281,712,o),
(241,712,cs),
(201,712,o),
(162,698,o),
(134,671,cs),
(106,644,o),
(88,606,o),
(88,559,cs),
(88,514,o),
(106,476,o),
(134,449,cs),
(162,422,o),
(200,408,o),
(240,408,cs)
);
},
{
closed = 1;
nodes = (
(217,509,o),
(193,527,o),
(193,560,cs),
(193,595,o),
(218,611,o),
(241,611,cs),
(264,611,o),
(288,595,o),
(288,560,cs),
(288,525,o),
(263,509,o),
(240,509,cs)
);
}
);
width = 371;
},
{
layerId = "F079074A-78E4-4C90-8BE5-DA787960C0F3";
shapes = (
{
closed = 1;
nodes = (
(261,442,o),
(294,455,o),
(319,479,cs),
(343,502,o),
(358,536,o),
(358,576,cs),
(358,619,o),
(343,651,o),
(319,675,cs),
(295,699,o),
(262,712,o),
(226,712,cs),
(190,712,o),
(156,699,o),
(132,675,cs),
(108,651,o),
(92,619,o),
(92,576,cs),
(92,536,o),
(108,502,o),
(132,479,cs),
(156,455,o),
(190,442,o),
(225,442,cs)
);
},
{
closed = 1;
nodes = (
(193,507,o),
(159,530,o),
(159,577,cs),
(159,625,o),
(194,648,o),
(226,648,cs),
(257,648,o),
(291,625,o),
(291,577,cs),
(291,530,o),
(256,507,o),
(225,507,cs)
);
}
);
width = 335;
},
{
layerId = "732555A9-C6E9-44F7-9412-4A8D1575CED6";
shapes = (
{
closed = 1;
nodes = (
(254,456,o),
(284,469,o),
(307,491,cs),
(330,513,o),
(344,544,o),
(344,583,cs),
(344,623,o),
(330,654,o),
(308,677,cs),
(286,700,o),
(255,712,o),
(220,712,cs),
(185,712,o),
(154,700,o),
(131,677,cs),
(108,654,o),
(94,623,o),
(94,583,cs),
(94,544,o),
(108,513,o),
(131,491,cs),
(154,469,o),
(186,456,o),
(219,456,cs)
);
},
{
closed = 1;
nodes = (
(183,506,o),
(146,532,o),
(146,584,cs),
(146,637,o),
(184,663,o),
(220,663,cs),
(255,663,o),
(292,637,o),
(292,584,cs),
(292,532,o),
(254,506,o),
(219,506,cs)
);
}
);
width = 320;
}
);
unicode = 176;
},
{
glyphname = plusminus;
layers = (
{
layerId = "13F78407-9584-4645-8E30-4A73FD50F324";
name = "#instance";
shapes = (
{
closed = 1;
nodes = (
(227,183,l),
(369,183,l),
(389,297,l),
(573,297,l),
(598,439,l),
(415,439,l),
(435,553,l),
(293,553,l),
(273,439,l),
(88,439,l),
(63,297,l),
(247,297,l)
);
},
{
closed = 1;
nodes = (
(11,0,l),
(521,0,l),
(548,151,l),
(38,151,l)
);
}
);
width = 619;
},
{
layerId = "F1969046-B2E8-43BF-9859-EB2A2EDBE7A7";
shapes = (
{
closed = 1;
nodes = (
(227,183,l),
(369,183,l),
(389,297,l),
(573,297,l),
(598,439,l),
(415,439,l),
(435,553,l),
(293,553,l),
(273,439,l),
(88,439,l),
(63,297,l),
(247,297,l)
);
},
{
closed = 1;
nodes = (
(11,0,l),
(521,0,l),
(548,151,l),
(38,151,l)
);
}
);
width = 619;
},
{
layerId = "F079074A-78E4-4C90-8BE5-DA787960C0F3";
shapes = (
{
closed = 1;
nodes = (
(234,128,l),
(313,128,l),
(338,268,l),
(537,268,l),
(550,343,l),
(351,343,l),
(376,482,l),
(297,482,l),
(272,343,l),
(74,343,l),
(60,268,l),
(258,268,l)
);
},
{
closed = 1;
nodes = (
(13,0,l),
(490,0,l),
(503,77,l),
(27,77,l)
);
}
);
width = 590;
},
{
layerId = "732555A9-C6E9-44F7-9412-4A8D1575CED6";
shapes = (
{
closed = 1;
nodes = (
(237,106,l),
(290,106,l),
(317,256,l),
(522,256,l),
(531,304,l),
(325,304,l),
(352,453,l),
(298,453,l),
(271,304,l),
(68,304,l),
(59,256,l),
(263,256,l)
);
},
{
closed = 1;
nodes = (
(14,0,l),
(477,0,l),
(485,47,l),
(22,47,l)
);
}
);
width = 578;
}
);
unicode = 177;
},
{
glyphname = twosuperior;
layers = (
{
layerId = "13F78407-9584-4645-8E30-4A73FD50F324";
name = "#instance";
shapes = (
{
closed = 1;
nodes = (
(356,352,l),
(374,453,l),
(174,453,l),
(196,423,l),
(196,449,o),
(228,466,o),
(288,487,cs),
(371,516,o),
(398,540,o),
(405,590,c),
(415,650,o),
(376,713,o),
(267,713,cs),
(167,713,o),
(104,668,o),
(85,593,c),
(211,579,l),
(219,603,o),
(236,621,o),
(260,621,cs),
(269,621,o),
(273,618,o),
(270,617,c),
(261,585,o),
(208,567,o),
(158,547,cs),
(93,521,o),
(67,481,o),
(57,411,cs),
(48,352,l)
);
}
);
width = 359;
},
{
layerId = "F1969046-B2E8-43BF-9859-EB2A2EDBE7A7";
shapes = (
{
closed = 1;
nodes = (
(356,352,l),
(374,453,l),
(174,453,l),
(196,423,l),
(196,449,o),
(228,466,o),
(288,487,cs),
(371,516,o),
(398,540,o),
(405,590,c),
(415,650,o),
(376,713,o),
(267,713,cs),
(167,713,o),
(104,668,o),
(85,593,c),
(211,579,l),
(219,603,o),
(236,621,o),
(260,621,cs),
(269,621,o),
(273,618,o),
(270,617,c),
(261,585,o),
(208,567,o),
(158,547,cs),
(93,521,o),
(67,481,o),
(57,411,cs),
(48,352,l)
);
}
);
width = 359;
},
{
layerId = "F079074A-78E4-4C90-8BE5-DA787960C0F3";
shapes = (
{
closed = 1;
nodes = (
(323,352,l),
(333,409,l),
(134,409,l),
(144,389,l),
(151,434,o),
(187,456,o),
(236,477,c),
(309,511,o),
(353,546,o),
(364,601,cs),
(375,660,o),
(335,710,o),
(256,710,cs),
(173,710,o),
(121,662,o),
(106,600,c),
(176,598,l),
(188,635,o),
(213,657,o),
(247,657,cs),
(276,657,o),
(294,639,o),
(289,604,c),
(281,559,o),
(227,538,o),
(178,513,cs),
(120,483,o),
(81,448,o),
(71,387,cs),
(65,352,l)
);
}
);
width = 359;
},
{
layerId = "732555A9-C6E9-44F7-9412-4A8D1575CED6";
shapes = (
{
closed = 1;
nodes = (
(309,352,l),
(317,391,l),
(118,391,l),
(123,375,l),
(133,427,o),
(171,451,o),
(214,473,cs),
(284,509,o),
(335,548,o),
(347,605,cs),
(358,663,o),
(318,708,o),
(252,708,cs),
(176,708,o),
(128,660,o),
(115,603,c),
(162,605,l),
(175,648,o),
(203,671,o),
(242,671,cs),
(279,671,o),
(303,648,o),
(296,599,cs),
(289,548,o),
(235,526,o),
(186,499,c),
(131,467,o),
(87,434,o),
(77,378,cs),
(73,352,l)
);
}
);
width = 359;
}
);
unicode = 178;
},
{
glyphname = threesuperior;
layers = (
{
layerId = "13F78407-9584-4645-8E30-4A73FD50F324";
name = "#instance";
shapes = (
{
closed = 1;
nodes = (
(296,348,o),
(360,380,o),
(370,436,c),
(380,484,o),
(351,515,o),
(307,529,c),
(320,531,l),
(362,544,o),
(387,562,o),
(393,595,c),
(403,663,o),
(346,713,o),
(246,713,cs),
(136,713,o),
(83,663,o),
(70,599,c),
(192,587,l),
(198,608,o),
(215,623,o),
(239,623,cs),
(254,623,o),
(258,619,o),
(255,607,c),
(251,578,o),
(228,562,o),
(203,562,cs),
(183,562,l),
(171,505,l),
(210,505,ls),
(235,505,o),
(244,502,o),
(242,485,c),
(237,457,o),
(215,439,o),
(192,439,cs),
(178,439,o),
(171,441,o),
(172,463,c),
(42,477,l),
(34,403,o),
(81,348,o),
(205,348,cs)
);
}
);
width = 351;
},
{
layerId = "F1969046-B2E8-43BF-9859-EB2A2EDBE7A7";
shapes = (
{
closed = 1;
nodes = (
(296,348,o),
(360,380,o),
(370,436,c),
(380,484,o),
(351,515,o),
(307,529,c),
(320,531,l),
(362,544,o),
(387,562,o),
(393,595,c),
(403,663,o),
(346,713,o),
(246,713,cs),
(136,713,o),
(83,663,o),
(70,599,c),
(192,587,l),
(198,608,o),
(215,623,o),
(239,623,cs),
(254,623,o),
(258,619,o),
(255,607,c),
(251,578,o),
(228,562,o),
(203,562,cs),
(183,562,l),
(171,505,l),
(210,505,ls),
(235,505,o),
(244,502,o),
(242,485,c),
(237,457,o),
(215,439,o),
(192,439,cs),
(178,439,o),
(171,441,o),
(172,463,c),
(42,477,l),
(34,403,o),
(81,348,o),
(205,348,cs)
);
}
);
width = 351;
},
{
layerId = "F079074A-78E4-4C90-8BE5-DA787960C0F3";
shapes = (
{
closed = 1;
nodes = (
(273,347,o),
(331,390,o),
(340,442,cs),
(348,486,o),
(323,515,o),
(287,526,c),
(289,528,l),
(331,540,o),
(359,566,o),
(366,606,cs),
(376,666,o),
(327,710,o),
(253,710,cs),
(171,710,o),
(116,668,o),
(100,611,c),
(167,609,l),
(180,637,o),
(204,656,o),
(242,656,cs),
(278,656,o),
(297,637,o),
(292,606,cs),
(286,570,o),
(254,550,o),
(215,550,cs),
(172,550,l),
(165,507,l),
(211,507,ls),
(250,507,o),
(274,490,o),
(269,456,cs),
(263,420,o),
(232,400,o),
(194,400,cs),
(161,400,o),
(138,413,o),
(139,453,c),
(70,456,l),
(64,387,o),
(105,347,o),
(190,347,cs)
);
}
);
width = 351;
},
{
layerId = "732555A9-C6E9-44F7-9412-4A8D1575CED6";
shapes = (
{
closed = 1;
nodes = (
(264,347,o),
(320,394,o),
(328,444,cs),
(335,487,o),
(312,515,o),
(279,526,c),
(277,528,l),
(318,538,o),
(348,568,o),
(355,610,cs),
(365,666,o),
(319,708,o),
(256,708,cs),
(185,708,o),
(129,670,o),
(113,616,c),
(157,618,l),
(172,649,o),
(200,670,o),
(243,670,cs),
(287,670,o),
(314,644,o),
(307,606,cs),
(300,567,o),
(265,545,o),
(220,545,cs),
(168,545,l),
(163,508,l),
(212,508,ls),
(257,508,o),
(286,485,o),
(280,444,c),
(273,405,o),
(240,384,o),
(195,384,cs),
(154,384,o),
(124,401,o),
(126,449,c),
(81,447,l),
(76,380,o),
(115,347,o),
(183,347,cs)
);
}
);
width = 351;
}
);
unicode = 179;
},
{
glyphname = micro;
layers = (
{
layerId = "13F78407-9584-4645-8E30-4A73FD50F324";
name = "#instance";
shapes = (
{
closed = 1;
nodes = (
(-27,-222,l),
(145,-222,l),
(183,-10,l),
(194,-11,o),
(202,-12,o),
(213,-12,cs),
(293,-12,o),
(350,22,o),
(389,74,c),
(394,0,l),
(544,0,l),
(632,500,l),
(460,500,l),
(414,243,ls),
(402,174,o),
(355,132,o),
(298,132,cs),
(246,132,o),
(225,158,o),
(225,206,cs),
(225,217,o),
(226,228,o),
(229,243,cs),
(274,500,l),
(102,500,l)
);
}
);
width = 645;
},
{
layerId = "F1969046-B2E8-43BF-9859-EB2A2EDBE7A7";
shapes = (
{
closed = 1;
nodes = (
(-27,-222,l),
(145,-222,l),
(183,-10,l),
(194,-11,o),
(202,-12,o),
(213,-12,cs),
(293,-12,o),
(350,22,o),
(389,74,c),
(394,0,l),
(544,0,l),
(632,500,l),
(460,500,l),
(414,243,ls),
(402,174,o),
(355,132,o),
(298,132,cs),
(246,132,o),
(225,158,o),
(225,206,cs),
(225,217,o),
(226,228,o),
(229,243,cs),
(274,500,l),
(102,500,l)
);
}
);
width = 645;
},
{
layerId = "F079074A-78E4-4C90-8BE5-DA787960C0F3";
shapes = (
{
closed = 1;
nodes = (
(-22,-222,l),
(66,-222,l),
(110,21,l),
(135,0,o),
(168,-12,o),
(211,-12,cs),
(288,-12,o),
(359,25,o),
(400,90,c),
(391,0,l),
(471,0,l),
(558,500,l),
(470,500,l),
(423,232,l),
(400,123,o),
(328,64,o),
(245,64,cs),
(176,64,o),
(141,99,o),
(141,170,cs),
(141,183,o),
(142,202,o),
(145,219,cs),
(195,500,l),
(106,500,l)
);
}
);
width = 577;
},
{
layerId = "732555A9-C6E9-44F7-9412-4A8D1575CED6";
shapes = (
{
closed = 1;
nodes = (
(-20,-222,l),
(35,-222,l),
(81,34,l),
(112,3,o),
(154,-12,o),
(210,-12,cs),
(286,-12,o),
(361,27,o),
(404,96,c),
(390,0,l),
(442,0,l),
(529,500,l),
(474,500,l),
(426,228,l),
(399,103,o),
(317,37,o),
(224,37,cs),
(148,37,o),
(107,76,o),
(107,156,cs),
(107,171,o),
(109,190,o),
(112,209,cs),
(163,500,l),
(108,500,l)
);
}
);
width = 550;
}
);
rightKerningGroup = a;
unicode = 181;
},
{
glyphname = paragraph;
layers = (
{
layerId = "13F78407-9584-4645-8E30-4A73FD50F324";
name = "#instance";
shapes = (
{
closed = 1;
nodes = (
(224,-100,l),
(365,-100,l),
(483,570,l),
(545,570,l),
(427,-100,l),
(568,-100,l),
(709,700,l),
(342,700,ls),
(261,700,o),
(190,677,o),
(141,636,cs),
(92,595,o),
(62,535,o),
(62,459,cs),
(62,414,o),
(77,366,o),
(110,331,c),
(142,295,o),
(193,271,o),
(266,271,cs),
(289,271,l)
);
}
);
width = 685;
},
{
layerId = "F1969046-B2E8-43BF-9859-EB2A2EDBE7A7";
shapes = (
{
closed = 1;
nodes = (
(224,-100,l),
(365,-100,l),
(483,570,l),
(545,570,l),
(427,-100,l),
(568,-100,l),
(709,700,l),
(342,700,ls),
(261,700,o),
(190,677,o),
(141,636,cs),
(92,595,o),
(62,535,o),
(62,459,cs),
(62,414,o),
(77,366,o),
(110,331,c),
(142,295,o),
(193,271,o),
(266,271,cs),
(289,271,l)
);
}
);
width = 685;
},
{
layerId = "F079074A-78E4-4C90-8BE5-DA787960C0F3";
shapes = (
{
closed = 1;
nodes = (
(218,-100,l),
(295,-100,l),
(424,631,l),
(505,631,l),
(376,-100,l),
(454,-100,l),
(595,700,l),
(348,700,ls),
(267,700,o),
(197,681,o),
(149,642,cs),
(101,605,o),
(72,548,o),
(72,475,cs),
(72,430,o),
(88,383,o),
(121,350,c),
(156,317,o),
(204,294,o),
(277,294,cs),
(288,294,l)
);
}
);
width = 581;
},
{
layerId = "732555A9-C6E9-44F7-9412-4A8D1575CED6";
shapes = (
{
closed = 1;
nodes = (
(215,-100,l),
(267,-100,l),
(400,655,l),
(489,655,l),
(356,-100,l),
(408,-100,l),
(549,700,l),
(350,700,ls),
(269,700,o),
(200,681,o),
(152,645,cs),
(104,608,o),
(76,554,o),
(76,482,cs),
(76,435,o),
(91,390,o),
(126,358,cs),
(161,325,o),
(209,303,o),
(281,303,cs),
(287,303,l)
);
}
);
width = 539;
}
);
unicode = 182;
},
{
glyphname = periodcentered;
layers = (
{
layerId = "13F78407-9584-4645-8E30-4A73FD50F324";
name = "#instance";
shapes = (
{
closed = 1;
nodes = (
(209,222,o),
(250,263,o),
(250,314,cs),
(250,367,o),
(209,408,o),
(149,408,cs),
(88,408,o),
(47,367,o),
(47,314,cs),
(47,263,o),
(88,222,o),
(149,222,cs)
);
}
);
width = 274;
},
{
layerId = "F1969046-B2E8-43BF-9859-EB2A2EDBE7A7";
shapes = (
{
closed = 1;
nodes = (
(209,222,o),
(250,263,o),
(250,314,cs),
(250,367,o),
(209,408,o),
(149,408,cs),
(88,408,o),
(47,367,o),
(47,314,cs),
(47,263,o),
(88,222,o),
(149,222,cs)
);
}
);
width = 274;
},
{
layerId = "F079074A-78E4-4C90-8BE5-DA787960C0F3";
shapes = (
{
closed = 1;
nodes = (
(143,282,o),
(169,308,o),
(169,341,cs),
(169,374,o),
(143,400,o),
(110,400,cs),
(75,400,o),
(50,374,o),
(50,341,cs),
(50,308,o),
(75,282,o),
(110,282,cs)
);
}
);
width = 186;
},
{
layerId = "732555A9-C6E9-44F7-9412-4A8D1575CED6";
shapes = (
{
closed = 1;
nodes = (
(117,306,o),
(137,325,o),
(137,352,cs),
(137,377,o),
(117,397,o),
(94,397,cs),
(70,397,o),
(51,377,o),
(51,352,cs),
(51,325,o),
(70,306,o),
(94,306,cs)
);
}
);
width = 151;
}
);
unicode = 183;
},
